<?xml version="1.0" encoding="UTF-8"?>
<!DOCTYPE xmeml>
<xmeml version="4">
	<project>
		<name>first-yellow</name>
		<children>
			<bin>
				<name>Attempts</name>
				<labels>
					<label2>Mango</label2>
				</labels>
				<children>
					<clip id="masterclip-1" explodedTracks="true">
						<uuid>86dba93f-daf8-470d-ba42-60ccd8735d11</uuid>
						<masterclipid>masterclip-1</masterclipid>
						<ismasterclip>TRUE</ismasterclip>
						<duration>3243</duration>
						<rate>
							<timebase>30</timebase>
							<ntsc>FALSE</ntsc>
						</rate>
						<in>0</in>
						<out>254</out>
						<name>a41</name>
						<media>
							<video>
								<track>
									<clipitem id="clipitem-1">
										<masterclipid>masterclip-1</masterclipid>
										<name>a41</name>
										<duration>254</duration>
										<rate>
											<timebase>30</timebase>
											<ntsc>FALSE</ntsc>
										</rate>
										<alphatype>none</alphatype>
										<pixelaspectratio>square</pixelaspectratio>
										<anamorphic>FALSE</anamorphic>
										<file id="file-1">
											<name>20211013_081801.mp4</name>
											<pathurl>file://localhost/P%3a/climbing/20211013_081801.mp4</pathurl>
											<rate>
												<timebase>30</timebase>
												<ntsc>FALSE</ntsc>
											</rate>
											<duration>3243</duration>
											<timecode>
												<rate>
													<timebase>30</timebase>
													<ntsc>FALSE</ntsc>
												</rate>
												<string>00:00:00:00</string>
												<frame>0</frame>
												<displayformat>NDF</displayformat>
											</timecode>
											<media>
												<video>
													<samplecharacteristics>
														<rate>
															<timebase>30</timebase>
															<ntsc>FALSE</ntsc>
														</rate>
														<width>1920</width>
														<height>1080</height>
														<anamorphic>FALSE</anamorphic>
														<pixelaspectratio>square</pixelaspectratio>
														<fielddominance>none</fielddominance>
													</samplecharacteristics>
												</video>
												<audio>
													<samplecharacteristics>
														<depth>16</depth>
														<samplerate>48000</samplerate>
													</samplecharacteristics>
													<channelcount>2</channelcount>
												</audio>
											</media>
										</file>
										<link>
											<linkclipref>clipitem-1</linkclipref>
											<mediatype>video</mediatype>
											<trackindex>1</trackindex>
											<clipindex>1</clipindex>
										</link>
										<link>
											<linkclipref>clipitem-2</linkclipref>
											<mediatype>audio</mediatype>
											<trackindex>1</trackindex>
											<clipindex>1</clipindex>
											<groupindex>1</groupindex>
										</link>
										<link>
											<linkclipref>clipitem-3</linkclipref>
											<mediatype>audio</mediatype>
											<trackindex>2</trackindex>
											<clipindex>1</clipindex>
											<groupindex>1</groupindex>
										</link>
										<subclipinfo>
											<startoffset>136</startoffset>
											<endoffset>2853</endoffset>
										</subclipinfo>
									</clipitem>
								</track>
							</video>
							<audio>
								<track>
									<clipitem id="clipitem-2">
										<masterclipid>masterclip-1</masterclipid>
										<name>a41</name>
										<duration>254</duration>
										<rate>
											<timebase>30</timebase>
											<ntsc>FALSE</ntsc>
										</rate>
										<file id="file-1"/>
										<sourcetrack>
											<mediatype>audio</mediatype>
											<trackindex>1</trackindex>
										</sourcetrack>
										<link>
											<linkclipref>clipitem-1</linkclipref>
											<mediatype>video</mediatype>
											<trackindex>1</trackindex>
											<clipindex>1</clipindex>
										</link>
										<link>
											<linkclipref>clipitem-2</linkclipref>
											<mediatype>audio</mediatype>
											<trackindex>1</trackindex>
											<clipindex>1</clipindex>
											<groupindex>1</groupindex>
										</link>
										<link>
											<linkclipref>clipitem-3</linkclipref>
											<mediatype>audio</mediatype>
											<trackindex>2</trackindex>
											<clipindex>1</clipindex>
											<groupindex>1</groupindex>
										</link>
										<subclipinfo>
											<startoffset>136</startoffset>
											<endoffset>2853</endoffset>
										</subclipinfo>
									</clipitem>
								</track>
								<track>
									<clipitem id="clipitem-3">
										<masterclipid>masterclip-1</masterclipid>
										<name>a41</name>
										<duration>254</duration>
										<rate>
											<timebase>30</timebase>
											<ntsc>FALSE</ntsc>
										</rate>
										<file id="file-1"/>
										<sourcetrack>
											<mediatype>audio</mediatype>
											<trackindex>2</trackindex>
										</sourcetrack>
										<link>
											<linkclipref>clipitem-1</linkclipref>
											<mediatype>video</mediatype>
											<trackindex>1</trackindex>
											<clipindex>1</clipindex>
										</link>
										<link>
											<linkclipref>clipitem-2</linkclipref>
											<mediatype>audio</mediatype>
											<trackindex>1</trackindex>
											<clipindex>1</clipindex>
											<groupindex>1</groupindex>
										</link>
										<link>
											<linkclipref>clipitem-3</linkclipref>
											<mediatype>audio</mediatype>
											<trackindex>2</trackindex>
											<clipindex>1</clipindex>
											<groupindex>1</groupindex>
										</link>
										<subclipinfo>
											<startoffset>136</startoffset>
											<endoffset>2853</endoffset>
										</subclipinfo>
									</clipitem>
								</track>
							</audio>
						</media>
						<logginginfo>
							<description></description>
							<scene></scene>
							<shottake></shottake>
							<lognote></lognote>
							<good></good>
							<originalvideofilename></originalvideofilename>
							<originalaudiofilename></originalaudiofilename>
						</logginginfo>
						<colorinfo>
							<lut></lut>
							<lut1></lut1>
							<asc_sop></asc_sop>
							<asc_sat></asc_sat>
							<lut2></lut2>
						</colorinfo>
						<labels>
							<label2>Iris</label2>
						</labels>
					</clip>
					<clip id="masterclip-2" explodedTracks="true">
						<uuid>32c6c5c0-5cd7-4cb8-b823-e05c084dc66e</uuid>
						<masterclipid>masterclip-2</masterclipid>
						<ismasterclip>TRUE</ismasterclip>
						<duration>3243</duration>
						<rate>
							<timebase>30</timebase>
							<ntsc>FALSE</ntsc>
						</rate>
						<in>0</in>
						<out>392</out>
						<name>a42</name>
						<media>
							<video>
								<track>
									<clipitem id="clipitem-4">
										<masterclipid>masterclip-2</masterclipid>
										<name>a42</name>
										<duration>392</duration>
										<rate>
											<timebase>30</timebase>
											<ntsc>FALSE</ntsc>
										</rate>
										<alphatype>none</alphatype>
										<pixelaspectratio>square</pixelaspectratio>
										<anamorphic>FALSE</anamorphic>
										<file id="file-2">
											<name>20211013_081801.mp4</name>
											<pathurl>file://localhost/P%3a/climbing/20211013_081801.mp4</pathurl>
											<rate>
												<timebase>30</timebase>
												<ntsc>FALSE</ntsc>
											</rate>
											<duration>3243</duration>
											<timecode>
												<rate>
													<timebase>30</timebase>
													<ntsc>FALSE</ntsc>
												</rate>
												<string>00:00:00:00</string>
												<frame>0</frame>
												<displayformat>NDF</displayformat>
											</timecode>
											<media>
												<video>
													<samplecharacteristics>
														<rate>
															<timebase>30</timebase>
															<ntsc>FALSE</ntsc>
														</rate>
														<width>1920</width>
														<height>1080</height>
														<anamorphic>FALSE</anamorphic>
														<pixelaspectratio>square</pixelaspectratio>
														<fielddominance>none</fielddominance>
													</samplecharacteristics>
												</video>
												<audio>
													<samplecharacteristics>
														<depth>16</depth>
														<samplerate>48000</samplerate>
													</samplecharacteristics>
													<channelcount>2</channelcount>
												</audio>
											</media>
										</file>
										<link>
											<linkclipref>clipitem-4</linkclipref>
											<mediatype>video</mediatype>
											<trackindex>1</trackindex>
											<clipindex>1</clipindex>
										</link>
										<link>
											<linkclipref>clipitem-5</linkclipref>
											<mediatype>audio</mediatype>
											<trackindex>1</trackindex>
											<clipindex>1</clipindex>
											<groupindex>1</groupindex>
										</link>
										<link>
											<linkclipref>clipitem-6</linkclipref>
											<mediatype>audio</mediatype>
											<trackindex>2</trackindex>
											<clipindex>1</clipindex>
											<groupindex>1</groupindex>
										</link>
										<subclipinfo>
											<startoffset>1010</startoffset>
											<endoffset>1841</endoffset>
										</subclipinfo>
									</clipitem>
								</track>
							</video>
							<audio>
								<track>
									<clipitem id="clipitem-5">
										<masterclipid>masterclip-2</masterclipid>
										<name>a42</name>
										<duration>392</duration>
										<rate>
											<timebase>30</timebase>
											<ntsc>FALSE</ntsc>
										</rate>
										<file id="file-2"/>
										<sourcetrack>
											<mediatype>audio</mediatype>
											<trackindex>1</trackindex>
										</sourcetrack>
										<link>
											<linkclipref>clipitem-4</linkclipref>
											<mediatype>video</mediatype>
											<trackindex>1</trackindex>
											<clipindex>1</clipindex>
										</link>
										<link>
											<linkclipref>clipitem-5</linkclipref>
											<mediatype>audio</mediatype>
											<trackindex>1</trackindex>
											<clipindex>1</clipindex>
											<groupindex>1</groupindex>
										</link>
										<link>
											<linkclipref>clipitem-6</linkclipref>
											<mediatype>audio</mediatype>
											<trackindex>2</trackindex>
											<clipindex>1</clipindex>
											<groupindex>1</groupindex>
										</link>
										<subclipinfo>
											<startoffset>1010</startoffset>
											<endoffset>1841</endoffset>
										</subclipinfo>
									</clipitem>
								</track>
								<track>
									<clipitem id="clipitem-6">
										<masterclipid>masterclip-2</masterclipid>
										<name>a42</name>
										<duration>392</duration>
										<rate>
											<timebase>30</timebase>
											<ntsc>FALSE</ntsc>
										</rate>
										<file id="file-2"/>
										<sourcetrack>
											<mediatype>audio</mediatype>
											<trackindex>2</trackindex>
										</sourcetrack>
										<link>
											<linkclipref>clipitem-4</linkclipref>
											<mediatype>video</mediatype>
											<trackindex>1</trackindex>
											<clipindex>1</clipindex>
										</link>
										<link>
											<linkclipref>clipitem-5</linkclipref>
											<mediatype>audio</mediatype>
											<trackindex>1</trackindex>
											<clipindex>1</clipindex>
											<groupindex>1</groupindex>
										</link>
										<link>
											<linkclipref>clipitem-6</linkclipref>
											<mediatype>audio</mediatype>
											<trackindex>2</trackindex>
											<clipindex>1</clipindex>
											<groupindex>1</groupindex>
										</link>
										<subclipinfo>
											<startoffset>1010</startoffset>
											<endoffset>1841</endoffset>
										</subclipinfo>
									</clipitem>
								</track>
							</audio>
						</media>
						<logginginfo>
							<description></description>
							<scene></scene>
							<shottake></shottake>
							<lognote></lognote>
							<good></good>
							<originalvideofilename></originalvideofilename>
							<originalaudiofilename></originalaudiofilename>
						</logginginfo>
						<colorinfo>
							<lut></lut>
							<lut1></lut1>
							<asc_sop></asc_sop>
							<asc_sat></asc_sat>
							<lut2></lut2>
						</colorinfo>
						<labels>
							<label2>Iris</label2>
						</labels>
					</clip>
					<clip id="masterclip-3" explodedTracks="true">
						<uuid>cfb1ec41-4000-445a-b1de-a1091299e731</uuid>
						<masterclipid>masterclip-3</masterclipid>
						<ismasterclip>TRUE</ismasterclip>
						<duration>13514</duration>
						<rate>
							<timebase>30</timebase>
							<ntsc>FALSE</ntsc>
						</rate>
						<in>270</in>
						<out>708</out>
						<name>a30</name>
						<media>
							<video>
								<track>
									<clipitem id="clipitem-7">
										<masterclipid>masterclip-3</masterclipid>
										<name>a30</name>
										<duration>438</duration>
										<rate>
											<timebase>30</timebase>
											<ntsc>FALSE</ntsc>
										</rate>
										<alphatype>none</alphatype>
										<pixelaspectratio>square</pixelaspectratio>
										<anamorphic>FALSE</anamorphic>
										<file id="file-3">
											<name>20211013_080326.mp4</name>
											<pathurl>file://localhost/P%3a/climbing/20211013_080326.mp4</pathurl>
											<rate>
												<timebase>30</timebase>
												<ntsc>FALSE</ntsc>
											</rate>
											<duration>13514</duration>
											<timecode>
												<rate>
													<timebase>30</timebase>
													<ntsc>FALSE</ntsc>
												</rate>
												<string>00:00:00:00</string>
												<frame>0</frame>
												<displayformat>NDF</displayformat>
											</timecode>
											<media>
												<video>
													<samplecharacteristics>
														<rate>
															<timebase>30</timebase>
															<ntsc>FALSE</ntsc>
														</rate>
														<width>1920</width>
														<height>1080</height>
														<anamorphic>FALSE</anamorphic>
														<pixelaspectratio>square</pixelaspectratio>
														<fielddominance>none</fielddominance>
													</samplecharacteristics>
												</video>
												<audio>
													<samplecharacteristics>
														<depth>16</depth>
														<samplerate>48000</samplerate>
													</samplecharacteristics>
													<channelcount>2</channelcount>
												</audio>
											</media>
										</file>
										<link>
											<linkclipref>clipitem-7</linkclipref>
											<mediatype>video</mediatype>
											<trackindex>1</trackindex>
											<clipindex>1</clipindex>
										</link>
										<link>
											<linkclipref>clipitem-8</linkclipref>
											<mediatype>audio</mediatype>
											<trackindex>1</trackindex>
											<clipindex>1</clipindex>
											<groupindex>1</groupindex>
										</link>
										<link>
											<linkclipref>clipitem-9</linkclipref>
											<mediatype>audio</mediatype>
											<trackindex>2</trackindex>
											<clipindex>1</clipindex>
											<groupindex>1</groupindex>
										</link>
										<subclipinfo>
											<startoffset>270</startoffset>
											<endoffset>12806</endoffset>
										</subclipinfo>
									</clipitem>
								</track>
							</video>
							<audio>
								<track>
									<clipitem id="clipitem-8">
										<masterclipid>masterclip-3</masterclipid>
										<name>a30</name>
										<duration>438</duration>
										<rate>
											<timebase>30</timebase>
											<ntsc>FALSE</ntsc>
										</rate>
										<file id="file-3"/>
										<sourcetrack>
											<mediatype>audio</mediatype>
											<trackindex>1</trackindex>
										</sourcetrack>
										<link>
											<linkclipref>clipitem-7</linkclipref>
											<mediatype>video</mediatype>
											<trackindex>1</trackindex>
											<clipindex>1</clipindex>
										</link>
										<link>
											<linkclipref>clipitem-8</linkclipref>
											<mediatype>audio</mediatype>
											<trackindex>1</trackindex>
											<clipindex>1</clipindex>
											<groupindex>1</groupindex>
										</link>
										<link>
											<linkclipref>clipitem-9</linkclipref>
											<mediatype>audio</mediatype>
											<trackindex>2</trackindex>
											<clipindex>1</clipindex>
											<groupindex>1</groupindex>
										</link>
										<subclipinfo>
											<startoffset>270</startoffset>
											<endoffset>12806</endoffset>
										</subclipinfo>
									</clipitem>
								</track>
								<track>
									<clipitem id="clipitem-9">
										<masterclipid>masterclip-3</masterclipid>
										<name>a30</name>
										<duration>438</duration>
										<rate>
											<timebase>30</timebase>
											<ntsc>FALSE</ntsc>
										</rate>
										<file id="file-3"/>
										<sourcetrack>
											<mediatype>audio</mediatype>
											<trackindex>2</trackindex>
										</sourcetrack>
										<link>
											<linkclipref>clipitem-7</linkclipref>
											<mediatype>video</mediatype>
											<trackindex>1</trackindex>
											<clipindex>1</clipindex>
										</link>
										<link>
											<linkclipref>clipitem-8</linkclipref>
											<mediatype>audio</mediatype>
											<trackindex>1</trackindex>
											<clipindex>1</clipindex>
											<groupindex>1</groupindex>
										</link>
										<link>
											<linkclipref>clipitem-9</linkclipref>
											<mediatype>audio</mediatype>
											<trackindex>2</trackindex>
											<clipindex>1</clipindex>
											<groupindex>1</groupindex>
										</link>
										<subclipinfo>
											<startoffset>270</startoffset>
											<endoffset>12806</endoffset>
										</subclipinfo>
									</clipitem>
								</track>
							</audio>
						</media>
						<logginginfo>
							<description></description>
							<scene></scene>
							<shottake></shottake>
							<lognote></lognote>
							<good></good>
							<originalvideofilename></originalvideofilename>
							<originalaudiofilename></originalaudiofilename>
						</logginginfo>
						<colorinfo>
							<lut></lut>
							<lut1></lut1>
							<asc_sop></asc_sop>
							<asc_sat></asc_sat>
							<lut2></lut2>
						</colorinfo>
						<labels>
							<label2>Iris</label2>
						</labels>
					</clip>
					<clip id="masterclip-4" explodedTracks="true">
						<uuid>b6738cfe-a087-4b1d-a9f4-4c3d903e33d9</uuid>
						<masterclipid>masterclip-4</masterclipid>
						<ismasterclip>TRUE</ismasterclip>
						<duration>13514</duration>
						<rate>
							<timebase>30</timebase>
							<ntsc>FALSE</ntsc>
						</rate>
						<in>1498</in>
						<out>1966</out>
						<name>a31</name>
						<media>
							<video>
								<track>
									<clipitem id="clipitem-10">
										<masterclipid>masterclip-4</masterclipid>
										<name>a31</name>
										<duration>468</duration>
										<rate>
											<timebase>30</timebase>
											<ntsc>FALSE</ntsc>
										</rate>
										<alphatype>none</alphatype>
										<pixelaspectratio>square</pixelaspectratio>
										<anamorphic>FALSE</anamorphic>
										<file id="file-4">
											<name>20211013_080326.mp4</name>
											<pathurl>file://localhost/P%3a/climbing/20211013_080326.mp4</pathurl>
											<rate>
												<timebase>30</timebase>
												<ntsc>FALSE</ntsc>
											</rate>
											<duration>13514</duration>
											<timecode>
												<rate>
													<timebase>30</timebase>
													<ntsc>FALSE</ntsc>
												</rate>
												<string>00:00:00:00</string>
												<frame>0</frame>
												<displayformat>NDF</displayformat>
											</timecode>
											<media>
												<video>
													<samplecharacteristics>
														<rate>
															<timebase>30</timebase>
															<ntsc>FALSE</ntsc>
														</rate>
														<width>1920</width>
														<height>1080</height>
														<anamorphic>FALSE</anamorphic>
														<pixelaspectratio>square</pixelaspectratio>
														<fielddominance>none</fielddominance>
													</samplecharacteristics>
												</video>
												<audio>
													<samplecharacteristics>
														<depth>16</depth>
														<samplerate>48000</samplerate>
													</samplecharacteristics>
													<channelcount>2</channelcount>
												</audio>
											</media>
										</file>
										<link>
											<linkclipref>clipitem-10</linkclipref>
											<mediatype>video</mediatype>
											<trackindex>1</trackindex>
											<clipindex>1</clipindex>
										</link>
										<link>
											<linkclipref>clipitem-11</linkclipref>
											<mediatype>audio</mediatype>
											<trackindex>1</trackindex>
											<clipindex>1</clipindex>
											<groupindex>1</groupindex>
										</link>
										<link>
											<linkclipref>clipitem-12</linkclipref>
											<mediatype>audio</mediatype>
											<trackindex>2</trackindex>
											<clipindex>1</clipindex>
											<groupindex>1</groupindex>
										</link>
										<subclipinfo>
											<startoffset>1498</startoffset>
											<endoffset>11548</endoffset>
										</subclipinfo>
									</clipitem>
								</track>
							</video>
							<audio>
								<track>
									<clipitem id="clipitem-11">
										<masterclipid>masterclip-4</masterclipid>
										<name>a31</name>
										<duration>468</duration>
										<rate>
											<timebase>30</timebase>
											<ntsc>FALSE</ntsc>
										</rate>
										<file id="file-4"/>
										<sourcetrack>
											<mediatype>audio</mediatype>
											<trackindex>1</trackindex>
										</sourcetrack>
										<link>
											<linkclipref>clipitem-10</linkclipref>
											<mediatype>video</mediatype>
											<trackindex>1</trackindex>
											<clipindex>1</clipindex>
										</link>
										<link>
											<linkclipref>clipitem-11</linkclipref>
											<mediatype>audio</mediatype>
											<trackindex>1</trackindex>
											<clipindex>1</clipindex>
											<groupindex>1</groupindex>
										</link>
										<link>
											<linkclipref>clipitem-12</linkclipref>
											<mediatype>audio</mediatype>
											<trackindex>2</trackindex>
											<clipindex>1</clipindex>
											<groupindex>1</groupindex>
										</link>
										<subclipinfo>
											<startoffset>1498</startoffset>
											<endoffset>11548</endoffset>
										</subclipinfo>
									</clipitem>
								</track>
								<track>
									<clipitem id="clipitem-12">
										<masterclipid>masterclip-4</masterclipid>
										<name>a31</name>
										<duration>468</duration>
										<rate>
											<timebase>30</timebase>
											<ntsc>FALSE</ntsc>
										</rate>
										<file id="file-4"/>
										<sourcetrack>
											<mediatype>audio</mediatype>
											<trackindex>2</trackindex>
										</sourcetrack>
										<link>
											<linkclipref>clipitem-10</linkclipref>
											<mediatype>video</mediatype>
											<trackindex>1</trackindex>
											<clipindex>1</clipindex>
										</link>
										<link>
											<linkclipref>clipitem-11</linkclipref>
											<mediatype>audio</mediatype>
											<trackindex>1</trackindex>
											<clipindex>1</clipindex>
											<groupindex>1</groupindex>
										</link>
										<link>
											<linkclipref>clipitem-12</linkclipref>
											<mediatype>audio</mediatype>
											<trackindex>2</trackindex>
											<clipindex>1</clipindex>
											<groupindex>1</groupindex>
										</link>
										<subclipinfo>
											<startoffset>1498</startoffset>
											<endoffset>11548</endoffset>
										</subclipinfo>
									</clipitem>
								</track>
							</audio>
						</media>
						<logginginfo>
							<description></description>
							<scene></scene>
							<shottake></shottake>
							<lognote></lognote>
							<good></good>
							<originalvideofilename></originalvideofilename>
							<originalaudiofilename></originalaudiofilename>
						</logginginfo>
						<colorinfo>
							<lut></lut>
							<lut1></lut1>
							<asc_sop></asc_sop>
							<asc_sat></asc_sat>
							<lut2></lut2>
						</colorinfo>
						<labels>
							<label2>Iris</label2>
						</labels>
					</clip>
					<clip id="masterclip-5" explodedTracks="true">
						<uuid>391746b1-5e3d-4db3-8bbc-fc7717a3e2c3</uuid>
						<masterclipid>masterclip-5</masterclipid>
						<ismasterclip>TRUE</ismasterclip>
						<duration>13514</duration>
						<rate>
							<timebase>30</timebase>
							<ntsc>FALSE</ntsc>
						</rate>
						<in>2590</in>
						<out>3096</out>
						<name>a32</name>
						<media>
							<video>
								<track>
									<clipitem id="clipitem-13">
										<masterclipid>masterclip-5</masterclipid>
										<name>a32</name>
										<duration>506</duration>
										<rate>
											<timebase>30</timebase>
											<ntsc>FALSE</ntsc>
										</rate>
										<alphatype>none</alphatype>
										<pixelaspectratio>square</pixelaspectratio>
										<anamorphic>FALSE</anamorphic>
										<file id="file-5">
											<name>20211013_080326.mp4</name>
											<pathurl>file://localhost/P%3a/climbing/20211013_080326.mp4</pathurl>
											<rate>
												<timebase>30</timebase>
												<ntsc>FALSE</ntsc>
											</rate>
											<duration>13514</duration>
											<timecode>
												<rate>
													<timebase>30</timebase>
													<ntsc>FALSE</ntsc>
												</rate>
												<string>00:00:00:00</string>
												<frame>0</frame>
												<displayformat>NDF</displayformat>
											</timecode>
											<media>
												<video>
													<samplecharacteristics>
														<rate>
															<timebase>30</timebase>
															<ntsc>FALSE</ntsc>
														</rate>
														<width>1920</width>
														<height>1080</height>
														<anamorphic>FALSE</anamorphic>
														<pixelaspectratio>square</pixelaspectratio>
														<fielddominance>none</fielddominance>
													</samplecharacteristics>
												</video>
												<audio>
													<samplecharacteristics>
														<depth>16</depth>
														<samplerate>48000</samplerate>
													</samplecharacteristics>
													<channelcount>2</channelcount>
												</audio>
											</media>
										</file>
										<link>
											<linkclipref>clipitem-13</linkclipref>
											<mediatype>video</mediatype>
											<trackindex>1</trackindex>
											<clipindex>1</clipindex>
										</link>
										<link>
											<linkclipref>clipitem-14</linkclipref>
											<mediatype>audio</mediatype>
											<trackindex>1</trackindex>
											<clipindex>1</clipindex>
											<groupindex>1</groupindex>
										</link>
										<link>
											<linkclipref>clipitem-15</linkclipref>
											<mediatype>audio</mediatype>
											<trackindex>2</trackindex>
											<clipindex>1</clipindex>
											<groupindex>1</groupindex>
										</link>
										<subclipinfo>
											<startoffset>2590</startoffset>
											<endoffset>10418</endoffset>
										</subclipinfo>
									</clipitem>
								</track>
							</video>
							<audio>
								<track>
									<clipitem id="clipitem-14">
										<masterclipid>masterclip-5</masterclipid>
										<name>a32</name>
										<duration>506</duration>
										<rate>
											<timebase>30</timebase>
											<ntsc>FALSE</ntsc>
										</rate>
										<file id="file-5"/>
										<sourcetrack>
											<mediatype>audio</mediatype>
											<trackindex>1</trackindex>
										</sourcetrack>
										<link>
											<linkclipref>clipitem-13</linkclipref>
											<mediatype>video</mediatype>
											<trackindex>1</trackindex>
											<clipindex>1</clipindex>
										</link>
										<link>
											<linkclipref>clipitem-14</linkclipref>
											<mediatype>audio</mediatype>
											<trackindex>1</trackindex>
											<clipindex>1</clipindex>
											<groupindex>1</groupindex>
										</link>
										<link>
											<linkclipref>clipitem-15</linkclipref>
											<mediatype>audio</mediatype>
											<trackindex>2</trackindex>
											<clipindex>1</clipindex>
											<groupindex>1</groupindex>
										</link>
										<subclipinfo>
											<startoffset>2590</startoffset>
											<endoffset>10418</endoffset>
										</subclipinfo>
									</clipitem>
								</track>
								<track>
									<clipitem id="clipitem-15">
										<masterclipid>masterclip-5</masterclipid>
										<name>a32</name>
										<duration>506</duration>
										<rate>
											<timebase>30</timebase>
											<ntsc>FALSE</ntsc>
										</rate>
										<file id="file-5"/>
										<sourcetrack>
											<mediatype>audio</mediatype>
											<trackindex>2</trackindex>
										</sourcetrack>
										<link>
											<linkclipref>clipitem-13</linkclipref>
											<mediatype>video</mediatype>
											<trackindex>1</trackindex>
											<clipindex>1</clipindex>
										</link>
										<link>
											<linkclipref>clipitem-14</linkclipref>
											<mediatype>audio</mediatype>
											<trackindex>1</trackindex>
											<clipindex>1</clipindex>
											<groupindex>1</groupindex>
										</link>
										<link>
											<linkclipref>clipitem-15</linkclipref>
											<mediatype>audio</mediatype>
											<trackindex>2</trackindex>
											<clipindex>1</clipindex>
											<groupindex>1</groupindex>
										</link>
										<subclipinfo>
											<startoffset>2590</startoffset>
											<endoffset>10418</endoffset>
										</subclipinfo>
									</clipitem>
								</track>
							</audio>
						</media>
						<logginginfo>
							<description></description>
							<scene></scene>
							<shottake></shottake>
							<lognote></lognote>
							<good></good>
							<originalvideofilename></originalvideofilename>
							<originalaudiofilename></originalaudiofilename>
						</logginginfo>
						<colorinfo>
							<lut></lut>
							<lut1></lut1>
							<asc_sop></asc_sop>
							<asc_sat></asc_sat>
							<lut2></lut2>
						</colorinfo>
						<labels>
							<label2>Iris</label2>
						</labels>
					</clip>
					<clip id="masterclip-6" explodedTracks="true">
						<uuid>cf1c0a1b-8b5e-45f7-a863-34f6407bbb4a</uuid>
						<masterclipid>masterclip-6</masterclipid>
						<ismasterclip>TRUE</ismasterclip>
						<duration>13514</duration>
						<rate>
							<timebase>30</timebase>
							<ntsc>FALSE</ntsc>
						</rate>
						<in>3422</in>
						<out>3758</out>
						<name>a33</name>
						<media>
							<video>
								<track>
									<clipitem id="clipitem-16">
										<masterclipid>masterclip-6</masterclipid>
										<name>a33</name>
										<duration>336</duration>
										<rate>
											<timebase>30</timebase>
											<ntsc>FALSE</ntsc>
										</rate>
										<alphatype>none</alphatype>
										<pixelaspectratio>square</pixelaspectratio>
										<anamorphic>FALSE</anamorphic>
										<file id="file-6">
											<name>20211013_080326.mp4</name>
											<pathurl>file://localhost/P%3a/climbing/20211013_080326.mp4</pathurl>
											<rate>
												<timebase>30</timebase>
												<ntsc>FALSE</ntsc>
											</rate>
											<duration>13514</duration>
											<timecode>
												<rate>
													<timebase>30</timebase>
													<ntsc>FALSE</ntsc>
												</rate>
												<string>00:00:00:00</string>
												<frame>0</frame>
												<displayformat>NDF</displayformat>
											</timecode>
											<media>
												<video>
													<samplecharacteristics>
														<rate>
															<timebase>30</timebase>
															<ntsc>FALSE</ntsc>
														</rate>
														<width>1920</width>
														<height>1080</height>
														<anamorphic>FALSE</anamorphic>
														<pixelaspectratio>square</pixelaspectratio>
														<fielddominance>none</fielddominance>
													</samplecharacteristics>
												</video>
												<audio>
													<samplecharacteristics>
														<depth>16</depth>
														<samplerate>48000</samplerate>
													</samplecharacteristics>
													<channelcount>2</channelcount>
												</audio>
											</media>
										</file>
										<link>
											<linkclipref>clipitem-16</linkclipref>
											<mediatype>video</mediatype>
											<trackindex>1</trackindex>
											<clipindex>1</clipindex>
										</link>
										<link>
											<linkclipref>clipitem-17</linkclipref>
											<mediatype>audio</mediatype>
											<trackindex>1</trackindex>
											<clipindex>1</clipindex>
											<groupindex>1</groupindex>
										</link>
										<link>
											<linkclipref>clipitem-18</linkclipref>
											<mediatype>audio</mediatype>
											<trackindex>2</trackindex>
											<clipindex>1</clipindex>
											<groupindex>1</groupindex>
										</link>
										<subclipinfo>
											<startoffset>3422</startoffset>
											<endoffset>9756</endoffset>
										</subclipinfo>
									</clipitem>
								</track>
							</video>
							<audio>
								<track>
									<clipitem id="clipitem-17">
										<masterclipid>masterclip-6</masterclipid>
										<name>a33</name>
										<duration>336</duration>
										<rate>
											<timebase>30</timebase>
											<ntsc>FALSE</ntsc>
										</rate>
										<file id="file-6"/>
										<sourcetrack>
											<mediatype>audio</mediatype>
											<trackindex>1</trackindex>
										</sourcetrack>
										<link>
											<linkclipref>clipitem-16</linkclipref>
											<mediatype>video</mediatype>
											<trackindex>1</trackindex>
											<clipindex>1</clipindex>
										</link>
										<link>
											<linkclipref>clipitem-17</linkclipref>
											<mediatype>audio</mediatype>
											<trackindex>1</trackindex>
											<clipindex>1</clipindex>
											<groupindex>1</groupindex>
										</link>
										<link>
											<linkclipref>clipitem-18</linkclipref>
											<mediatype>audio</mediatype>
											<trackindex>2</trackindex>
											<clipindex>1</clipindex>
											<groupindex>1</groupindex>
										</link>
										<subclipinfo>
											<startoffset>3422</startoffset>
											<endoffset>9756</endoffset>
										</subclipinfo>
									</clipitem>
								</track>
								<track>
									<clipitem id="clipitem-18">
										<masterclipid>masterclip-6</masterclipid>
										<name>a33</name>
										<duration>336</duration>
										<rate>
											<timebase>30</timebase>
											<ntsc>FALSE</ntsc>
										</rate>
										<file id="file-6"/>
										<sourcetrack>
											<mediatype>audio</mediatype>
											<trackindex>2</trackindex>
										</sourcetrack>
										<link>
											<linkclipref>clipitem-16</linkclipref>
											<mediatype>video</mediatype>
											<trackindex>1</trackindex>
											<clipindex>1</clipindex>
										</link>
										<link>
											<linkclipref>clipitem-17</linkclipref>
											<mediatype>audio</mediatype>
											<trackindex>1</trackindex>
											<clipindex>1</clipindex>
											<groupindex>1</groupindex>
										</link>
										<link>
											<linkclipref>clipitem-18</linkclipref>
											<mediatype>audio</mediatype>
											<trackindex>2</trackindex>
											<clipindex>1</clipindex>
											<groupindex>1</groupindex>
										</link>
										<subclipinfo>
											<startoffset>3422</startoffset>
											<endoffset>9756</endoffset>
										</subclipinfo>
									</clipitem>
								</track>
							</audio>
						</media>
						<logginginfo>
							<description></description>
							<scene></scene>
							<shottake></shottake>
							<lognote></lognote>
							<good></good>
							<originalvideofilename></originalvideofilename>
							<originalaudiofilename></originalaudiofilename>
						</logginginfo>
						<colorinfo>
							<lut></lut>
							<lut1></lut1>
							<asc_sop></asc_sop>
							<asc_sat></asc_sat>
							<lut2></lut2>
						</colorinfo>
						<labels>
							<label2>Iris</label2>
						</labels>
					</clip>
					<clip id="masterclip-7" explodedTracks="true">
						<uuid>db1ee891-5995-4653-8593-da3a92e1953c</uuid>
						<masterclipid>masterclip-7</masterclipid>
						<ismasterclip>TRUE</ismasterclip>
						<duration>13514</duration>
						<rate>
							<timebase>30</timebase>
							<ntsc>FALSE</ntsc>
						</rate>
						<in>3869</in>
						<out>4479</out>
						<name>a34</name>
						<media>
							<video>
								<track>
									<clipitem id="clipitem-19">
										<masterclipid>masterclip-7</masterclipid>
										<name>a34</name>
										<duration>610</duration>
										<rate>
											<timebase>30</timebase>
											<ntsc>FALSE</ntsc>
										</rate>
										<alphatype>none</alphatype>
										<pixelaspectratio>square</pixelaspectratio>
										<anamorphic>FALSE</anamorphic>
										<file id="file-7">
											<name>20211013_080326.mp4</name>
											<pathurl>file://localhost/P%3a/climbing/20211013_080326.mp4</pathurl>
											<rate>
												<timebase>30</timebase>
												<ntsc>FALSE</ntsc>
											</rate>
											<duration>13514</duration>
											<timecode>
												<rate>
													<timebase>30</timebase>
													<ntsc>FALSE</ntsc>
												</rate>
												<string>00:00:00:00</string>
												<frame>0</frame>
												<displayformat>NDF</displayformat>
											</timecode>
											<media>
												<video>
													<samplecharacteristics>
														<rate>
															<timebase>30</timebase>
															<ntsc>FALSE</ntsc>
														</rate>
														<width>1920</width>
														<height>1080</height>
														<anamorphic>FALSE</anamorphic>
														<pixelaspectratio>square</pixelaspectratio>
														<fielddominance>none</fielddominance>
													</samplecharacteristics>
												</video>
												<audio>
													<samplecharacteristics>
														<depth>16</depth>
														<samplerate>48000</samplerate>
													</samplecharacteristics>
													<channelcount>2</channelcount>
												</audio>
											</media>
										</file>
										<link>
											<linkclipref>clipitem-19</linkclipref>
											<mediatype>video</mediatype>
											<trackindex>1</trackindex>
											<clipindex>1</clipindex>
										</link>
										<link>
											<linkclipref>clipitem-20</linkclipref>
											<mediatype>audio</mediatype>
											<trackindex>1</trackindex>
											<clipindex>1</clipindex>
											<groupindex>1</groupindex>
										</link>
										<link>
											<linkclipref>clipitem-21</linkclipref>
											<mediatype>audio</mediatype>
											<trackindex>2</trackindex>
											<clipindex>1</clipindex>
											<groupindex>1</groupindex>
										</link>
										<subclipinfo>
											<startoffset>3869</startoffset>
											<endoffset>9035</endoffset>
										</subclipinfo>
									</clipitem>
								</track>
							</video>
							<audio>
								<track>
									<clipitem id="clipitem-20">
										<masterclipid>masterclip-7</masterclipid>
										<name>a34</name>
										<duration>610</duration>
										<rate>
											<timebase>30</timebase>
											<ntsc>FALSE</ntsc>
										</rate>
										<file id="file-7"/>
										<sourcetrack>
											<mediatype>audio</mediatype>
											<trackindex>1</trackindex>
										</sourcetrack>
										<link>
											<linkclipref>clipitem-19</linkclipref>
											<mediatype>video</mediatype>
											<trackindex>1</trackindex>
											<clipindex>1</clipindex>
										</link>
										<link>
											<linkclipref>clipitem-20</linkclipref>
											<mediatype>audio</mediatype>
											<trackindex>1</trackindex>
											<clipindex>1</clipindex>
											<groupindex>1</groupindex>
										</link>
										<link>
											<linkclipref>clipitem-21</linkclipref>
											<mediatype>audio</mediatype>
											<trackindex>2</trackindex>
											<clipindex>1</clipindex>
											<groupindex>1</groupindex>
										</link>
										<subclipinfo>
											<startoffset>3869</startoffset>
											<endoffset>9035</endoffset>
										</subclipinfo>
									</clipitem>
								</track>
								<track>
									<clipitem id="clipitem-21">
										<masterclipid>masterclip-7</masterclipid>
										<name>a34</name>
										<duration>610</duration>
										<rate>
											<timebase>30</timebase>
											<ntsc>FALSE</ntsc>
										</rate>
										<file id="file-7"/>
										<sourcetrack>
											<mediatype>audio</mediatype>
											<trackindex>2</trackindex>
										</sourcetrack>
										<link>
											<linkclipref>clipitem-19</linkclipref>
											<mediatype>video</mediatype>
											<trackindex>1</trackindex>
											<clipindex>1</clipindex>
										</link>
										<link>
											<linkclipref>clipitem-20</linkclipref>
											<mediatype>audio</mediatype>
											<trackindex>1</trackindex>
											<clipindex>1</clipindex>
											<groupindex>1</groupindex>
										</link>
										<link>
											<linkclipref>clipitem-21</linkclipref>
											<mediatype>audio</mediatype>
											<trackindex>2</trackindex>
											<clipindex>1</clipindex>
											<groupindex>1</groupindex>
										</link>
										<subclipinfo>
											<startoffset>3869</startoffset>
											<endoffset>9035</endoffset>
										</subclipinfo>
									</clipitem>
								</track>
							</audio>
						</media>
						<logginginfo>
							<description></description>
							<scene></scene>
							<shottake></shottake>
							<lognote></lognote>
							<good></good>
							<originalvideofilename></originalvideofilename>
							<originalaudiofilename></originalaudiofilename>
						</logginginfo>
						<colorinfo>
							<lut></lut>
							<lut1></lut1>
							<asc_sop></asc_sop>
							<asc_sat></asc_sat>
							<lut2></lut2>
						</colorinfo>
						<labels>
							<label2>Iris</label2>
						</labels>
					</clip>
					<clip id="masterclip-8" explodedTracks="true">
						<uuid>426e0b78-481a-4b8b-b991-aa0f22459276</uuid>
						<masterclipid>masterclip-8</masterclipid>
						<ismasterclip>TRUE</ismasterclip>
						<duration>13514</duration>
						<rate>
							<timebase>30</timebase>
							<ntsc>FALSE</ntsc>
						</rate>
						<in>4889</in>
						<out>5265</out>
						<name>a35</name>
						<media>
							<video>
								<track>
									<clipitem id="clipitem-22">
										<masterclipid>masterclip-8</masterclipid>
										<name>a35</name>
										<duration>376</duration>
										<rate>
											<timebase>30</timebase>
											<ntsc>FALSE</ntsc>
										</rate>
										<alphatype>none</alphatype>
										<pixelaspectratio>square</pixelaspectratio>
										<anamorphic>FALSE</anamorphic>
										<file id="file-8">
											<name>20211013_080326.mp4</name>
											<pathurl>file://localhost/P%3a/climbing/20211013_080326.mp4</pathurl>
											<rate>
												<timebase>30</timebase>
												<ntsc>FALSE</ntsc>
											</rate>
											<duration>13514</duration>
											<timecode>
												<rate>
													<timebase>30</timebase>
													<ntsc>FALSE</ntsc>
												</rate>
												<string>00:00:00:00</string>
												<frame>0</frame>
												<displayformat>NDF</displayformat>
											</timecode>
											<media>
												<video>
													<samplecharacteristics>
														<rate>
															<timebase>30</timebase>
															<ntsc>FALSE</ntsc>
														</rate>
														<width>1920</width>
														<height>1080</height>
														<anamorphic>FALSE</anamorphic>
														<pixelaspectratio>square</pixelaspectratio>
														<fielddominance>none</fielddominance>
													</samplecharacteristics>
												</video>
												<audio>
													<samplecharacteristics>
														<depth>16</depth>
														<samplerate>48000</samplerate>
													</samplecharacteristics>
													<channelcount>2</channelcount>
												</audio>
											</media>
										</file>
										<link>
											<linkclipref>clipitem-22</linkclipref>
											<mediatype>video</mediatype>
											<trackindex>1</trackindex>
											<clipindex>1</clipindex>
										</link>
										<link>
											<linkclipref>clipitem-23</linkclipref>
											<mediatype>audio</mediatype>
											<trackindex>1</trackindex>
											<clipindex>1</clipindex>
											<groupindex>1</groupindex>
										</link>
										<link>
											<linkclipref>clipitem-24</linkclipref>
											<mediatype>audio</mediatype>
											<trackindex>2</trackindex>
											<clipindex>1</clipindex>
											<groupindex>1</groupindex>
										</link>
										<subclipinfo>
											<startoffset>4889</startoffset>
											<endoffset>8249</endoffset>
										</subclipinfo>
									</clipitem>
								</track>
							</video>
							<audio>
								<track>
									<clipitem id="clipitem-23">
										<masterclipid>masterclip-8</masterclipid>
										<name>a35</name>
										<duration>376</duration>
										<rate>
											<timebase>30</timebase>
											<ntsc>FALSE</ntsc>
										</rate>
										<file id="file-8"/>
										<sourcetrack>
											<mediatype>audio</mediatype>
											<trackindex>1</trackindex>
										</sourcetrack>
										<link>
											<linkclipref>clipitem-22</linkclipref>
											<mediatype>video</mediatype>
											<trackindex>1</trackindex>
											<clipindex>1</clipindex>
										</link>
										<link>
											<linkclipref>clipitem-23</linkclipref>
											<mediatype>audio</mediatype>
											<trackindex>1</trackindex>
											<clipindex>1</clipindex>
											<groupindex>1</groupindex>
										</link>
										<link>
											<linkclipref>clipitem-24</linkclipref>
											<mediatype>audio</mediatype>
											<trackindex>2</trackindex>
											<clipindex>1</clipindex>
											<groupindex>1</groupindex>
										</link>
										<subclipinfo>
											<startoffset>4889</startoffset>
											<endoffset>8249</endoffset>
										</subclipinfo>
									</clipitem>
								</track>
								<track>
									<clipitem id="clipitem-24">
										<masterclipid>masterclip-8</masterclipid>
										<name>a35</name>
										<duration>376</duration>
										<rate>
											<timebase>30</timebase>
											<ntsc>FALSE</ntsc>
										</rate>
										<file id="file-8"/>
										<sourcetrack>
											<mediatype>audio</mediatype>
											<trackindex>2</trackindex>
										</sourcetrack>
										<link>
											<linkclipref>clipitem-22</linkclipref>
											<mediatype>video</mediatype>
											<trackindex>1</trackindex>
											<clipindex>1</clipindex>
										</link>
										<link>
											<linkclipref>clipitem-23</linkclipref>
											<mediatype>audio</mediatype>
											<trackindex>1</trackindex>
											<clipindex>1</clipindex>
											<groupindex>1</groupindex>
										</link>
										<link>
											<linkclipref>clipitem-24</linkclipref>
											<mediatype>audio</mediatype>
											<trackindex>2</trackindex>
											<clipindex>1</clipindex>
											<groupindex>1</groupindex>
										</link>
										<subclipinfo>
											<startoffset>4889</startoffset>
											<endoffset>8249</endoffset>
										</subclipinfo>
									</clipitem>
								</track>
							</audio>
						</media>
						<logginginfo>
							<description></description>
							<scene></scene>
							<shottake></shottake>
							<lognote></lognote>
							<good></good>
							<originalvideofilename></originalvideofilename>
							<originalaudiofilename></originalaudiofilename>
						</logginginfo>
						<colorinfo>
							<lut></lut>
							<lut1></lut1>
							<asc_sop></asc_sop>
							<asc_sat></asc_sat>
							<lut2></lut2>
						</colorinfo>
						<labels>
							<label2>Iris</label2>
						</labels>
					</clip>
					<clip id="masterclip-9" explodedTracks="true">
						<uuid>1e7e1c0f-08c1-4c3b-9519-490c52cb655b</uuid>
						<masterclipid>masterclip-9</masterclipid>
						<ismasterclip>TRUE</ismasterclip>
						<duration>13514</duration>
						<rate>
							<timebase>30</timebase>
							<ntsc>FALSE</ntsc>
						</rate>
						<in>5378</in>
						<out>5731</out>
						<name>a36</name>
						<media>
							<video>
								<track>
									<clipitem id="clipitem-25">
										<masterclipid>masterclip-9</masterclipid>
										<name>a36</name>
										<duration>353</duration>
										<rate>
											<timebase>30</timebase>
											<ntsc>FALSE</ntsc>
										</rate>
										<alphatype>none</alphatype>
										<pixelaspectratio>square</pixelaspectratio>
										<anamorphic>FALSE</anamorphic>
										<file id="file-9">
											<name>20211013_080326.mp4</name>
											<pathurl>file://localhost/P%3a/climbing/20211013_080326.mp4</pathurl>
											<rate>
												<timebase>30</timebase>
												<ntsc>FALSE</ntsc>
											</rate>
											<duration>13514</duration>
											<timecode>
												<rate>
													<timebase>30</timebase>
													<ntsc>FALSE</ntsc>
												</rate>
												<string>00:00:00:00</string>
												<frame>0</frame>
												<displayformat>NDF</displayformat>
											</timecode>
											<media>
												<video>
													<samplecharacteristics>
														<rate>
															<timebase>30</timebase>
															<ntsc>FALSE</ntsc>
														</rate>
														<width>1920</width>
														<height>1080</height>
														<anamorphic>FALSE</anamorphic>
														<pixelaspectratio>square</pixelaspectratio>
														<fielddominance>none</fielddominance>
													</samplecharacteristics>
												</video>
												<audio>
													<samplecharacteristics>
														<depth>16</depth>
														<samplerate>48000</samplerate>
													</samplecharacteristics>
													<channelcount>2</channelcount>
												</audio>
											</media>
										</file>
										<link>
											<linkclipref>clipitem-25</linkclipref>
											<mediatype>video</mediatype>
											<trackindex>1</trackindex>
											<clipindex>1</clipindex>
										</link>
										<link>
											<linkclipref>clipitem-26</linkclipref>
											<mediatype>audio</mediatype>
											<trackindex>1</trackindex>
											<clipindex>1</clipindex>
											<groupindex>1</groupindex>
										</link>
										<link>
											<linkclipref>clipitem-27</linkclipref>
											<mediatype>audio</mediatype>
											<trackindex>2</trackindex>
											<clipindex>1</clipindex>
											<groupindex>1</groupindex>
										</link>
										<subclipinfo>
											<startoffset>5378</startoffset>
											<endoffset>7783</endoffset>
										</subclipinfo>
									</clipitem>
								</track>
							</video>
							<audio>
								<track>
									<clipitem id="clipitem-26">
										<masterclipid>masterclip-9</masterclipid>
										<name>a36</name>
										<duration>353</duration>
										<rate>
											<timebase>30</timebase>
											<ntsc>FALSE</ntsc>
										</rate>
										<file id="file-9"/>
										<sourcetrack>
											<mediatype>audio</mediatype>
											<trackindex>1</trackindex>
										</sourcetrack>
										<link>
											<linkclipref>clipitem-25</linkclipref>
											<mediatype>video</mediatype>
											<trackindex>1</trackindex>
											<clipindex>1</clipindex>
										</link>
										<link>
											<linkclipref>clipitem-26</linkclipref>
											<mediatype>audio</mediatype>
											<trackindex>1</trackindex>
											<clipindex>1</clipindex>
											<groupindex>1</groupindex>
										</link>
										<link>
											<linkclipref>clipitem-27</linkclipref>
											<mediatype>audio</mediatype>
											<trackindex>2</trackindex>
											<clipindex>1</clipindex>
											<groupindex>1</groupindex>
										</link>
										<subclipinfo>
											<startoffset>5378</startoffset>
											<endoffset>7783</endoffset>
										</subclipinfo>
									</clipitem>
								</track>
								<track>
									<clipitem id="clipitem-27">
										<masterclipid>masterclip-9</masterclipid>
										<name>a36</name>
										<duration>353</duration>
										<rate>
											<timebase>30</timebase>
											<ntsc>FALSE</ntsc>
										</rate>
										<file id="file-9"/>
										<sourcetrack>
											<mediatype>audio</mediatype>
											<trackindex>2</trackindex>
										</sourcetrack>
										<link>
											<linkclipref>clipitem-25</linkclipref>
											<mediatype>video</mediatype>
											<trackindex>1</trackindex>
											<clipindex>1</clipindex>
										</link>
										<link>
											<linkclipref>clipitem-26</linkclipref>
											<mediatype>audio</mediatype>
											<trackindex>1</trackindex>
											<clipindex>1</clipindex>
											<groupindex>1</groupindex>
										</link>
										<link>
											<linkclipref>clipitem-27</linkclipref>
											<mediatype>audio</mediatype>
											<trackindex>2</trackindex>
											<clipindex>1</clipindex>
											<groupindex>1</groupindex>
										</link>
										<subclipinfo>
											<startoffset>5378</startoffset>
											<endoffset>7783</endoffset>
										</subclipinfo>
									</clipitem>
								</track>
							</audio>
						</media>
						<logginginfo>
							<description></description>
							<scene></scene>
							<shottake></shottake>
							<lognote></lognote>
							<good></good>
							<originalvideofilename></originalvideofilename>
							<originalaudiofilename></originalaudiofilename>
						</logginginfo>
						<colorinfo>
							<lut></lut>
							<lut1></lut1>
							<asc_sop></asc_sop>
							<asc_sat></asc_sat>
							<lut2></lut2>
						</colorinfo>
						<labels>
							<label2>Iris</label2>
						</labels>
					</clip>
					<clip id="masterclip-10" explodedTracks="true">
						<uuid>48551ba9-6e95-46da-837c-6a0b02519d52</uuid>
						<masterclipid>masterclip-10</masterclipid>
						<ismasterclip>TRUE</ismasterclip>
						<duration>13514</duration>
						<rate>
							<timebase>30</timebase>
							<ntsc>FALSE</ntsc>
						</rate>
						<in>5928</in>
						<out>6465</out>
						<name>a37</name>
						<media>
							<video>
								<track>
									<clipitem id="clipitem-28">
										<masterclipid>masterclip-10</masterclipid>
										<name>a37</name>
										<duration>537</duration>
										<rate>
											<timebase>30</timebase>
											<ntsc>FALSE</ntsc>
										</rate>
										<alphatype>none</alphatype>
										<pixelaspectratio>square</pixelaspectratio>
										<anamorphic>FALSE</anamorphic>
										<file id="file-10">
											<name>20211013_080326.mp4</name>
											<pathurl>file://localhost/P%3a/climbing/20211013_080326.mp4</pathurl>
											<rate>
												<timebase>30</timebase>
												<ntsc>FALSE</ntsc>
											</rate>
											<duration>13514</duration>
											<timecode>
												<rate>
													<timebase>30</timebase>
													<ntsc>FALSE</ntsc>
												</rate>
												<string>00:00:00:00</string>
												<frame>0</frame>
												<displayformat>NDF</displayformat>
											</timecode>
											<media>
												<video>
													<samplecharacteristics>
														<rate>
															<timebase>30</timebase>
															<ntsc>FALSE</ntsc>
														</rate>
														<width>1920</width>
														<height>1080</height>
														<anamorphic>FALSE</anamorphic>
														<pixelaspectratio>square</pixelaspectratio>
														<fielddominance>none</fielddominance>
													</samplecharacteristics>
												</video>
												<audio>
													<samplecharacteristics>
														<depth>16</depth>
														<samplerate>48000</samplerate>
													</samplecharacteristics>
													<channelcount>2</channelcount>
												</audio>
											</media>
										</file>
										<link>
											<linkclipref>clipitem-28</linkclipref>
											<mediatype>video</mediatype>
											<trackindex>1</trackindex>
											<clipindex>1</clipindex>
										</link>
										<link>
											<linkclipref>clipitem-29</linkclipref>
											<mediatype>audio</mediatype>
											<trackindex>1</trackindex>
											<clipindex>1</clipindex>
											<groupindex>1</groupindex>
										</link>
										<link>
											<linkclipref>clipitem-30</linkclipref>
											<mediatype>audio</mediatype>
											<trackindex>2</trackindex>
											<clipindex>1</clipindex>
											<groupindex>1</groupindex>
										</link>
										<subclipinfo>
											<startoffset>5928</startoffset>
											<endoffset>7049</endoffset>
										</subclipinfo>
									</clipitem>
								</track>
							</video>
							<audio>
								<track>
									<clipitem id="clipitem-29">
										<masterclipid>masterclip-10</masterclipid>
										<name>a37</name>
										<duration>537</duration>
										<rate>
											<timebase>30</timebase>
											<ntsc>FALSE</ntsc>
										</rate>
										<file id="file-10"/>
										<sourcetrack>
											<mediatype>audio</mediatype>
											<trackindex>1</trackindex>
										</sourcetrack>
										<link>
											<linkclipref>clipitem-28</linkclipref>
											<mediatype>video</mediatype>
											<trackindex>1</trackindex>
											<clipindex>1</clipindex>
										</link>
										<link>
											<linkclipref>clipitem-29</linkclipref>
											<mediatype>audio</mediatype>
											<trackindex>1</trackindex>
											<clipindex>1</clipindex>
											<groupindex>1</groupindex>
										</link>
										<link>
											<linkclipref>clipitem-30</linkclipref>
											<mediatype>audio</mediatype>
											<trackindex>2</trackindex>
											<clipindex>1</clipindex>
											<groupindex>1</groupindex>
										</link>
										<subclipinfo>
											<startoffset>5928</startoffset>
											<endoffset>7049</endoffset>
										</subclipinfo>
									</clipitem>
								</track>
								<track>
									<clipitem id="clipitem-30">
										<masterclipid>masterclip-10</masterclipid>
										<name>a37</name>
										<duration>537</duration>
										<rate>
											<timebase>30</timebase>
											<ntsc>FALSE</ntsc>
										</rate>
										<file id="file-10"/>
										<sourcetrack>
											<mediatype>audio</mediatype>
											<trackindex>2</trackindex>
										</sourcetrack>
										<link>
											<linkclipref>clipitem-28</linkclipref>
											<mediatype>video</mediatype>
											<trackindex>1</trackindex>
											<clipindex>1</clipindex>
										</link>
										<link>
											<linkclipref>clipitem-29</linkclipref>
											<mediatype>audio</mediatype>
											<trackindex>1</trackindex>
											<clipindex>1</clipindex>
											<groupindex>1</groupindex>
										</link>
										<link>
											<linkclipref>clipitem-30</linkclipref>
											<mediatype>audio</mediatype>
											<trackindex>2</trackindex>
											<clipindex>1</clipindex>
											<groupindex>1</groupindex>
										</link>
										<subclipinfo>
											<startoffset>5928</startoffset>
											<endoffset>7049</endoffset>
										</subclipinfo>
									</clipitem>
								</track>
							</audio>
						</media>
						<logginginfo>
							<description></description>
							<scene></scene>
							<shottake></shottake>
							<lognote></lognote>
							<good></good>
							<originalvideofilename></originalvideofilename>
							<originalaudiofilename></originalaudiofilename>
						</logginginfo>
						<colorinfo>
							<lut></lut>
							<lut1></lut1>
							<asc_sop></asc_sop>
							<asc_sat></asc_sat>
							<lut2></lut2>
						</colorinfo>
						<labels>
							<label2>Iris</label2>
						</labels>
					</clip>
					<clip id="masterclip-11" explodedTracks="true">
						<uuid>a7733f49-4dce-4a2d-bd53-56ea735e13f4</uuid>
						<masterclipid>masterclip-11</masterclipid>
						<ismasterclip>TRUE</ismasterclip>
						<duration>13514</duration>
						<rate>
							<timebase>30</timebase>
							<ntsc>FALSE</ntsc>
						</rate>
						<in>7231</in>
						<out>7664</out>
						<name>a38</name>
						<media>
							<video>
								<track>
									<clipitem id="clipitem-31">
										<masterclipid>masterclip-11</masterclipid>
										<name>a38</name>
										<duration>433</duration>
										<rate>
											<timebase>30</timebase>
											<ntsc>FALSE</ntsc>
										</rate>
										<alphatype>none</alphatype>
										<pixelaspectratio>square</pixelaspectratio>
										<anamorphic>FALSE</anamorphic>
										<file id="file-11">
											<name>20211013_080326.mp4</name>
											<pathurl>file://localhost/P%3a/climbing/20211013_080326.mp4</pathurl>
											<rate>
												<timebase>30</timebase>
												<ntsc>FALSE</ntsc>
											</rate>
											<duration>13514</duration>
											<timecode>
												<rate>
													<timebase>30</timebase>
													<ntsc>FALSE</ntsc>
												</rate>
												<string>00:00:00:00</string>
												<frame>0</frame>
												<displayformat>NDF</displayformat>
											</timecode>
											<media>
												<video>
													<samplecharacteristics>
														<rate>
															<timebase>30</timebase>
															<ntsc>FALSE</ntsc>
														</rate>
														<width>1920</width>
														<height>1080</height>
														<anamorphic>FALSE</anamorphic>
														<pixelaspectratio>square</pixelaspectratio>
														<fielddominance>none</fielddominance>
													</samplecharacteristics>
												</video>
												<audio>
													<samplecharacteristics>
														<depth>16</depth>
														<samplerate>48000</samplerate>
													</samplecharacteristics>
													<channelcount>2</channelcount>
												</audio>
											</media>
										</file>
										<link>
											<linkclipref>clipitem-31</linkclipref>
											<mediatype>video</mediatype>
											<trackindex>1</trackindex>
											<clipindex>1</clipindex>
										</link>
										<link>
											<linkclipref>clipitem-32</linkclipref>
											<mediatype>audio</mediatype>
											<trackindex>1</trackindex>
											<clipindex>1</clipindex>
											<groupindex>1</groupindex>
										</link>
										<link>
											<linkclipref>clipitem-33</linkclipref>
											<mediatype>audio</mediatype>
											<trackindex>2</trackindex>
											<clipindex>1</clipindex>
											<groupindex>1</groupindex>
										</link>
										<subclipinfo>
											<startoffset>7231</startoffset>
											<endoffset>5850</endoffset>
										</subclipinfo>
									</clipitem>
								</track>
							</video>
							<audio>
								<track>
									<clipitem id="clipitem-32">
										<masterclipid>masterclip-11</masterclipid>
										<name>a38</name>
										<duration>433</duration>
										<rate>
											<timebase>30</timebase>
											<ntsc>FALSE</ntsc>
										</rate>
										<file id="file-11"/>
										<sourcetrack>
											<mediatype>audio</mediatype>
											<trackindex>1</trackindex>
										</sourcetrack>
										<link>
											<linkclipref>clipitem-31</linkclipref>
											<mediatype>video</mediatype>
											<trackindex>1</trackindex>
											<clipindex>1</clipindex>
										</link>
										<link>
											<linkclipref>clipitem-32</linkclipref>
											<mediatype>audio</mediatype>
											<trackindex>1</trackindex>
											<clipindex>1</clipindex>
											<groupindex>1</groupindex>
										</link>
										<link>
											<linkclipref>clipitem-33</linkclipref>
											<mediatype>audio</mediatype>
											<trackindex>2</trackindex>
											<clipindex>1</clipindex>
											<groupindex>1</groupindex>
										</link>
										<subclipinfo>
											<startoffset>7231</startoffset>
											<endoffset>5850</endoffset>
										</subclipinfo>
									</clipitem>
								</track>
								<track>
									<clipitem id="clipitem-33">
										<masterclipid>masterclip-11</masterclipid>
										<name>a38</name>
										<duration>433</duration>
										<rate>
											<timebase>30</timebase>
											<ntsc>FALSE</ntsc>
										</rate>
										<file id="file-11"/>
										<sourcetrack>
											<mediatype>audio</mediatype>
											<trackindex>2</trackindex>
										</sourcetrack>
										<link>
											<linkclipref>clipitem-31</linkclipref>
											<mediatype>video</mediatype>
											<trackindex>1</trackindex>
											<clipindex>1</clipindex>
										</link>
										<link>
											<linkclipref>clipitem-32</linkclipref>
											<mediatype>audio</mediatype>
											<trackindex>1</trackindex>
											<clipindex>1</clipindex>
											<groupindex>1</groupindex>
										</link>
										<link>
											<linkclipref>clipitem-33</linkclipref>
											<mediatype>audio</mediatype>
											<trackindex>2</trackindex>
											<clipindex>1</clipindex>
											<groupindex>1</groupindex>
										</link>
										<subclipinfo>
											<startoffset>7231</startoffset>
											<endoffset>5850</endoffset>
										</subclipinfo>
									</clipitem>
								</track>
							</audio>
						</media>
						<logginginfo>
							<description></description>
							<scene></scene>
							<shottake></shottake>
							<lognote></lognote>
							<good></good>
							<originalvideofilename></originalvideofilename>
							<originalaudiofilename></originalaudiofilename>
						</logginginfo>
						<colorinfo>
							<lut></lut>
							<lut1></lut1>
							<asc_sop></asc_sop>
							<asc_sat></asc_sat>
							<lut2></lut2>
						</colorinfo>
						<labels>
							<label2>Iris</label2>
						</labels>
					</clip>
					<clip id="masterclip-12" explodedTracks="true">
						<uuid>bef93545-6a6a-4055-bdee-e8a856b4e2fb</uuid>
						<masterclipid>masterclip-12</masterclipid>
						<ismasterclip>TRUE</ismasterclip>
						<duration>13514</duration>
						<rate>
							<timebase>30</timebase>
							<ntsc>FALSE</ntsc>
						</rate>
						<in>7809</in>
						<out>8141</out>
						<name>a39</name>
						<media>
							<video>
								<track>
									<clipitem id="clipitem-34">
										<masterclipid>masterclip-12</masterclipid>
										<name>a39</name>
										<duration>332</duration>
										<rate>
											<timebase>30</timebase>
											<ntsc>FALSE</ntsc>
										</rate>
										<alphatype>none</alphatype>
										<pixelaspectratio>square</pixelaspectratio>
										<anamorphic>FALSE</anamorphic>
										<file id="file-12">
											<name>20211013_080326.mp4</name>
											<pathurl>file://localhost/P%3a/climbing/20211013_080326.mp4</pathurl>
											<rate>
												<timebase>30</timebase>
												<ntsc>FALSE</ntsc>
											</rate>
											<duration>13514</duration>
											<timecode>
												<rate>
													<timebase>30</timebase>
													<ntsc>FALSE</ntsc>
												</rate>
												<string>00:00:00:00</string>
												<frame>0</frame>
												<displayformat>NDF</displayformat>
											</timecode>
											<media>
												<video>
													<samplecharacteristics>
														<rate>
															<timebase>30</timebase>
															<ntsc>FALSE</ntsc>
														</rate>
														<width>1920</width>
														<height>1080</height>
														<anamorphic>FALSE</anamorphic>
														<pixelaspectratio>square</pixelaspectratio>
														<fielddominance>none</fielddominance>
													</samplecharacteristics>
												</video>
												<audio>
													<samplecharacteristics>
														<depth>16</depth>
														<samplerate>48000</samplerate>
													</samplecharacteristics>
													<channelcount>2</channelcount>
												</audio>
											</media>
										</file>
										<link>
											<linkclipref>clipitem-34</linkclipref>
											<mediatype>video</mediatype>
											<trackindex>1</trackindex>
											<clipindex>1</clipindex>
										</link>
										<link>
											<linkclipref>clipitem-35</linkclipref>
											<mediatype>audio</mediatype>
											<trackindex>1</trackindex>
											<clipindex>1</clipindex>
											<groupindex>1</groupindex>
										</link>
										<link>
											<linkclipref>clipitem-36</linkclipref>
											<mediatype>audio</mediatype>
											<trackindex>2</trackindex>
											<clipindex>1</clipindex>
											<groupindex>1</groupindex>
										</link>
										<subclipinfo>
											<startoffset>7809</startoffset>
											<endoffset>5373</endoffset>
										</subclipinfo>
									</clipitem>
								</track>
							</video>
							<audio>
								<track>
									<clipitem id="clipitem-35">
										<masterclipid>masterclip-12</masterclipid>
										<name>a39</name>
										<duration>332</duration>
										<rate>
											<timebase>30</timebase>
											<ntsc>FALSE</ntsc>
										</rate>
										<file id="file-12"/>
										<sourcetrack>
											<mediatype>audio</mediatype>
											<trackindex>1</trackindex>
										</sourcetrack>
										<link>
											<linkclipref>clipitem-34</linkclipref>
											<mediatype>video</mediatype>
											<trackindex>1</trackindex>
											<clipindex>1</clipindex>
										</link>
										<link>
											<linkclipref>clipitem-35</linkclipref>
											<mediatype>audio</mediatype>
											<trackindex>1</trackindex>
											<clipindex>1</clipindex>
											<groupindex>1</groupindex>
										</link>
										<link>
											<linkclipref>clipitem-36</linkclipref>
											<mediatype>audio</mediatype>
											<trackindex>2</trackindex>
											<clipindex>1</clipindex>
											<groupindex>1</groupindex>
										</link>
										<subclipinfo>
											<startoffset>7809</startoffset>
											<endoffset>5373</endoffset>
										</subclipinfo>
									</clipitem>
								</track>
								<track>
									<clipitem id="clipitem-36">
										<masterclipid>masterclip-12</masterclipid>
										<name>a39</name>
										<duration>332</duration>
										<rate>
											<timebase>30</timebase>
											<ntsc>FALSE</ntsc>
										</rate>
										<file id="file-12"/>
										<sourcetrack>
											<mediatype>audio</mediatype>
											<trackindex>2</trackindex>
										</sourcetrack>
										<link>
											<linkclipref>clipitem-34</linkclipref>
											<mediatype>video</mediatype>
											<trackindex>1</trackindex>
											<clipindex>1</clipindex>
										</link>
										<link>
											<linkclipref>clipitem-35</linkclipref>
											<mediatype>audio</mediatype>
											<trackindex>1</trackindex>
											<clipindex>1</clipindex>
											<groupindex>1</groupindex>
										</link>
										<link>
											<linkclipref>clipitem-36</linkclipref>
											<mediatype>audio</mediatype>
											<trackindex>2</trackindex>
											<clipindex>1</clipindex>
											<groupindex>1</groupindex>
										</link>
										<subclipinfo>
											<startoffset>7809</startoffset>
											<endoffset>5373</endoffset>
										</subclipinfo>
									</clipitem>
								</track>
							</audio>
						</media>
						<logginginfo>
							<description></description>
							<scene></scene>
							<shottake></shottake>
							<lognote></lognote>
							<good></good>
							<originalvideofilename></originalvideofilename>
							<originalaudiofilename></originalaudiofilename>
						</logginginfo>
						<colorinfo>
							<lut></lut>
							<lut1></lut1>
							<asc_sop></asc_sop>
							<asc_sat></asc_sat>
							<lut2></lut2>
						</colorinfo>
						<labels>
							<label2>Iris</label2>
						</labels>
					</clip>
					<clip id="masterclip-13" explodedTracks="true">
						<uuid>5e7b6558-73f1-48b3-aa7f-ac82170eff81</uuid>
						<masterclipid>masterclip-13</masterclipid>
						<ismasterclip>TRUE</ismasterclip>
						<duration>13514</duration>
						<rate>
							<timebase>30</timebase>
							<ntsc>FALSE</ntsc>
						</rate>
						<in>70</in>
						<out>318</out>
						<name>a40</name>
						<media>
							<video>
								<track>
									<clipitem id="clipitem-37">
										<masterclipid>masterclip-13</masterclipid>
										<name>a40</name>
										<duration>368</duration>
										<rate>
											<timebase>30</timebase>
											<ntsc>FALSE</ntsc>
										</rate>
										<alphatype>none</alphatype>
										<pixelaspectratio>square</pixelaspectratio>
										<anamorphic>FALSE</anamorphic>
										<file id="file-13">
											<name>20211013_080326.mp4</name>
											<pathurl>file://localhost/P%3a/climbing/20211013_080326.mp4</pathurl>
											<rate>
												<timebase>30</timebase>
												<ntsc>FALSE</ntsc>
											</rate>
											<duration>13514</duration>
											<timecode>
												<rate>
													<timebase>30</timebase>
													<ntsc>FALSE</ntsc>
												</rate>
												<string>00:00:00:00</string>
												<frame>0</frame>
												<displayformat>NDF</displayformat>
											</timecode>
											<media>
												<video>
													<samplecharacteristics>
														<rate>
															<timebase>30</timebase>
															<ntsc>FALSE</ntsc>
														</rate>
														<width>1920</width>
														<height>1080</height>
														<anamorphic>FALSE</anamorphic>
														<pixelaspectratio>square</pixelaspectratio>
														<fielddominance>none</fielddominance>
													</samplecharacteristics>
												</video>
												<audio>
													<samplecharacteristics>
														<depth>16</depth>
														<samplerate>48000</samplerate>
													</samplecharacteristics>
													<channelcount>2</channelcount>
												</audio>
											</media>
										</file>
										<link>
											<linkclipref>clipitem-37</linkclipref>
											<mediatype>video</mediatype>
											<trackindex>1</trackindex>
											<clipindex>1</clipindex>
										</link>
										<link>
											<linkclipref>clipitem-38</linkclipref>
											<mediatype>audio</mediatype>
											<trackindex>1</trackindex>
											<clipindex>1</clipindex>
											<groupindex>1</groupindex>
										</link>
										<link>
											<linkclipref>clipitem-39</linkclipref>
											<mediatype>audio</mediatype>
											<trackindex>2</trackindex>
											<clipindex>1</clipindex>
											<groupindex>1</groupindex>
										</link>
										<subclipinfo>
											<startoffset>8858</startoffset>
											<endoffset>4288</endoffset>
										</subclipinfo>
									</clipitem>
								</track>
							</video>
							<audio>
								<track>
									<clipitem id="clipitem-38">
										<masterclipid>masterclip-13</masterclipid>
										<name>a40</name>
										<duration>368</duration>
										<rate>
											<timebase>30</timebase>
											<ntsc>FALSE</ntsc>
										</rate>
										<file id="file-13"/>
										<sourcetrack>
											<mediatype>audio</mediatype>
											<trackindex>1</trackindex>
										</sourcetrack>
										<link>
											<linkclipref>clipitem-37</linkclipref>
											<mediatype>video</mediatype>
											<trackindex>1</trackindex>
											<clipindex>1</clipindex>
										</link>
										<link>
											<linkclipref>clipitem-38</linkclipref>
											<mediatype>audio</mediatype>
											<trackindex>1</trackindex>
											<clipindex>1</clipindex>
											<groupindex>1</groupindex>
										</link>
										<link>
											<linkclipref>clipitem-39</linkclipref>
											<mediatype>audio</mediatype>
											<trackindex>2</trackindex>
											<clipindex>1</clipindex>
											<groupindex>1</groupindex>
										</link>
										<subclipinfo>
											<startoffset>8858</startoffset>
											<endoffset>4288</endoffset>
										</subclipinfo>
									</clipitem>
								</track>
								<track>
									<clipitem id="clipitem-39">
										<masterclipid>masterclip-13</masterclipid>
										<name>a40</name>
										<duration>368</duration>
										<rate>
											<timebase>30</timebase>
											<ntsc>FALSE</ntsc>
										</rate>
										<file id="file-13"/>
										<sourcetrack>
											<mediatype>audio</mediatype>
											<trackindex>2</trackindex>
										</sourcetrack>
										<link>
											<linkclipref>clipitem-37</linkclipref>
											<mediatype>video</mediatype>
											<trackindex>1</trackindex>
											<clipindex>1</clipindex>
										</link>
										<link>
											<linkclipref>clipitem-38</linkclipref>
											<mediatype>audio</mediatype>
											<trackindex>1</trackindex>
											<clipindex>1</clipindex>
											<groupindex>1</groupindex>
										</link>
										<link>
											<linkclipref>clipitem-39</linkclipref>
											<mediatype>audio</mediatype>
											<trackindex>2</trackindex>
											<clipindex>1</clipindex>
											<groupindex>1</groupindex>
										</link>
										<subclipinfo>
											<startoffset>8858</startoffset>
											<endoffset>4288</endoffset>
										</subclipinfo>
									</clipitem>
								</track>
							</audio>
						</media>
						<logginginfo>
							<description></description>
							<scene></scene>
							<shottake></shottake>
							<lognote></lognote>
							<good></good>
							<originalvideofilename></originalvideofilename>
							<originalaudiofilename></originalaudiofilename>
						</logginginfo>
						<colorinfo>
							<lut></lut>
							<lut1></lut1>
							<asc_sop></asc_sop>
							<asc_sat></asc_sat>
							<lut2></lut2>
						</colorinfo>
						<labels>
							<label2>Iris</label2>
						</labels>
					</clip>
					<clip id="masterclip-14" explodedTracks="true">
						<uuid>c388b02c-fe32-4ba1-8768-38925aa7d0d4</uuid>
						<masterclipid>masterclip-14</masterclipid>
						<ismasterclip>TRUE</ismasterclip>
						<duration>64140</duration>
						<rate>
							<timebase>59</timebase>
							<ntsc>FALSE</ntsc>
						</rate>
						<in>595</in>
						<out>1574</out>
						<name>a08</name>
						<media>
							<video>
								<track>
									<clipitem id="clipitem-40">
										<masterclipid>masterclip-14</masterclipid>
										<name>a08</name>
										<duration>979</duration>
										<rate>
											<timebase>59</timebase>
											<ntsc>FALSE</ntsc>
										</rate>
										<alphatype>none</alphatype>
										<pixelaspectratio>square</pixelaspectratio>
										<anamorphic>FALSE</anamorphic>
										<file id="file-14">
											<name>20211013_073159.mp4</name>
											<pathurl>file://localhost/P%3a/climbing/20211013_073159.mp4</pathurl>
											<rate>
												<timebase>59</timebase>
												<ntsc>FALSE</ntsc>
											</rate>
											<duration>64140</duration>
											<timecode>
												<rate>
													<timebase>59</timebase>
													<ntsc>FALSE</ntsc>
												</rate>
												<string>00:00:00:00</string>
												<frame>0</frame>
												<displayformat>NDF</displayformat>
											</timecode>
											<media>
												<video>
													<samplecharacteristics>
														<rate>
															<timebase>59</timebase>
															<ntsc>FALSE</ntsc>
														</rate>
														<width>1920</width>
														<height>1080</height>
														<anamorphic>FALSE</anamorphic>
														<pixelaspectratio>square</pixelaspectratio>
														<fielddominance>none</fielddominance>
													</samplecharacteristics>
												</video>
												<audio>
													<samplecharacteristics>
														<depth>16</depth>
														<samplerate>48000</samplerate>
													</samplecharacteristics>
													<channelcount>2</channelcount>
												</audio>
											</media>
										</file>
										<link>
											<linkclipref>clipitem-40</linkclipref>
											<mediatype>video</mediatype>
											<trackindex>1</trackindex>
											<clipindex>1</clipindex>
										</link>
										<link>
											<linkclipref>clipitem-41</linkclipref>
											<mediatype>audio</mediatype>
											<trackindex>1</trackindex>
											<clipindex>1</clipindex>
											<groupindex>1</groupindex>
										</link>
										<link>
											<linkclipref>clipitem-42</linkclipref>
											<mediatype>audio</mediatype>
											<trackindex>2</trackindex>
											<clipindex>1</clipindex>
											<groupindex>1</groupindex>
										</link>
										<subclipinfo>
											<startoffset>595</startoffset>
											<endoffset>62566</endoffset>
										</subclipinfo>
									</clipitem>
								</track>
							</video>
							<audio>
								<track>
									<clipitem id="clipitem-41">
										<masterclipid>masterclip-14</masterclipid>
										<name>a08</name>
										<duration>979</duration>
										<rate>
											<timebase>59</timebase>
											<ntsc>FALSE</ntsc>
										</rate>
										<file id="file-14"/>
										<sourcetrack>
											<mediatype>audio</mediatype>
											<trackindex>1</trackindex>
										</sourcetrack>
										<link>
											<linkclipref>clipitem-40</linkclipref>
											<mediatype>video</mediatype>
											<trackindex>1</trackindex>
											<clipindex>1</clipindex>
										</link>
										<link>
											<linkclipref>clipitem-41</linkclipref>
											<mediatype>audio</mediatype>
											<trackindex>1</trackindex>
											<clipindex>1</clipindex>
											<groupindex>1</groupindex>
										</link>
										<link>
											<linkclipref>clipitem-42</linkclipref>
											<mediatype>audio</mediatype>
											<trackindex>2</trackindex>
											<clipindex>1</clipindex>
											<groupindex>1</groupindex>
										</link>
										<subclipinfo>
											<startoffset>595</startoffset>
											<endoffset>62566</endoffset>
										</subclipinfo>
									</clipitem>
								</track>
								<track>
									<clipitem id="clipitem-42">
										<masterclipid>masterclip-14</masterclipid>
										<name>a08</name>
										<duration>979</duration>
										<rate>
											<timebase>59</timebase>
											<ntsc>FALSE</ntsc>
										</rate>
										<file id="file-14"/>
										<sourcetrack>
											<mediatype>audio</mediatype>
											<trackindex>2</trackindex>
										</sourcetrack>
										<link>
											<linkclipref>clipitem-40</linkclipref>
											<mediatype>video</mediatype>
											<trackindex>1</trackindex>
											<clipindex>1</clipindex>
										</link>
										<link>
											<linkclipref>clipitem-41</linkclipref>
											<mediatype>audio</mediatype>
											<trackindex>1</trackindex>
											<clipindex>1</clipindex>
											<groupindex>1</groupindex>
										</link>
										<link>
											<linkclipref>clipitem-42</linkclipref>
											<mediatype>audio</mediatype>
											<trackindex>2</trackindex>
											<clipindex>1</clipindex>
											<groupindex>1</groupindex>
										</link>
										<subclipinfo>
											<startoffset>595</startoffset>
											<endoffset>62566</endoffset>
										</subclipinfo>
									</clipitem>
								</track>
							</audio>
						</media>
						<logginginfo>
							<description></description>
							<scene></scene>
							<shottake></shottake>
							<lognote></lognote>
							<good></good>
							<originalvideofilename></originalvideofilename>
							<originalaudiofilename></originalaudiofilename>
						</logginginfo>
						<colorinfo>
							<lut></lut>
							<lut1></lut1>
							<asc_sop></asc_sop>
							<asc_sat></asc_sat>
							<lut2></lut2>
						</colorinfo>
						<labels>
							<label2>Iris</label2>
						</labels>
					</clip>
					<clip id="masterclip-15" explodedTracks="true">
						<uuid>88c2c765-9ae2-47b1-aa7f-5d3c8fadf60e</uuid>
						<masterclipid>masterclip-15</masterclipid>
						<ismasterclip>TRUE</ismasterclip>
						<duration>64140</duration>
						<rate>
							<timebase>59</timebase>
							<ntsc>FALSE</ntsc>
						</rate>
						<in>2064</in>
						<out>2583</out>
						<name>a09</name>
						<media>
							<video>
								<track>
									<clipitem id="clipitem-43">
										<masterclipid>masterclip-15</masterclipid>
										<name>a09</name>
										<duration>519</duration>
										<rate>
											<timebase>59</timebase>
											<ntsc>FALSE</ntsc>
										</rate>
										<alphatype>none</alphatype>
										<pixelaspectratio>square</pixelaspectratio>
										<anamorphic>FALSE</anamorphic>
										<file id="file-15">
											<name>20211013_073159.mp4</name>
											<pathurl>file://localhost/P%3a/climbing/20211013_073159.mp4</pathurl>
											<rate>
												<timebase>59</timebase>
												<ntsc>FALSE</ntsc>
											</rate>
											<duration>64140</duration>
											<timecode>
												<rate>
													<timebase>59</timebase>
													<ntsc>FALSE</ntsc>
												</rate>
												<string>00:00:00:00</string>
												<frame>0</frame>
												<displayformat>NDF</displayformat>
											</timecode>
											<media>
												<video>
													<samplecharacteristics>
														<rate>
															<timebase>59</timebase>
															<ntsc>FALSE</ntsc>
														</rate>
														<width>1920</width>
														<height>1080</height>
														<anamorphic>FALSE</anamorphic>
														<pixelaspectratio>square</pixelaspectratio>
														<fielddominance>none</fielddominance>
													</samplecharacteristics>
												</video>
												<audio>
													<samplecharacteristics>
														<depth>16</depth>
														<samplerate>48000</samplerate>
													</samplecharacteristics>
													<channelcount>2</channelcount>
												</audio>
											</media>
										</file>
										<link>
											<linkclipref>clipitem-43</linkclipref>
											<mediatype>video</mediatype>
											<trackindex>1</trackindex>
											<clipindex>1</clipindex>
										</link>
										<link>
											<linkclipref>clipitem-44</linkclipref>
											<mediatype>audio</mediatype>
											<trackindex>1</trackindex>
											<clipindex>1</clipindex>
											<groupindex>1</groupindex>
										</link>
										<link>
											<linkclipref>clipitem-45</linkclipref>
											<mediatype>audio</mediatype>
											<trackindex>2</trackindex>
											<clipindex>1</clipindex>
											<groupindex>1</groupindex>
										</link>
										<subclipinfo>
											<startoffset>2064</startoffset>
											<endoffset>61557</endoffset>
										</subclipinfo>
									</clipitem>
								</track>
							</video>
							<audio>
								<track>
									<clipitem id="clipitem-44">
										<masterclipid>masterclip-15</masterclipid>
										<name>a09</name>
										<duration>519</duration>
										<rate>
											<timebase>59</timebase>
											<ntsc>FALSE</ntsc>
										</rate>
										<file id="file-15"/>
										<sourcetrack>
											<mediatype>audio</mediatype>
											<trackindex>1</trackindex>
										</sourcetrack>
										<link>
											<linkclipref>clipitem-43</linkclipref>
											<mediatype>video</mediatype>
											<trackindex>1</trackindex>
											<clipindex>1</clipindex>
										</link>
										<link>
											<linkclipref>clipitem-44</linkclipref>
											<mediatype>audio</mediatype>
											<trackindex>1</trackindex>
											<clipindex>1</clipindex>
											<groupindex>1</groupindex>
										</link>
										<link>
											<linkclipref>clipitem-45</linkclipref>
											<mediatype>audio</mediatype>
											<trackindex>2</trackindex>
											<clipindex>1</clipindex>
											<groupindex>1</groupindex>
										</link>
										<subclipinfo>
											<startoffset>2064</startoffset>
											<endoffset>61557</endoffset>
										</subclipinfo>
									</clipitem>
								</track>
								<track>
									<clipitem id="clipitem-45">
										<masterclipid>masterclip-15</masterclipid>
										<name>a09</name>
										<duration>519</duration>
										<rate>
											<timebase>59</timebase>
											<ntsc>FALSE</ntsc>
										</rate>
										<file id="file-15"/>
										<sourcetrack>
											<mediatype>audio</mediatype>
											<trackindex>2</trackindex>
										</sourcetrack>
										<link>
											<linkclipref>clipitem-43</linkclipref>
											<mediatype>video</mediatype>
											<trackindex>1</trackindex>
											<clipindex>1</clipindex>
										</link>
										<link>
											<linkclipref>clipitem-44</linkclipref>
											<mediatype>audio</mediatype>
											<trackindex>1</trackindex>
											<clipindex>1</clipindex>
											<groupindex>1</groupindex>
										</link>
										<link>
											<linkclipref>clipitem-45</linkclipref>
											<mediatype>audio</mediatype>
											<trackindex>2</trackindex>
											<clipindex>1</clipindex>
											<groupindex>1</groupindex>
										</link>
										<subclipinfo>
											<startoffset>2064</startoffset>
											<endoffset>61557</endoffset>
										</subclipinfo>
									</clipitem>
								</track>
							</audio>
						</media>
						<logginginfo>
							<description></description>
							<scene></scene>
							<shottake></shottake>
							<lognote></lognote>
							<good></good>
							<originalvideofilename></originalvideofilename>
							<originalaudiofilename></originalaudiofilename>
						</logginginfo>
						<colorinfo>
							<lut></lut>
							<lut1></lut1>
							<asc_sop></asc_sop>
							<asc_sat></asc_sat>
							<lut2></lut2>
						</colorinfo>
						<labels>
							<label2>Iris</label2>
						</labels>
					</clip>
					<clip id="masterclip-16" explodedTracks="true">
						<uuid>eb3c9749-fbdf-421e-bf32-24a5448e76d2</uuid>
						<masterclipid>masterclip-16</masterclipid>
						<ismasterclip>TRUE</ismasterclip>
						<duration>64140</duration>
						<rate>
							<timebase>59</timebase>
							<ntsc>FALSE</ntsc>
						</rate>
						<in>5138</in>
						<out>5997</out>
						<name>a10</name>
						<media>
							<video>
								<track>
									<clipitem id="clipitem-46">
										<masterclipid>masterclip-16</masterclipid>
										<name>a10</name>
										<duration>859</duration>
										<rate>
											<timebase>59</timebase>
											<ntsc>FALSE</ntsc>
										</rate>
										<alphatype>none</alphatype>
										<pixelaspectratio>square</pixelaspectratio>
										<anamorphic>FALSE</anamorphic>
										<file id="file-16">
											<name>20211013_073159.mp4</name>
											<pathurl>file://localhost/P%3a/climbing/20211013_073159.mp4</pathurl>
											<rate>
												<timebase>59</timebase>
												<ntsc>FALSE</ntsc>
											</rate>
											<duration>64140</duration>
											<timecode>
												<rate>
													<timebase>59</timebase>
													<ntsc>FALSE</ntsc>
												</rate>
												<string>00:00:00:00</string>
												<frame>0</frame>
												<displayformat>NDF</displayformat>
											</timecode>
											<media>
												<video>
													<samplecharacteristics>
														<rate>
															<timebase>59</timebase>
															<ntsc>FALSE</ntsc>
														</rate>
														<width>1920</width>
														<height>1080</height>
														<anamorphic>FALSE</anamorphic>
														<pixelaspectratio>square</pixelaspectratio>
														<fielddominance>none</fielddominance>
													</samplecharacteristics>
												</video>
												<audio>
													<samplecharacteristics>
														<depth>16</depth>
														<samplerate>48000</samplerate>
													</samplecharacteristics>
													<channelcount>2</channelcount>
												</audio>
											</media>
										</file>
										<link>
											<linkclipref>clipitem-46</linkclipref>
											<mediatype>video</mediatype>
											<trackindex>1</trackindex>
											<clipindex>1</clipindex>
										</link>
										<link>
											<linkclipref>clipitem-47</linkclipref>
											<mediatype>audio</mediatype>
											<trackindex>1</trackindex>
											<clipindex>1</clipindex>
											<groupindex>1</groupindex>
										</link>
										<link>
											<linkclipref>clipitem-48</linkclipref>
											<mediatype>audio</mediatype>
											<trackindex>2</trackindex>
											<clipindex>1</clipindex>
											<groupindex>1</groupindex>
										</link>
										<subclipinfo>
											<startoffset>5138</startoffset>
											<endoffset>58143</endoffset>
										</subclipinfo>
									</clipitem>
								</track>
							</video>
							<audio>
								<track>
									<clipitem id="clipitem-47">
										<masterclipid>masterclip-16</masterclipid>
										<name>a10</name>
										<duration>859</duration>
										<rate>
											<timebase>59</timebase>
											<ntsc>FALSE</ntsc>
										</rate>
										<file id="file-16"/>
										<sourcetrack>
											<mediatype>audio</mediatype>
											<trackindex>1</trackindex>
										</sourcetrack>
										<link>
											<linkclipref>clipitem-46</linkclipref>
											<mediatype>video</mediatype>
											<trackindex>1</trackindex>
											<clipindex>1</clipindex>
										</link>
										<link>
											<linkclipref>clipitem-47</linkclipref>
											<mediatype>audio</mediatype>
											<trackindex>1</trackindex>
											<clipindex>1</clipindex>
											<groupindex>1</groupindex>
										</link>
										<link>
											<linkclipref>clipitem-48</linkclipref>
											<mediatype>audio</mediatype>
											<trackindex>2</trackindex>
											<clipindex>1</clipindex>
											<groupindex>1</groupindex>
										</link>
										<subclipinfo>
											<startoffset>5138</startoffset>
											<endoffset>58143</endoffset>
										</subclipinfo>
									</clipitem>
								</track>
								<track>
									<clipitem id="clipitem-48">
										<masterclipid>masterclip-16</masterclipid>
										<name>a10</name>
										<duration>859</duration>
										<rate>
											<timebase>59</timebase>
											<ntsc>FALSE</ntsc>
										</rate>
										<file id="file-16"/>
										<sourcetrack>
											<mediatype>audio</mediatype>
											<trackindex>2</trackindex>
										</sourcetrack>
										<link>
											<linkclipref>clipitem-46</linkclipref>
											<mediatype>video</mediatype>
											<trackindex>1</trackindex>
											<clipindex>1</clipindex>
										</link>
										<link>
											<linkclipref>clipitem-47</linkclipref>
											<mediatype>audio</mediatype>
											<trackindex>1</trackindex>
											<clipindex>1</clipindex>
											<groupindex>1</groupindex>
										</link>
										<link>
											<linkclipref>clipitem-48</linkclipref>
											<mediatype>audio</mediatype>
											<trackindex>2</trackindex>
											<clipindex>1</clipindex>
											<groupindex>1</groupindex>
										</link>
										<subclipinfo>
											<startoffset>5138</startoffset>
											<endoffset>58143</endoffset>
										</subclipinfo>
									</clipitem>
								</track>
							</audio>
						</media>
						<logginginfo>
							<description></description>
							<scene></scene>
							<shottake></shottake>
							<lognote></lognote>
							<good></good>
							<originalvideofilename></originalvideofilename>
							<originalaudiofilename></originalaudiofilename>
						</logginginfo>
						<colorinfo>
							<lut></lut>
							<lut1></lut1>
							<asc_sop></asc_sop>
							<asc_sat></asc_sat>
							<lut2></lut2>
						</colorinfo>
						<labels>
							<label2>Iris</label2>
						</labels>
					</clip>
					<clip id="masterclip-17" explodedTracks="true">
						<uuid>024b3dda-4c62-403e-b5f0-cc59acaa9882</uuid>
						<masterclipid>masterclip-17</masterclipid>
						<ismasterclip>TRUE</ismasterclip>
						<duration>64140</duration>
						<rate>
							<timebase>59</timebase>
							<ntsc>FALSE</ntsc>
						</rate>
						<in>7538</in>
						<out>8507</out>
						<name>a11</name>
						<media>
							<video>
								<track>
									<clipitem id="clipitem-49">
										<masterclipid>masterclip-17</masterclipid>
										<name>a11</name>
										<duration>969</duration>
										<rate>
											<timebase>59</timebase>
											<ntsc>FALSE</ntsc>
										</rate>
										<alphatype>none</alphatype>
										<pixelaspectratio>square</pixelaspectratio>
										<anamorphic>FALSE</anamorphic>
										<file id="file-17">
											<name>20211013_073159.mp4</name>
											<pathurl>file://localhost/P%3a/climbing/20211013_073159.mp4</pathurl>
											<rate>
												<timebase>59</timebase>
												<ntsc>FALSE</ntsc>
											</rate>
											<duration>64140</duration>
											<timecode>
												<rate>
													<timebase>59</timebase>
													<ntsc>FALSE</ntsc>
												</rate>
												<string>00:00:00:00</string>
												<frame>0</frame>
												<displayformat>NDF</displayformat>
											</timecode>
											<media>
												<video>
													<samplecharacteristics>
														<rate>
															<timebase>59</timebase>
															<ntsc>FALSE</ntsc>
														</rate>
														<width>1920</width>
														<height>1080</height>
														<anamorphic>FALSE</anamorphic>
														<pixelaspectratio>square</pixelaspectratio>
														<fielddominance>none</fielddominance>
													</samplecharacteristics>
												</video>
												<audio>
													<samplecharacteristics>
														<depth>16</depth>
														<samplerate>48000</samplerate>
													</samplecharacteristics>
													<channelcount>2</channelcount>
												</audio>
											</media>
										</file>
										<link>
											<linkclipref>clipitem-49</linkclipref>
											<mediatype>video</mediatype>
											<trackindex>1</trackindex>
											<clipindex>1</clipindex>
										</link>
										<link>
											<linkclipref>clipitem-50</linkclipref>
											<mediatype>audio</mediatype>
											<trackindex>1</trackindex>
											<clipindex>1</clipindex>
											<groupindex>1</groupindex>
										</link>
										<link>
											<linkclipref>clipitem-51</linkclipref>
											<mediatype>audio</mediatype>
											<trackindex>2</trackindex>
											<clipindex>1</clipindex>
											<groupindex>1</groupindex>
										</link>
										<subclipinfo>
											<startoffset>7538</startoffset>
											<endoffset>55633</endoffset>
										</subclipinfo>
									</clipitem>
								</track>
							</video>
							<audio>
								<track>
									<clipitem id="clipitem-50">
										<masterclipid>masterclip-17</masterclipid>
										<name>a11</name>
										<duration>969</duration>
										<rate>
											<timebase>59</timebase>
											<ntsc>FALSE</ntsc>
										</rate>
										<file id="file-17"/>
										<sourcetrack>
											<mediatype>audio</mediatype>
											<trackindex>1</trackindex>
										</sourcetrack>
										<link>
											<linkclipref>clipitem-49</linkclipref>
											<mediatype>video</mediatype>
											<trackindex>1</trackindex>
											<clipindex>1</clipindex>
										</link>
										<link>
											<linkclipref>clipitem-50</linkclipref>
											<mediatype>audio</mediatype>
											<trackindex>1</trackindex>
											<clipindex>1</clipindex>
											<groupindex>1</groupindex>
										</link>
										<link>
											<linkclipref>clipitem-51</linkclipref>
											<mediatype>audio</mediatype>
											<trackindex>2</trackindex>
											<clipindex>1</clipindex>
											<groupindex>1</groupindex>
										</link>
										<subclipinfo>
											<startoffset>7538</startoffset>
											<endoffset>55633</endoffset>
										</subclipinfo>
									</clipitem>
								</track>
								<track>
									<clipitem id="clipitem-51">
										<masterclipid>masterclip-17</masterclipid>
										<name>a11</name>
										<duration>969</duration>
										<rate>
											<timebase>59</timebase>
											<ntsc>FALSE</ntsc>
										</rate>
										<file id="file-17"/>
										<sourcetrack>
											<mediatype>audio</mediatype>
											<trackindex>2</trackindex>
										</sourcetrack>
										<link>
											<linkclipref>clipitem-49</linkclipref>
											<mediatype>video</mediatype>
											<trackindex>1</trackindex>
											<clipindex>1</clipindex>
										</link>
										<link>
											<linkclipref>clipitem-50</linkclipref>
											<mediatype>audio</mediatype>
											<trackindex>1</trackindex>
											<clipindex>1</clipindex>
											<groupindex>1</groupindex>
										</link>
										<link>
											<linkclipref>clipitem-51</linkclipref>
											<mediatype>audio</mediatype>
											<trackindex>2</trackindex>
											<clipindex>1</clipindex>
											<groupindex>1</groupindex>
										</link>
										<subclipinfo>
											<startoffset>7538</startoffset>
											<endoffset>55633</endoffset>
										</subclipinfo>
									</clipitem>
								</track>
							</audio>
						</media>
						<logginginfo>
							<description></description>
							<scene></scene>
							<shottake></shottake>
							<lognote></lognote>
							<good></good>
							<originalvideofilename></originalvideofilename>
							<originalaudiofilename></originalaudiofilename>
						</logginginfo>
						<colorinfo>
							<lut></lut>
							<lut1></lut1>
							<asc_sop></asc_sop>
							<asc_sat></asc_sat>
							<lut2></lut2>
						</colorinfo>
						<labels>
							<label2>Iris</label2>
						</labels>
					</clip>
					<clip id="masterclip-18" explodedTracks="true">
						<uuid>372a3b9c-e47a-4366-b4dd-f5c29b4fe083</uuid>
						<masterclipid>masterclip-18</masterclipid>
						<ismasterclip>TRUE</ismasterclip>
						<duration>64140</duration>
						<rate>
							<timebase>59</timebase>
							<ntsc>FALSE</ntsc>
						</rate>
						<in>12564</in>
						<out>13293</out>
						<name>a12</name>
						<media>
							<video>
								<track>
									<clipitem id="clipitem-52">
										<masterclipid>masterclip-18</masterclipid>
										<name>a12</name>
										<duration>729</duration>
										<rate>
											<timebase>59</timebase>
											<ntsc>FALSE</ntsc>
										</rate>
										<alphatype>none</alphatype>
										<pixelaspectratio>square</pixelaspectratio>
										<anamorphic>FALSE</anamorphic>
										<file id="file-18">
											<name>20211013_073159.mp4</name>
											<pathurl>file://localhost/P%3a/climbing/20211013_073159.mp4</pathurl>
											<rate>
												<timebase>59</timebase>
												<ntsc>FALSE</ntsc>
											</rate>
											<duration>64140</duration>
											<timecode>
												<rate>
													<timebase>59</timebase>
													<ntsc>FALSE</ntsc>
												</rate>
												<string>00:00:00:00</string>
												<frame>0</frame>
												<displayformat>NDF</displayformat>
											</timecode>
											<media>
												<video>
													<samplecharacteristics>
														<rate>
															<timebase>59</timebase>
															<ntsc>FALSE</ntsc>
														</rate>
														<width>1920</width>
														<height>1080</height>
														<anamorphic>FALSE</anamorphic>
														<pixelaspectratio>square</pixelaspectratio>
														<fielddominance>none</fielddominance>
													</samplecharacteristics>
												</video>
												<audio>
													<samplecharacteristics>
														<depth>16</depth>
														<samplerate>48000</samplerate>
													</samplecharacteristics>
													<channelcount>2</channelcount>
												</audio>
											</media>
										</file>
										<link>
											<linkclipref>clipitem-52</linkclipref>
											<mediatype>video</mediatype>
											<trackindex>1</trackindex>
											<clipindex>1</clipindex>
										</link>
										<link>
											<linkclipref>clipitem-53</linkclipref>
											<mediatype>audio</mediatype>
											<trackindex>1</trackindex>
											<clipindex>1</clipindex>
											<groupindex>1</groupindex>
										</link>
										<link>
											<linkclipref>clipitem-54</linkclipref>
											<mediatype>audio</mediatype>
											<trackindex>2</trackindex>
											<clipindex>1</clipindex>
											<groupindex>1</groupindex>
										</link>
										<subclipinfo>
											<startoffset>12564</startoffset>
											<endoffset>50847</endoffset>
										</subclipinfo>
									</clipitem>
								</track>
							</video>
							<audio>
								<track>
									<clipitem id="clipitem-53">
										<masterclipid>masterclip-18</masterclipid>
										<name>a12</name>
										<duration>729</duration>
										<rate>
											<timebase>59</timebase>
											<ntsc>FALSE</ntsc>
										</rate>
										<file id="file-18"/>
										<sourcetrack>
											<mediatype>audio</mediatype>
											<trackindex>1</trackindex>
										</sourcetrack>
										<link>
											<linkclipref>clipitem-52</linkclipref>
											<mediatype>video</mediatype>
											<trackindex>1</trackindex>
											<clipindex>1</clipindex>
										</link>
										<link>
											<linkclipref>clipitem-53</linkclipref>
											<mediatype>audio</mediatype>
											<trackindex>1</trackindex>
											<clipindex>1</clipindex>
											<groupindex>1</groupindex>
										</link>
										<link>
											<linkclipref>clipitem-54</linkclipref>
											<mediatype>audio</mediatype>
											<trackindex>2</trackindex>
											<clipindex>1</clipindex>
											<groupindex>1</groupindex>
										</link>
										<subclipinfo>
											<startoffset>12564</startoffset>
											<endoffset>50847</endoffset>
										</subclipinfo>
									</clipitem>
								</track>
								<track>
									<clipitem id="clipitem-54">
										<masterclipid>masterclip-18</masterclipid>
										<name>a12</name>
										<duration>729</duration>
										<rate>
											<timebase>59</timebase>
											<ntsc>FALSE</ntsc>
										</rate>
										<file id="file-18"/>
										<sourcetrack>
											<mediatype>audio</mediatype>
											<trackindex>2</trackindex>
										</sourcetrack>
										<link>
											<linkclipref>clipitem-52</linkclipref>
											<mediatype>video</mediatype>
											<trackindex>1</trackindex>
											<clipindex>1</clipindex>
										</link>
										<link>
											<linkclipref>clipitem-53</linkclipref>
											<mediatype>audio</mediatype>
											<trackindex>1</trackindex>
											<clipindex>1</clipindex>
											<groupindex>1</groupindex>
										</link>
										<link>
											<linkclipref>clipitem-54</linkclipref>
											<mediatype>audio</mediatype>
											<trackindex>2</trackindex>
											<clipindex>1</clipindex>
											<groupindex>1</groupindex>
										</link>
										<subclipinfo>
											<startoffset>12564</startoffset>
											<endoffset>50847</endoffset>
										</subclipinfo>
									</clipitem>
								</track>
							</audio>
						</media>
						<logginginfo>
							<description></description>
							<scene></scene>
							<shottake></shottake>
							<lognote></lognote>
							<good></good>
							<originalvideofilename></originalvideofilename>
							<originalaudiofilename></originalaudiofilename>
						</logginginfo>
						<colorinfo>
							<lut></lut>
							<lut1></lut1>
							<asc_sop></asc_sop>
							<asc_sat></asc_sat>
							<lut2></lut2>
						</colorinfo>
						<labels>
							<label2>Iris</label2>
						</labels>
					</clip>
					<clip id="masterclip-19" explodedTracks="true">
						<uuid>7475a428-d66a-4c06-ba8e-ba44525ad67b</uuid>
						<masterclipid>masterclip-19</masterclipid>
						<ismasterclip>TRUE</ismasterclip>
						<duration>64140</duration>
						<rate>
							<timebase>59</timebase>
							<ntsc>FALSE</ntsc>
						</rate>
						<in>18917</in>
						<out>19557</out>
						<name>a13</name>
						<media>
							<video>
								<track>
									<clipitem id="clipitem-55">
										<masterclipid>masterclip-19</masterclipid>
										<name>a13</name>
										<duration>640</duration>
										<rate>
											<timebase>59</timebase>
											<ntsc>FALSE</ntsc>
										</rate>
										<alphatype>none</alphatype>
										<pixelaspectratio>square</pixelaspectratio>
										<anamorphic>FALSE</anamorphic>
										<file id="file-19">
											<name>20211013_073159.mp4</name>
											<pathurl>file://localhost/P%3a/climbing/20211013_073159.mp4</pathurl>
											<rate>
												<timebase>59</timebase>
												<ntsc>FALSE</ntsc>
											</rate>
											<duration>64140</duration>
											<timecode>
												<rate>
													<timebase>59</timebase>
													<ntsc>FALSE</ntsc>
												</rate>
												<string>00:00:00:00</string>
												<frame>0</frame>
												<displayformat>NDF</displayformat>
											</timecode>
											<media>
												<video>
													<samplecharacteristics>
														<rate>
															<timebase>59</timebase>
															<ntsc>FALSE</ntsc>
														</rate>
														<width>1920</width>
														<height>1080</height>
														<anamorphic>FALSE</anamorphic>
														<pixelaspectratio>square</pixelaspectratio>
														<fielddominance>none</fielddominance>
													</samplecharacteristics>
												</video>
												<audio>
													<samplecharacteristics>
														<depth>16</depth>
														<samplerate>48000</samplerate>
													</samplecharacteristics>
													<channelcount>2</channelcount>
												</audio>
											</media>
										</file>
										<link>
											<linkclipref>clipitem-55</linkclipref>
											<mediatype>video</mediatype>
											<trackindex>1</trackindex>
											<clipindex>1</clipindex>
										</link>
										<link>
											<linkclipref>clipitem-56</linkclipref>
											<mediatype>audio</mediatype>
											<trackindex>1</trackindex>
											<clipindex>1</clipindex>
											<groupindex>1</groupindex>
										</link>
										<link>
											<linkclipref>clipitem-57</linkclipref>
											<mediatype>audio</mediatype>
											<trackindex>2</trackindex>
											<clipindex>1</clipindex>
											<groupindex>1</groupindex>
										</link>
										<subclipinfo>
											<startoffset>18917</startoffset>
											<endoffset>44583</endoffset>
										</subclipinfo>
									</clipitem>
								</track>
							</video>
							<audio>
								<track>
									<clipitem id="clipitem-56">
										<masterclipid>masterclip-19</masterclipid>
										<name>a13</name>
										<duration>640</duration>
										<rate>
											<timebase>59</timebase>
											<ntsc>FALSE</ntsc>
										</rate>
										<file id="file-19"/>
										<sourcetrack>
											<mediatype>audio</mediatype>
											<trackindex>1</trackindex>
										</sourcetrack>
										<link>
											<linkclipref>clipitem-55</linkclipref>
											<mediatype>video</mediatype>
											<trackindex>1</trackindex>
											<clipindex>1</clipindex>
										</link>
										<link>
											<linkclipref>clipitem-56</linkclipref>
											<mediatype>audio</mediatype>
											<trackindex>1</trackindex>
											<clipindex>1</clipindex>
											<groupindex>1</groupindex>
										</link>
										<link>
											<linkclipref>clipitem-57</linkclipref>
											<mediatype>audio</mediatype>
											<trackindex>2</trackindex>
											<clipindex>1</clipindex>
											<groupindex>1</groupindex>
										</link>
										<subclipinfo>
											<startoffset>18917</startoffset>
											<endoffset>44583</endoffset>
										</subclipinfo>
									</clipitem>
								</track>
								<track>
									<clipitem id="clipitem-57">
										<masterclipid>masterclip-19</masterclipid>
										<name>a13</name>
										<duration>640</duration>
										<rate>
											<timebase>59</timebase>
											<ntsc>FALSE</ntsc>
										</rate>
										<file id="file-19"/>
										<sourcetrack>
											<mediatype>audio</mediatype>
											<trackindex>2</trackindex>
										</sourcetrack>
										<link>
											<linkclipref>clipitem-55</linkclipref>
											<mediatype>video</mediatype>
											<trackindex>1</trackindex>
											<clipindex>1</clipindex>
										</link>
										<link>
											<linkclipref>clipitem-56</linkclipref>
											<mediatype>audio</mediatype>
											<trackindex>1</trackindex>
											<clipindex>1</clipindex>
											<groupindex>1</groupindex>
										</link>
										<link>
											<linkclipref>clipitem-57</linkclipref>
											<mediatype>audio</mediatype>
											<trackindex>2</trackindex>
											<clipindex>1</clipindex>
											<groupindex>1</groupindex>
										</link>
										<subclipinfo>
											<startoffset>18917</startoffset>
											<endoffset>44583</endoffset>
										</subclipinfo>
									</clipitem>
								</track>
							</audio>
						</media>
						<logginginfo>
							<description></description>
							<scene></scene>
							<shottake></shottake>
							<lognote></lognote>
							<good></good>
							<originalvideofilename></originalvideofilename>
							<originalaudiofilename></originalaudiofilename>
						</logginginfo>
						<colorinfo>
							<lut></lut>
							<lut1></lut1>
							<asc_sop></asc_sop>
							<asc_sat></asc_sat>
							<lut2></lut2>
						</colorinfo>
						<labels>
							<label2>Iris</label2>
						</labels>
					</clip>
					<clip id="masterclip-20" explodedTracks="true">
						<uuid>0f3b9c92-ca87-4926-8673-40f86591b607</uuid>
						<masterclipid>masterclip-20</masterclipid>
						<ismasterclip>TRUE</ismasterclip>
						<duration>64140</duration>
						<rate>
							<timebase>59</timebase>
							<ntsc>FALSE</ntsc>
						</rate>
						<in>22269</in>
						<out>23110</out>
						<name>a14</name>
						<media>
							<video>
								<track>
									<clipitem id="clipitem-58">
										<masterclipid>masterclip-20</masterclipid>
										<name>a14</name>
										<duration>841</duration>
										<rate>
											<timebase>59</timebase>
											<ntsc>FALSE</ntsc>
										</rate>
										<alphatype>none</alphatype>
										<pixelaspectratio>square</pixelaspectratio>
										<anamorphic>FALSE</anamorphic>
										<file id="file-20">
											<name>20211013_073159.mp4</name>
											<pathurl>file://localhost/P%3a/climbing/20211013_073159.mp4</pathurl>
											<rate>
												<timebase>59</timebase>
												<ntsc>FALSE</ntsc>
											</rate>
											<duration>64140</duration>
											<timecode>
												<rate>
													<timebase>59</timebase>
													<ntsc>FALSE</ntsc>
												</rate>
												<string>00:00:00:00</string>
												<frame>0</frame>
												<displayformat>NDF</displayformat>
											</timecode>
											<media>
												<video>
													<samplecharacteristics>
														<rate>
															<timebase>59</timebase>
															<ntsc>FALSE</ntsc>
														</rate>
														<width>1920</width>
														<height>1080</height>
														<anamorphic>FALSE</anamorphic>
														<pixelaspectratio>square</pixelaspectratio>
														<fielddominance>none</fielddominance>
													</samplecharacteristics>
												</video>
												<audio>
													<samplecharacteristics>
														<depth>16</depth>
														<samplerate>48000</samplerate>
													</samplecharacteristics>
													<channelcount>2</channelcount>
												</audio>
											</media>
										</file>
										<link>
											<linkclipref>clipitem-58</linkclipref>
											<mediatype>video</mediatype>
											<trackindex>1</trackindex>
											<clipindex>1</clipindex>
										</link>
										<link>
											<linkclipref>clipitem-59</linkclipref>
											<mediatype>audio</mediatype>
											<trackindex>1</trackindex>
											<clipindex>1</clipindex>
											<groupindex>1</groupindex>
										</link>
										<link>
											<linkclipref>clipitem-60</linkclipref>
											<mediatype>audio</mediatype>
											<trackindex>2</trackindex>
											<clipindex>1</clipindex>
											<groupindex>1</groupindex>
										</link>
										<subclipinfo>
											<startoffset>22269</startoffset>
											<endoffset>41030</endoffset>
										</subclipinfo>
									</clipitem>
								</track>
							</video>
							<audio>
								<track>
									<clipitem id="clipitem-59">
										<masterclipid>masterclip-20</masterclipid>
										<name>a14</name>
										<duration>841</duration>
										<rate>
											<timebase>59</timebase>
											<ntsc>FALSE</ntsc>
										</rate>
										<file id="file-20"/>
										<sourcetrack>
											<mediatype>audio</mediatype>
											<trackindex>1</trackindex>
										</sourcetrack>
										<link>
											<linkclipref>clipitem-58</linkclipref>
											<mediatype>video</mediatype>
											<trackindex>1</trackindex>
											<clipindex>1</clipindex>
										</link>
										<link>
											<linkclipref>clipitem-59</linkclipref>
											<mediatype>audio</mediatype>
											<trackindex>1</trackindex>
											<clipindex>1</clipindex>
											<groupindex>1</groupindex>
										</link>
										<link>
											<linkclipref>clipitem-60</linkclipref>
											<mediatype>audio</mediatype>
											<trackindex>2</trackindex>
											<clipindex>1</clipindex>
											<groupindex>1</groupindex>
										</link>
										<subclipinfo>
											<startoffset>22269</startoffset>
											<endoffset>41030</endoffset>
										</subclipinfo>
									</clipitem>
								</track>
								<track>
									<clipitem id="clipitem-60">
										<masterclipid>masterclip-20</masterclipid>
										<name>a14</name>
										<duration>841</duration>
										<rate>
											<timebase>59</timebase>
											<ntsc>FALSE</ntsc>
										</rate>
										<file id="file-20"/>
										<sourcetrack>
											<mediatype>audio</mediatype>
											<trackindex>2</trackindex>
										</sourcetrack>
										<link>
											<linkclipref>clipitem-58</linkclipref>
											<mediatype>video</mediatype>
											<trackindex>1</trackindex>
											<clipindex>1</clipindex>
										</link>
										<link>
											<linkclipref>clipitem-59</linkclipref>
											<mediatype>audio</mediatype>
											<trackindex>1</trackindex>
											<clipindex>1</clipindex>
											<groupindex>1</groupindex>
										</link>
										<link>
											<linkclipref>clipitem-60</linkclipref>
											<mediatype>audio</mediatype>
											<trackindex>2</trackindex>
											<clipindex>1</clipindex>
											<groupindex>1</groupindex>
										</link>
										<subclipinfo>
											<startoffset>22269</startoffset>
											<endoffset>41030</endoffset>
										</subclipinfo>
									</clipitem>
								</track>
							</audio>
						</media>
						<logginginfo>
							<description></description>
							<scene></scene>
							<shottake></shottake>
							<lognote></lognote>
							<good></good>
							<originalvideofilename></originalvideofilename>
							<originalaudiofilename></originalaudiofilename>
						</logginginfo>
						<colorinfo>
							<lut></lut>
							<lut1></lut1>
							<asc_sop></asc_sop>
							<asc_sat></asc_sat>
							<lut2></lut2>
						</colorinfo>
						<labels>
							<label2>Iris</label2>
						</labels>
					</clip>
					<clip id="masterclip-21" explodedTracks="true">
						<uuid>e903283b-ca18-4e39-98e7-58863c10ae73</uuid>
						<masterclipid>masterclip-21</masterclipid>
						<ismasterclip>TRUE</ismasterclip>
						<duration>64140</duration>
						<rate>
							<timebase>59</timebase>
							<ntsc>FALSE</ntsc>
						</rate>
						<in>23613</in>
						<out>24305</out>
						<name>a15</name>
						<media>
							<video>
								<track>
									<clipitem id="clipitem-61">
										<masterclipid>masterclip-21</masterclipid>
										<name>a15</name>
										<duration>692</duration>
										<rate>
											<timebase>59</timebase>
											<ntsc>FALSE</ntsc>
										</rate>
										<alphatype>none</alphatype>
										<pixelaspectratio>square</pixelaspectratio>
										<anamorphic>FALSE</anamorphic>
										<file id="file-21">
											<name>20211013_073159.mp4</name>
											<pathurl>file://localhost/P%3a/climbing/20211013_073159.mp4</pathurl>
											<rate>
												<timebase>59</timebase>
												<ntsc>FALSE</ntsc>
											</rate>
											<duration>64140</duration>
											<timecode>
												<rate>
													<timebase>59</timebase>
													<ntsc>FALSE</ntsc>
												</rate>
												<string>00:00:00:00</string>
												<frame>0</frame>
												<displayformat>NDF</displayformat>
											</timecode>
											<media>
												<video>
													<samplecharacteristics>
														<rate>
															<timebase>59</timebase>
															<ntsc>FALSE</ntsc>
														</rate>
														<width>1920</width>
														<height>1080</height>
														<anamorphic>FALSE</anamorphic>
														<pixelaspectratio>square</pixelaspectratio>
														<fielddominance>none</fielddominance>
													</samplecharacteristics>
												</video>
												<audio>
													<samplecharacteristics>
														<depth>16</depth>
														<samplerate>48000</samplerate>
													</samplecharacteristics>
													<channelcount>2</channelcount>
												</audio>
											</media>
										</file>
										<link>
											<linkclipref>clipitem-61</linkclipref>
											<mediatype>video</mediatype>
											<trackindex>1</trackindex>
											<clipindex>1</clipindex>
										</link>
										<link>
											<linkclipref>clipitem-62</linkclipref>
											<mediatype>audio</mediatype>
											<trackindex>1</trackindex>
											<clipindex>1</clipindex>
											<groupindex>1</groupindex>
										</link>
										<link>
											<linkclipref>clipitem-63</linkclipref>
											<mediatype>audio</mediatype>
											<trackindex>2</trackindex>
											<clipindex>1</clipindex>
											<groupindex>1</groupindex>
										</link>
										<subclipinfo>
											<startoffset>23613</startoffset>
											<endoffset>39835</endoffset>
										</subclipinfo>
									</clipitem>
								</track>
							</video>
							<audio>
								<track>
									<clipitem id="clipitem-62">
										<masterclipid>masterclip-21</masterclipid>
										<name>a15</name>
										<duration>692</duration>
										<rate>
											<timebase>59</timebase>
											<ntsc>FALSE</ntsc>
										</rate>
										<file id="file-21"/>
										<sourcetrack>
											<mediatype>audio</mediatype>
											<trackindex>1</trackindex>
										</sourcetrack>
										<link>
											<linkclipref>clipitem-61</linkclipref>
											<mediatype>video</mediatype>
											<trackindex>1</trackindex>
											<clipindex>1</clipindex>
										</link>
										<link>
											<linkclipref>clipitem-62</linkclipref>
											<mediatype>audio</mediatype>
											<trackindex>1</trackindex>
											<clipindex>1</clipindex>
											<groupindex>1</groupindex>
										</link>
										<link>
											<linkclipref>clipitem-63</linkclipref>
											<mediatype>audio</mediatype>
											<trackindex>2</trackindex>
											<clipindex>1</clipindex>
											<groupindex>1</groupindex>
										</link>
										<subclipinfo>
											<startoffset>23613</startoffset>
											<endoffset>39835</endoffset>
										</subclipinfo>
									</clipitem>
								</track>
								<track>
									<clipitem id="clipitem-63">
										<masterclipid>masterclip-21</masterclipid>
										<name>a15</name>
										<duration>692</duration>
										<rate>
											<timebase>59</timebase>
											<ntsc>FALSE</ntsc>
										</rate>
										<file id="file-21"/>
										<sourcetrack>
											<mediatype>audio</mediatype>
											<trackindex>2</trackindex>
										</sourcetrack>
										<link>
											<linkclipref>clipitem-61</linkclipref>
											<mediatype>video</mediatype>
											<trackindex>1</trackindex>
											<clipindex>1</clipindex>
										</link>
										<link>
											<linkclipref>clipitem-62</linkclipref>
											<mediatype>audio</mediatype>
											<trackindex>1</trackindex>
											<clipindex>1</clipindex>
											<groupindex>1</groupindex>
										</link>
										<link>
											<linkclipref>clipitem-63</linkclipref>
											<mediatype>audio</mediatype>
											<trackindex>2</trackindex>
											<clipindex>1</clipindex>
											<groupindex>1</groupindex>
										</link>
										<subclipinfo>
											<startoffset>23613</startoffset>
											<endoffset>39835</endoffset>
										</subclipinfo>
									</clipitem>
								</track>
							</audio>
						</media>
						<logginginfo>
							<description></description>
							<scene></scene>
							<shottake></shottake>
							<lognote></lognote>
							<good></good>
							<originalvideofilename></originalvideofilename>
							<originalaudiofilename></originalaudiofilename>
						</logginginfo>
						<colorinfo>
							<lut></lut>
							<lut1></lut1>
							<asc_sop></asc_sop>
							<asc_sat></asc_sat>
							<lut2></lut2>
						</colorinfo>
						<labels>
							<label2>Iris</label2>
						</labels>
					</clip>
					<clip id="masterclip-22" explodedTracks="true">
						<uuid>2a0984de-fda6-482a-bd5e-ff7eb83d3767</uuid>
						<masterclipid>masterclip-22</masterclipid>
						<ismasterclip>TRUE</ismasterclip>
						<duration>64140</duration>
						<rate>
							<timebase>59</timebase>
							<ntsc>FALSE</ntsc>
						</rate>
						<in>24927</in>
						<out>25710</out>
						<name>a16</name>
						<media>
							<video>
								<track>
									<clipitem id="clipitem-64">
										<masterclipid>masterclip-22</masterclipid>
										<name>a16</name>
										<duration>783</duration>
										<rate>
											<timebase>59</timebase>
											<ntsc>FALSE</ntsc>
										</rate>
										<alphatype>none</alphatype>
										<pixelaspectratio>square</pixelaspectratio>
										<anamorphic>FALSE</anamorphic>
										<file id="file-22">
											<name>20211013_073159.mp4</name>
											<pathurl>file://localhost/P%3a/climbing/20211013_073159.mp4</pathurl>
											<rate>
												<timebase>59</timebase>
												<ntsc>FALSE</ntsc>
											</rate>
											<duration>64140</duration>
											<timecode>
												<rate>
													<timebase>59</timebase>
													<ntsc>FALSE</ntsc>
												</rate>
												<string>00:00:00:00</string>
												<frame>0</frame>
												<displayformat>NDF</displayformat>
											</timecode>
											<media>
												<video>
													<samplecharacteristics>
														<rate>
															<timebase>59</timebase>
															<ntsc>FALSE</ntsc>
														</rate>
														<width>1920</width>
														<height>1080</height>
														<anamorphic>FALSE</anamorphic>
														<pixelaspectratio>square</pixelaspectratio>
														<fielddominance>none</fielddominance>
													</samplecharacteristics>
												</video>
												<audio>
													<samplecharacteristics>
														<depth>16</depth>
														<samplerate>48000</samplerate>
													</samplecharacteristics>
													<channelcount>2</channelcount>
												</audio>
											</media>
										</file>
										<link>
											<linkclipref>clipitem-64</linkclipref>
											<mediatype>video</mediatype>
											<trackindex>1</trackindex>
											<clipindex>1</clipindex>
										</link>
										<link>
											<linkclipref>clipitem-65</linkclipref>
											<mediatype>audio</mediatype>
											<trackindex>1</trackindex>
											<clipindex>1</clipindex>
											<groupindex>1</groupindex>
										</link>
										<link>
											<linkclipref>clipitem-66</linkclipref>
											<mediatype>audio</mediatype>
											<trackindex>2</trackindex>
											<clipindex>1</clipindex>
											<groupindex>1</groupindex>
										</link>
										<subclipinfo>
											<startoffset>24927</startoffset>
											<endoffset>38430</endoffset>
										</subclipinfo>
									</clipitem>
								</track>
							</video>
							<audio>
								<track>
									<clipitem id="clipitem-65">
										<masterclipid>masterclip-22</masterclipid>
										<name>a16</name>
										<duration>783</duration>
										<rate>
											<timebase>59</timebase>
											<ntsc>FALSE</ntsc>
										</rate>
										<file id="file-22"/>
										<sourcetrack>
											<mediatype>audio</mediatype>
											<trackindex>1</trackindex>
										</sourcetrack>
										<link>
											<linkclipref>clipitem-64</linkclipref>
											<mediatype>video</mediatype>
											<trackindex>1</trackindex>
											<clipindex>1</clipindex>
										</link>
										<link>
											<linkclipref>clipitem-65</linkclipref>
											<mediatype>audio</mediatype>
											<trackindex>1</trackindex>
											<clipindex>1</clipindex>
											<groupindex>1</groupindex>
										</link>
										<link>
											<linkclipref>clipitem-66</linkclipref>
											<mediatype>audio</mediatype>
											<trackindex>2</trackindex>
											<clipindex>1</clipindex>
											<groupindex>1</groupindex>
										</link>
										<subclipinfo>
											<startoffset>24927</startoffset>
											<endoffset>38430</endoffset>
										</subclipinfo>
									</clipitem>
								</track>
								<track>
									<clipitem id="clipitem-66">
										<masterclipid>masterclip-22</masterclipid>
										<name>a16</name>
										<duration>783</duration>
										<rate>
											<timebase>59</timebase>
											<ntsc>FALSE</ntsc>
										</rate>
										<file id="file-22"/>
										<sourcetrack>
											<mediatype>audio</mediatype>
											<trackindex>2</trackindex>
										</sourcetrack>
										<link>
											<linkclipref>clipitem-64</linkclipref>
											<mediatype>video</mediatype>
											<trackindex>1</trackindex>
											<clipindex>1</clipindex>
										</link>
										<link>
											<linkclipref>clipitem-65</linkclipref>
											<mediatype>audio</mediatype>
											<trackindex>1</trackindex>
											<clipindex>1</clipindex>
											<groupindex>1</groupindex>
										</link>
										<link>
											<linkclipref>clipitem-66</linkclipref>
											<mediatype>audio</mediatype>
											<trackindex>2</trackindex>
											<clipindex>1</clipindex>
											<groupindex>1</groupindex>
										</link>
										<subclipinfo>
											<startoffset>24927</startoffset>
											<endoffset>38430</endoffset>
										</subclipinfo>
									</clipitem>
								</track>
							</audio>
						</media>
						<logginginfo>
							<description></description>
							<scene></scene>
							<shottake></shottake>
							<lognote></lognote>
							<good></good>
							<originalvideofilename></originalvideofilename>
							<originalaudiofilename></originalaudiofilename>
						</logginginfo>
						<colorinfo>
							<lut></lut>
							<lut1></lut1>
							<asc_sop></asc_sop>
							<asc_sat></asc_sat>
							<lut2></lut2>
						</colorinfo>
						<labels>
							<label2>Iris</label2>
						</labels>
					</clip>
					<clip id="masterclip-23" explodedTracks="true">
						<uuid>1acb2bf1-6ac6-4743-9ffe-cf6728bc96d4</uuid>
						<masterclipid>masterclip-23</masterclipid>
						<ismasterclip>TRUE</ismasterclip>
						<duration>64140</duration>
						<rate>
							<timebase>59</timebase>
							<ntsc>FALSE</ntsc>
						</rate>
						<in>26182</in>
						<out>26893</out>
						<name>a17</name>
						<media>
							<video>
								<track>
									<clipitem id="clipitem-67">
										<masterclipid>masterclip-23</masterclipid>
										<name>a17</name>
										<duration>711</duration>
										<rate>
											<timebase>59</timebase>
											<ntsc>FALSE</ntsc>
										</rate>
										<alphatype>none</alphatype>
										<pixelaspectratio>square</pixelaspectratio>
										<anamorphic>FALSE</anamorphic>
										<file id="file-23">
											<name>20211013_073159.mp4</name>
											<pathurl>file://localhost/P%3a/climbing/20211013_073159.mp4</pathurl>
											<rate>
												<timebase>59</timebase>
												<ntsc>FALSE</ntsc>
											</rate>
											<duration>64140</duration>
											<timecode>
												<rate>
													<timebase>59</timebase>
													<ntsc>FALSE</ntsc>
												</rate>
												<string>00:00:00:00</string>
												<frame>0</frame>
												<displayformat>NDF</displayformat>
											</timecode>
											<media>
												<video>
													<samplecharacteristics>
														<rate>
															<timebase>59</timebase>
															<ntsc>FALSE</ntsc>
														</rate>
														<width>1920</width>
														<height>1080</height>
														<anamorphic>FALSE</anamorphic>
														<pixelaspectratio>square</pixelaspectratio>
														<fielddominance>none</fielddominance>
													</samplecharacteristics>
												</video>
												<audio>
													<samplecharacteristics>
														<depth>16</depth>
														<samplerate>48000</samplerate>
													</samplecharacteristics>
													<channelcount>2</channelcount>
												</audio>
											</media>
										</file>
										<link>
											<linkclipref>clipitem-67</linkclipref>
											<mediatype>video</mediatype>
											<trackindex>1</trackindex>
											<clipindex>1</clipindex>
										</link>
										<link>
											<linkclipref>clipitem-68</linkclipref>
											<mediatype>audio</mediatype>
											<trackindex>1</trackindex>
											<clipindex>1</clipindex>
											<groupindex>1</groupindex>
										</link>
										<link>
											<linkclipref>clipitem-69</linkclipref>
											<mediatype>audio</mediatype>
											<trackindex>2</trackindex>
											<clipindex>1</clipindex>
											<groupindex>1</groupindex>
										</link>
										<subclipinfo>
											<startoffset>26182</startoffset>
											<endoffset>37247</endoffset>
										</subclipinfo>
									</clipitem>
								</track>
							</video>
							<audio>
								<track>
									<clipitem id="clipitem-68">
										<masterclipid>masterclip-23</masterclipid>
										<name>a17</name>
										<duration>711</duration>
										<rate>
											<timebase>59</timebase>
											<ntsc>FALSE</ntsc>
										</rate>
										<file id="file-23"/>
										<sourcetrack>
											<mediatype>audio</mediatype>
											<trackindex>1</trackindex>
										</sourcetrack>
										<link>
											<linkclipref>clipitem-67</linkclipref>
											<mediatype>video</mediatype>
											<trackindex>1</trackindex>
											<clipindex>1</clipindex>
										</link>
										<link>
											<linkclipref>clipitem-68</linkclipref>
											<mediatype>audio</mediatype>
											<trackindex>1</trackindex>
											<clipindex>1</clipindex>
											<groupindex>1</groupindex>
										</link>
										<link>
											<linkclipref>clipitem-69</linkclipref>
											<mediatype>audio</mediatype>
											<trackindex>2</trackindex>
											<clipindex>1</clipindex>
											<groupindex>1</groupindex>
										</link>
										<subclipinfo>
											<startoffset>26182</startoffset>
											<endoffset>37247</endoffset>
										</subclipinfo>
									</clipitem>
								</track>
								<track>
									<clipitem id="clipitem-69">
										<masterclipid>masterclip-23</masterclipid>
										<name>a17</name>
										<duration>711</duration>
										<rate>
											<timebase>59</timebase>
											<ntsc>FALSE</ntsc>
										</rate>
										<file id="file-23"/>
										<sourcetrack>
											<mediatype>audio</mediatype>
											<trackindex>2</trackindex>
										</sourcetrack>
										<link>
											<linkclipref>clipitem-67</linkclipref>
											<mediatype>video</mediatype>
											<trackindex>1</trackindex>
											<clipindex>1</clipindex>
										</link>
										<link>
											<linkclipref>clipitem-68</linkclipref>
											<mediatype>audio</mediatype>
											<trackindex>1</trackindex>
											<clipindex>1</clipindex>
											<groupindex>1</groupindex>
										</link>
										<link>
											<linkclipref>clipitem-69</linkclipref>
											<mediatype>audio</mediatype>
											<trackindex>2</trackindex>
											<clipindex>1</clipindex>
											<groupindex>1</groupindex>
										</link>
										<subclipinfo>
											<startoffset>26182</startoffset>
											<endoffset>37247</endoffset>
										</subclipinfo>
									</clipitem>
								</track>
							</audio>
						</media>
						<logginginfo>
							<description></description>
							<scene></scene>
							<shottake></shottake>
							<lognote></lognote>
							<good></good>
							<originalvideofilename></originalvideofilename>
							<originalaudiofilename></originalaudiofilename>
						</logginginfo>
						<colorinfo>
							<lut></lut>
							<lut1></lut1>
							<asc_sop></asc_sop>
							<asc_sat></asc_sat>
							<lut2></lut2>
						</colorinfo>
						<labels>
							<label2>Iris</label2>
						</labels>
					</clip>
					<clip id="masterclip-24" explodedTracks="true">
						<uuid>9a60a4f5-b47b-4685-8779-f519c450589f</uuid>
						<masterclipid>masterclip-24</masterclipid>
						<ismasterclip>TRUE</ismasterclip>
						<duration>64140</duration>
						<rate>
							<timebase>59</timebase>
							<ntsc>FALSE</ntsc>
						</rate>
						<in>27711</in>
						<out>28649</out>
						<name>a18</name>
						<media>
							<video>
								<track>
									<clipitem id="clipitem-70">
										<masterclipid>masterclip-24</masterclipid>
										<name>a18</name>
										<duration>938</duration>
										<rate>
											<timebase>59</timebase>
											<ntsc>FALSE</ntsc>
										</rate>
										<alphatype>none</alphatype>
										<pixelaspectratio>square</pixelaspectratio>
										<anamorphic>FALSE</anamorphic>
										<file id="file-24">
											<name>20211013_073159.mp4</name>
											<pathurl>file://localhost/P%3a/climbing/20211013_073159.mp4</pathurl>
											<rate>
												<timebase>59</timebase>
												<ntsc>FALSE</ntsc>
											</rate>
											<duration>64140</duration>
											<timecode>
												<rate>
													<timebase>59</timebase>
													<ntsc>FALSE</ntsc>
												</rate>
												<string>00:00:00:00</string>
												<frame>0</frame>
												<displayformat>NDF</displayformat>
											</timecode>
											<media>
												<video>
													<samplecharacteristics>
														<rate>
															<timebase>59</timebase>
															<ntsc>FALSE</ntsc>
														</rate>
														<width>1920</width>
														<height>1080</height>
														<anamorphic>FALSE</anamorphic>
														<pixelaspectratio>square</pixelaspectratio>
														<fielddominance>none</fielddominance>
													</samplecharacteristics>
												</video>
												<audio>
													<samplecharacteristics>
														<depth>16</depth>
														<samplerate>48000</samplerate>
													</samplecharacteristics>
													<channelcount>2</channelcount>
												</audio>
											</media>
										</file>
										<link>
											<linkclipref>clipitem-70</linkclipref>
											<mediatype>video</mediatype>
											<trackindex>1</trackindex>
											<clipindex>1</clipindex>
										</link>
										<link>
											<linkclipref>clipitem-71</linkclipref>
											<mediatype>audio</mediatype>
											<trackindex>1</trackindex>
											<clipindex>1</clipindex>
											<groupindex>1</groupindex>
										</link>
										<link>
											<linkclipref>clipitem-72</linkclipref>
											<mediatype>audio</mediatype>
											<trackindex>2</trackindex>
											<clipindex>1</clipindex>
											<groupindex>1</groupindex>
										</link>
										<subclipinfo>
											<startoffset>27711</startoffset>
											<endoffset>35491</endoffset>
										</subclipinfo>
									</clipitem>
								</track>
							</video>
							<audio>
								<track>
									<clipitem id="clipitem-71">
										<masterclipid>masterclip-24</masterclipid>
										<name>a18</name>
										<duration>938</duration>
										<rate>
											<timebase>59</timebase>
											<ntsc>FALSE</ntsc>
										</rate>
										<file id="file-24"/>
										<sourcetrack>
											<mediatype>audio</mediatype>
											<trackindex>1</trackindex>
										</sourcetrack>
										<link>
											<linkclipref>clipitem-70</linkclipref>
											<mediatype>video</mediatype>
											<trackindex>1</trackindex>
											<clipindex>1</clipindex>
										</link>
										<link>
											<linkclipref>clipitem-71</linkclipref>
											<mediatype>audio</mediatype>
											<trackindex>1</trackindex>
											<clipindex>1</clipindex>
											<groupindex>1</groupindex>
										</link>
										<link>
											<linkclipref>clipitem-72</linkclipref>
											<mediatype>audio</mediatype>
											<trackindex>2</trackindex>
											<clipindex>1</clipindex>
											<groupindex>1</groupindex>
										</link>
										<subclipinfo>
											<startoffset>27711</startoffset>
											<endoffset>35491</endoffset>
										</subclipinfo>
									</clipitem>
								</track>
								<track>
									<clipitem id="clipitem-72">
										<masterclipid>masterclip-24</masterclipid>
										<name>a18</name>
										<duration>938</duration>
										<rate>
											<timebase>59</timebase>
											<ntsc>FALSE</ntsc>
										</rate>
										<file id="file-24"/>
										<sourcetrack>
											<mediatype>audio</mediatype>
											<trackindex>2</trackindex>
										</sourcetrack>
										<link>
											<linkclipref>clipitem-70</linkclipref>
											<mediatype>video</mediatype>
											<trackindex>1</trackindex>
											<clipindex>1</clipindex>
										</link>
										<link>
											<linkclipref>clipitem-71</linkclipref>
											<mediatype>audio</mediatype>
											<trackindex>1</trackindex>
											<clipindex>1</clipindex>
											<groupindex>1</groupindex>
										</link>
										<link>
											<linkclipref>clipitem-72</linkclipref>
											<mediatype>audio</mediatype>
											<trackindex>2</trackindex>
											<clipindex>1</clipindex>
											<groupindex>1</groupindex>
										</link>
										<subclipinfo>
											<startoffset>27711</startoffset>
											<endoffset>35491</endoffset>
										</subclipinfo>
									</clipitem>
								</track>
							</audio>
						</media>
						<logginginfo>
							<description></description>
							<scene></scene>
							<shottake></shottake>
							<lognote></lognote>
							<good></good>
							<originalvideofilename></originalvideofilename>
							<originalaudiofilename></originalaudiofilename>
						</logginginfo>
						<colorinfo>
							<lut></lut>
							<lut1></lut1>
							<asc_sop></asc_sop>
							<asc_sat></asc_sat>
							<lut2></lut2>
						</colorinfo>
						<labels>
							<label2>Iris</label2>
						</labels>
					</clip>
					<clip id="masterclip-25" explodedTracks="true">
						<uuid>dda53eb4-f092-4a94-9c3c-eb7bd9468d7c</uuid>
						<masterclipid>masterclip-25</masterclipid>
						<ismasterclip>TRUE</ismasterclip>
						<duration>64140</duration>
						<rate>
							<timebase>59</timebase>
							<ntsc>FALSE</ntsc>
						</rate>
						<in>38276</in>
						<out>39116</out>
						<name>a19</name>
						<media>
							<video>
								<track>
									<clipitem id="clipitem-73">
										<masterclipid>masterclip-25</masterclipid>
										<name>a19</name>
										<duration>840</duration>
										<rate>
											<timebase>59</timebase>
											<ntsc>FALSE</ntsc>
										</rate>
										<alphatype>none</alphatype>
										<pixelaspectratio>square</pixelaspectratio>
										<anamorphic>FALSE</anamorphic>
										<file id="file-25">
											<name>20211013_073159.mp4</name>
											<pathurl>file://localhost/P%3a/climbing/20211013_073159.mp4</pathurl>
											<rate>
												<timebase>59</timebase>
												<ntsc>FALSE</ntsc>
											</rate>
											<duration>64140</duration>
											<timecode>
												<rate>
													<timebase>59</timebase>
													<ntsc>FALSE</ntsc>
												</rate>
												<string>00:00:00:00</string>
												<frame>0</frame>
												<displayformat>NDF</displayformat>
											</timecode>
											<media>
												<video>
													<samplecharacteristics>
														<rate>
															<timebase>59</timebase>
															<ntsc>FALSE</ntsc>
														</rate>
														<width>1920</width>
														<height>1080</height>
														<anamorphic>FALSE</anamorphic>
														<pixelaspectratio>square</pixelaspectratio>
														<fielddominance>none</fielddominance>
													</samplecharacteristics>
												</video>
												<audio>
													<samplecharacteristics>
														<depth>16</depth>
														<samplerate>48000</samplerate>
													</samplecharacteristics>
													<channelcount>2</channelcount>
												</audio>
											</media>
										</file>
										<link>
											<linkclipref>clipitem-73</linkclipref>
											<mediatype>video</mediatype>
											<trackindex>1</trackindex>
											<clipindex>1</clipindex>
										</link>
										<link>
											<linkclipref>clipitem-74</linkclipref>
											<mediatype>audio</mediatype>
											<trackindex>1</trackindex>
											<clipindex>1</clipindex>
											<groupindex>1</groupindex>
										</link>
										<link>
											<linkclipref>clipitem-75</linkclipref>
											<mediatype>audio</mediatype>
											<trackindex>2</trackindex>
											<clipindex>1</clipindex>
											<groupindex>1</groupindex>
										</link>
										<subclipinfo>
											<startoffset>38276</startoffset>
											<endoffset>25024</endoffset>
										</subclipinfo>
									</clipitem>
								</track>
							</video>
							<audio>
								<track>
									<clipitem id="clipitem-74">
										<masterclipid>masterclip-25</masterclipid>
										<name>a19</name>
										<duration>840</duration>
										<rate>
											<timebase>59</timebase>
											<ntsc>FALSE</ntsc>
										</rate>
										<file id="file-25"/>
										<sourcetrack>
											<mediatype>audio</mediatype>
											<trackindex>1</trackindex>
										</sourcetrack>
										<link>
											<linkclipref>clipitem-73</linkclipref>
											<mediatype>video</mediatype>
											<trackindex>1</trackindex>
											<clipindex>1</clipindex>
										</link>
										<link>
											<linkclipref>clipitem-74</linkclipref>
											<mediatype>audio</mediatype>
											<trackindex>1</trackindex>
											<clipindex>1</clipindex>
											<groupindex>1</groupindex>
										</link>
										<link>
											<linkclipref>clipitem-75</linkclipref>
											<mediatype>audio</mediatype>
											<trackindex>2</trackindex>
											<clipindex>1</clipindex>
											<groupindex>1</groupindex>
										</link>
										<subclipinfo>
											<startoffset>38276</startoffset>
											<endoffset>25024</endoffset>
										</subclipinfo>
									</clipitem>
								</track>
								<track>
									<clipitem id="clipitem-75">
										<masterclipid>masterclip-25</masterclipid>
										<name>a19</name>
										<duration>840</duration>
										<rate>
											<timebase>59</timebase>
											<ntsc>FALSE</ntsc>
										</rate>
										<file id="file-25"/>
										<sourcetrack>
											<mediatype>audio</mediatype>
											<trackindex>2</trackindex>
										</sourcetrack>
										<link>
											<linkclipref>clipitem-73</linkclipref>
											<mediatype>video</mediatype>
											<trackindex>1</trackindex>
											<clipindex>1</clipindex>
										</link>
										<link>
											<linkclipref>clipitem-74</linkclipref>
											<mediatype>audio</mediatype>
											<trackindex>1</trackindex>
											<clipindex>1</clipindex>
											<groupindex>1</groupindex>
										</link>
										<link>
											<linkclipref>clipitem-75</linkclipref>
											<mediatype>audio</mediatype>
											<trackindex>2</trackindex>
											<clipindex>1</clipindex>
											<groupindex>1</groupindex>
										</link>
										<subclipinfo>
											<startoffset>38276</startoffset>
											<endoffset>25024</endoffset>
										</subclipinfo>
									</clipitem>
								</track>
							</audio>
						</media>
						<logginginfo>
							<description></description>
							<scene></scene>
							<shottake></shottake>
							<lognote></lognote>
							<good></good>
							<originalvideofilename></originalvideofilename>
							<originalaudiofilename></originalaudiofilename>
						</logginginfo>
						<colorinfo>
							<lut></lut>
							<lut1></lut1>
							<asc_sop></asc_sop>
							<asc_sat></asc_sat>
							<lut2></lut2>
						</colorinfo>
						<labels>
							<label2>Iris</label2>
						</labels>
					</clip>
					<clip id="masterclip-26" explodedTracks="true">
						<uuid>568c4c3b-9373-466e-81f5-aa76ccec18fa</uuid>
						<masterclipid>masterclip-26</masterclipid>
						<ismasterclip>TRUE</ismasterclip>
						<duration>64140</duration>
						<rate>
							<timebase>59</timebase>
							<ntsc>FALSE</ntsc>
						</rate>
						<in>44303</in>
						<out>45210</out>
						<name>a20</name>
						<media>
							<video>
								<track>
									<clipitem id="clipitem-76">
										<masterclipid>masterclip-26</masterclipid>
										<name>a20</name>
										<duration>907</duration>
										<rate>
											<timebase>59</timebase>
											<ntsc>FALSE</ntsc>
										</rate>
										<alphatype>none</alphatype>
										<pixelaspectratio>square</pixelaspectratio>
										<anamorphic>FALSE</anamorphic>
										<file id="file-26">
											<name>20211013_073159.mp4</name>
											<pathurl>file://localhost/P%3a/climbing/20211013_073159.mp4</pathurl>
											<rate>
												<timebase>59</timebase>
												<ntsc>FALSE</ntsc>
											</rate>
											<duration>64140</duration>
											<timecode>
												<rate>
													<timebase>59</timebase>
													<ntsc>FALSE</ntsc>
												</rate>
												<string>00:00:00:00</string>
												<frame>0</frame>
												<displayformat>NDF</displayformat>
											</timecode>
											<media>
												<video>
													<samplecharacteristics>
														<rate>
															<timebase>59</timebase>
															<ntsc>FALSE</ntsc>
														</rate>
														<width>1920</width>
														<height>1080</height>
														<anamorphic>FALSE</anamorphic>
														<pixelaspectratio>square</pixelaspectratio>
														<fielddominance>none</fielddominance>
													</samplecharacteristics>
												</video>
												<audio>
													<samplecharacteristics>
														<depth>16</depth>
														<samplerate>48000</samplerate>
													</samplecharacteristics>
													<channelcount>2</channelcount>
												</audio>
											</media>
										</file>
										<link>
											<linkclipref>clipitem-76</linkclipref>
											<mediatype>video</mediatype>
											<trackindex>1</trackindex>
											<clipindex>1</clipindex>
										</link>
										<link>
											<linkclipref>clipitem-77</linkclipref>
											<mediatype>audio</mediatype>
											<trackindex>1</trackindex>
											<clipindex>1</clipindex>
											<groupindex>1</groupindex>
										</link>
										<link>
											<linkclipref>clipitem-78</linkclipref>
											<mediatype>audio</mediatype>
											<trackindex>2</trackindex>
											<clipindex>1</clipindex>
											<groupindex>1</groupindex>
										</link>
										<subclipinfo>
											<startoffset>44303</startoffset>
											<endoffset>18930</endoffset>
										</subclipinfo>
									</clipitem>
								</track>
							</video>
							<audio>
								<track>
									<clipitem id="clipitem-77">
										<masterclipid>masterclip-26</masterclipid>
										<name>a20</name>
										<duration>907</duration>
										<rate>
											<timebase>59</timebase>
											<ntsc>FALSE</ntsc>
										</rate>
										<file id="file-26"/>
										<sourcetrack>
											<mediatype>audio</mediatype>
											<trackindex>1</trackindex>
										</sourcetrack>
										<link>
											<linkclipref>clipitem-76</linkclipref>
											<mediatype>video</mediatype>
											<trackindex>1</trackindex>
											<clipindex>1</clipindex>
										</link>
										<link>
											<linkclipref>clipitem-77</linkclipref>
											<mediatype>audio</mediatype>
											<trackindex>1</trackindex>
											<clipindex>1</clipindex>
											<groupindex>1</groupindex>
										</link>
										<link>
											<linkclipref>clipitem-78</linkclipref>
											<mediatype>audio</mediatype>
											<trackindex>2</trackindex>
											<clipindex>1</clipindex>
											<groupindex>1</groupindex>
										</link>
										<subclipinfo>
											<startoffset>44303</startoffset>
											<endoffset>18930</endoffset>
										</subclipinfo>
									</clipitem>
								</track>
								<track>
									<clipitem id="clipitem-78">
										<masterclipid>masterclip-26</masterclipid>
										<name>a20</name>
										<duration>907</duration>
										<rate>
											<timebase>59</timebase>
											<ntsc>FALSE</ntsc>
										</rate>
										<file id="file-26"/>
										<sourcetrack>
											<mediatype>audio</mediatype>
											<trackindex>2</trackindex>
										</sourcetrack>
										<link>
											<linkclipref>clipitem-76</linkclipref>
											<mediatype>video</mediatype>
											<trackindex>1</trackindex>
											<clipindex>1</clipindex>
										</link>
										<link>
											<linkclipref>clipitem-77</linkclipref>
											<mediatype>audio</mediatype>
											<trackindex>1</trackindex>
											<clipindex>1</clipindex>
											<groupindex>1</groupindex>
										</link>
										<link>
											<linkclipref>clipitem-78</linkclipref>
											<mediatype>audio</mediatype>
											<trackindex>2</trackindex>
											<clipindex>1</clipindex>
											<groupindex>1</groupindex>
										</link>
										<subclipinfo>
											<startoffset>44303</startoffset>
											<endoffset>18930</endoffset>
										</subclipinfo>
									</clipitem>
								</track>
							</audio>
						</media>
						<logginginfo>
							<description></description>
							<scene></scene>
							<shottake></shottake>
							<lognote></lognote>
							<good></good>
							<originalvideofilename></originalvideofilename>
							<originalaudiofilename></originalaudiofilename>
						</logginginfo>
						<colorinfo>
							<lut></lut>
							<lut1></lut1>
							<asc_sop></asc_sop>
							<asc_sat></asc_sat>
							<lut2></lut2>
						</colorinfo>
						<labels>
							<label2>Iris</label2>
						</labels>
					</clip>
					<clip id="masterclip-27" explodedTracks="true">
						<uuid>81f3b7db-89d7-4559-936e-b77596656215</uuid>
						<masterclipid>masterclip-27</masterclipid>
						<ismasterclip>TRUE</ismasterclip>
						<duration>64140</duration>
						<rate>
							<timebase>59</timebase>
							<ntsc>FALSE</ntsc>
						</rate>
						<in>47000</in>
						<out>1181</out>
						<name>a21</name>
						<media>
							<video>
								<track>
									<clipitem id="clipitem-79">
										<masterclipid>masterclip-27</masterclipid>
										<name>a21</name>
										<duration>1181</duration>
										<rate>
											<timebase>59</timebase>
											<ntsc>FALSE</ntsc>
										</rate>
										<alphatype>none</alphatype>
										<pixelaspectratio>square</pixelaspectratio>
										<anamorphic>FALSE</anamorphic>
										<file id="file-27">
											<name>20211013_073159.mp4</name>
											<pathurl>file://localhost/P%3a/climbing/20211013_073159.mp4</pathurl>
											<rate>
												<timebase>59</timebase>
												<ntsc>FALSE</ntsc>
											</rate>
											<duration>64140</duration>
											<timecode>
												<rate>
													<timebase>59</timebase>
													<ntsc>FALSE</ntsc>
												</rate>
												<string>00:00:00:00</string>
												<frame>0</frame>
												<displayformat>NDF</displayformat>
											</timecode>
											<media>
												<video>
													<samplecharacteristics>
														<rate>
															<timebase>59</timebase>
															<ntsc>FALSE</ntsc>
														</rate>
														<width>1920</width>
														<height>1080</height>
														<anamorphic>FALSE</anamorphic>
														<pixelaspectratio>square</pixelaspectratio>
														<fielddominance>none</fielddominance>
													</samplecharacteristics>
												</video>
												<audio>
													<samplecharacteristics>
														<depth>16</depth>
														<samplerate>48000</samplerate>
													</samplecharacteristics>
													<channelcount>2</channelcount>
												</audio>
											</media>
										</file>
										<link>
											<linkclipref>clipitem-79</linkclipref>
											<mediatype>video</mediatype>
											<trackindex>1</trackindex>
											<clipindex>1</clipindex>
										</link>
										<link>
											<linkclipref>clipitem-80</linkclipref>
											<mediatype>audio</mediatype>
											<trackindex>1</trackindex>
											<clipindex>1</clipindex>
											<groupindex>1</groupindex>
										</link>
										<link>
											<linkclipref>clipitem-81</linkclipref>
											<mediatype>audio</mediatype>
											<trackindex>2</trackindex>
											<clipindex>1</clipindex>
											<groupindex>1</groupindex>
										</link>
										<subclipinfo>
											<startoffset>47000</startoffset>
											<endoffset>15959</endoffset>
										</subclipinfo>
									</clipitem>
								</track>
							</video>
							<audio>
								<track>
									<clipitem id="clipitem-80">
										<masterclipid>masterclip-27</masterclipid>
										<name>a21</name>
										<duration>1181</duration>
										<rate>
											<timebase>59</timebase>
											<ntsc>FALSE</ntsc>
										</rate>
										<file id="file-27"/>
										<sourcetrack>
											<mediatype>audio</mediatype>
											<trackindex>1</trackindex>
										</sourcetrack>
										<link>
											<linkclipref>clipitem-79</linkclipref>
											<mediatype>video</mediatype>
											<trackindex>1</trackindex>
											<clipindex>1</clipindex>
										</link>
										<link>
											<linkclipref>clipitem-80</linkclipref>
											<mediatype>audio</mediatype>
											<trackindex>1</trackindex>
											<clipindex>1</clipindex>
											<groupindex>1</groupindex>
										</link>
										<link>
											<linkclipref>clipitem-81</linkclipref>
											<mediatype>audio</mediatype>
											<trackindex>2</trackindex>
											<clipindex>1</clipindex>
											<groupindex>1</groupindex>
										</link>
										<subclipinfo>
											<startoffset>47000</startoffset>
											<endoffset>15959</endoffset>
										</subclipinfo>
									</clipitem>
								</track>
								<track>
									<clipitem id="clipitem-81">
										<masterclipid>masterclip-27</masterclipid>
										<name>a21</name>
										<duration>1181</duration>
										<rate>
											<timebase>59</timebase>
											<ntsc>FALSE</ntsc>
										</rate>
										<file id="file-27"/>
										<sourcetrack>
											<mediatype>audio</mediatype>
											<trackindex>2</trackindex>
										</sourcetrack>
										<link>
											<linkclipref>clipitem-79</linkclipref>
											<mediatype>video</mediatype>
											<trackindex>1</trackindex>
											<clipindex>1</clipindex>
										</link>
										<link>
											<linkclipref>clipitem-80</linkclipref>
											<mediatype>audio</mediatype>
											<trackindex>1</trackindex>
											<clipindex>1</clipindex>
											<groupindex>1</groupindex>
										</link>
										<link>
											<linkclipref>clipitem-81</linkclipref>
											<mediatype>audio</mediatype>
											<trackindex>2</trackindex>
											<clipindex>1</clipindex>
											<groupindex>1</groupindex>
										</link>
										<subclipinfo>
											<startoffset>47000</startoffset>
											<endoffset>15959</endoffset>
										</subclipinfo>
									</clipitem>
								</track>
							</audio>
						</media>
						<logginginfo>
							<description></description>
							<scene></scene>
							<shottake></shottake>
							<lognote></lognote>
							<good></good>
							<originalvideofilename></originalvideofilename>
							<originalaudiofilename></originalaudiofilename>
						</logginginfo>
						<colorinfo>
							<lut></lut>
							<lut1></lut1>
							<asc_sop></asc_sop>
							<asc_sat></asc_sat>
							<lut2></lut2>
						</colorinfo>
						<labels>
							<label2>Iris</label2>
						</labels>
					</clip>
					<clip id="masterclip-28" explodedTracks="true">
						<uuid>532fc512-984d-46cb-af88-af349fb39fbb</uuid>
						<masterclipid>masterclip-28</masterclipid>
						<ismasterclip>TRUE</ismasterclip>
						<duration>64140</duration>
						<rate>
							<timebase>59</timebase>
							<ntsc>FALSE</ntsc>
						</rate>
						<in>48700</in>
						<out>49549</out>
						<name>a22</name>
						<media>
							<video>
								<track>
									<clipitem id="clipitem-82">
										<masterclipid>masterclip-28</masterclipid>
										<name>a22</name>
										<duration>849</duration>
										<rate>
											<timebase>59</timebase>
											<ntsc>FALSE</ntsc>
										</rate>
										<alphatype>none</alphatype>
										<pixelaspectratio>square</pixelaspectratio>
										<anamorphic>FALSE</anamorphic>
										<file id="file-28">
											<name>20211013_073159.mp4</name>
											<pathurl>file://localhost/P%3a/climbing/20211013_073159.mp4</pathurl>
											<rate>
												<timebase>59</timebase>
												<ntsc>FALSE</ntsc>
											</rate>
											<duration>64140</duration>
											<timecode>
												<rate>
													<timebase>59</timebase>
													<ntsc>FALSE</ntsc>
												</rate>
												<string>00:00:00:00</string>
												<frame>0</frame>
												<displayformat>NDF</displayformat>
											</timecode>
											<media>
												<video>
													<samplecharacteristics>
														<rate>
															<timebase>59</timebase>
															<ntsc>FALSE</ntsc>
														</rate>
														<width>1920</width>
														<height>1080</height>
														<anamorphic>FALSE</anamorphic>
														<pixelaspectratio>square</pixelaspectratio>
														<fielddominance>none</fielddominance>
													</samplecharacteristics>
												</video>
												<audio>
													<samplecharacteristics>
														<depth>16</depth>
														<samplerate>48000</samplerate>
													</samplecharacteristics>
													<channelcount>2</channelcount>
												</audio>
											</media>
										</file>
										<link>
											<linkclipref>clipitem-82</linkclipref>
											<mediatype>video</mediatype>
											<trackindex>1</trackindex>
											<clipindex>1</clipindex>
										</link>
										<link>
											<linkclipref>clipitem-83</linkclipref>
											<mediatype>audio</mediatype>
											<trackindex>1</trackindex>
											<clipindex>1</clipindex>
											<groupindex>1</groupindex>
										</link>
										<link>
											<linkclipref>clipitem-84</linkclipref>
											<mediatype>audio</mediatype>
											<trackindex>2</trackindex>
											<clipindex>1</clipindex>
											<groupindex>1</groupindex>
										</link>
										<subclipinfo>
											<startoffset>48700</startoffset>
											<endoffset>14591</endoffset>
										</subclipinfo>
									</clipitem>
								</track>
							</video>
							<audio>
								<track>
									<clipitem id="clipitem-83">
										<masterclipid>masterclip-28</masterclipid>
										<name>a22</name>
										<duration>849</duration>
										<rate>
											<timebase>59</timebase>
											<ntsc>FALSE</ntsc>
										</rate>
										<file id="file-28"/>
										<sourcetrack>
											<mediatype>audio</mediatype>
											<trackindex>1</trackindex>
										</sourcetrack>
										<link>
											<linkclipref>clipitem-82</linkclipref>
											<mediatype>video</mediatype>
											<trackindex>1</trackindex>
											<clipindex>1</clipindex>
										</link>
										<link>
											<linkclipref>clipitem-83</linkclipref>
											<mediatype>audio</mediatype>
											<trackindex>1</trackindex>
											<clipindex>1</clipindex>
											<groupindex>1</groupindex>
										</link>
										<link>
											<linkclipref>clipitem-84</linkclipref>
											<mediatype>audio</mediatype>
											<trackindex>2</trackindex>
											<clipindex>1</clipindex>
											<groupindex>1</groupindex>
										</link>
										<subclipinfo>
											<startoffset>48700</startoffset>
											<endoffset>14591</endoffset>
										</subclipinfo>
									</clipitem>
								</track>
								<track>
									<clipitem id="clipitem-84">
										<masterclipid>masterclip-28</masterclipid>
										<name>a22</name>
										<duration>849</duration>
										<rate>
											<timebase>59</timebase>
											<ntsc>FALSE</ntsc>
										</rate>
										<file id="file-28"/>
										<sourcetrack>
											<mediatype>audio</mediatype>
											<trackindex>2</trackindex>
										</sourcetrack>
										<link>
											<linkclipref>clipitem-82</linkclipref>
											<mediatype>video</mediatype>
											<trackindex>1</trackindex>
											<clipindex>1</clipindex>
										</link>
										<link>
											<linkclipref>clipitem-83</linkclipref>
											<mediatype>audio</mediatype>
											<trackindex>1</trackindex>
											<clipindex>1</clipindex>
											<groupindex>1</groupindex>
										</link>
										<link>
											<linkclipref>clipitem-84</linkclipref>
											<mediatype>audio</mediatype>
											<trackindex>2</trackindex>
											<clipindex>1</clipindex>
											<groupindex>1</groupindex>
										</link>
										<subclipinfo>
											<startoffset>48700</startoffset>
											<endoffset>14591</endoffset>
										</subclipinfo>
									</clipitem>
								</track>
							</audio>
						</media>
						<logginginfo>
							<description></description>
							<scene></scene>
							<shottake></shottake>
							<lognote></lognote>
							<good></good>
							<originalvideofilename></originalvideofilename>
							<originalaudiofilename></originalaudiofilename>
						</logginginfo>
						<colorinfo>
							<lut></lut>
							<lut1></lut1>
							<asc_sop></asc_sop>
							<asc_sat></asc_sat>
							<lut2></lut2>
						</colorinfo>
						<labels>
							<label2>Iris</label2>
						</labels>
					</clip>
					<clip id="masterclip-29" explodedTracks="true">
						<uuid>84602d27-5138-4974-bbf9-74f436283736</uuid>
						<masterclipid>masterclip-29</masterclipid>
						<ismasterclip>TRUE</ismasterclip>
						<duration>64140</duration>
						<rate>
							<timebase>59</timebase>
							<ntsc>FALSE</ntsc>
						</rate>
						<in>52674</in>
						<out>53262</out>
						<name>a23</name>
						<media>
							<video>
								<track>
									<clipitem id="clipitem-85">
										<masterclipid>masterclip-29</masterclipid>
										<name>a23</name>
										<duration>588</duration>
										<rate>
											<timebase>59</timebase>
											<ntsc>FALSE</ntsc>
										</rate>
										<alphatype>none</alphatype>
										<pixelaspectratio>square</pixelaspectratio>
										<anamorphic>FALSE</anamorphic>
										<file id="file-29">
											<name>20211013_073159.mp4</name>
											<pathurl>file://localhost/P%3a/climbing/20211013_073159.mp4</pathurl>
											<rate>
												<timebase>59</timebase>
												<ntsc>FALSE</ntsc>
											</rate>
											<duration>64140</duration>
											<timecode>
												<rate>
													<timebase>59</timebase>
													<ntsc>FALSE</ntsc>
												</rate>
												<string>00:00:00:00</string>
												<frame>0</frame>
												<displayformat>NDF</displayformat>
											</timecode>
											<media>
												<video>
													<samplecharacteristics>
														<rate>
															<timebase>59</timebase>
															<ntsc>FALSE</ntsc>
														</rate>
														<width>1920</width>
														<height>1080</height>
														<anamorphic>FALSE</anamorphic>
														<pixelaspectratio>square</pixelaspectratio>
														<fielddominance>none</fielddominance>
													</samplecharacteristics>
												</video>
												<audio>
													<samplecharacteristics>
														<depth>16</depth>
														<samplerate>48000</samplerate>
													</samplecharacteristics>
													<channelcount>2</channelcount>
												</audio>
											</media>
										</file>
										<link>
											<linkclipref>clipitem-85</linkclipref>
											<mediatype>video</mediatype>
											<trackindex>1</trackindex>
											<clipindex>1</clipindex>
										</link>
										<link>
											<linkclipref>clipitem-86</linkclipref>
											<mediatype>audio</mediatype>
											<trackindex>1</trackindex>
											<clipindex>1</clipindex>
											<groupindex>1</groupindex>
										</link>
										<link>
											<linkclipref>clipitem-87</linkclipref>
											<mediatype>audio</mediatype>
											<trackindex>2</trackindex>
											<clipindex>1</clipindex>
											<groupindex>1</groupindex>
										</link>
										<subclipinfo>
											<startoffset>52674</startoffset>
											<endoffset>10878</endoffset>
										</subclipinfo>
									</clipitem>
								</track>
							</video>
							<audio>
								<track>
									<clipitem id="clipitem-86">
										<masterclipid>masterclip-29</masterclipid>
										<name>a23</name>
										<duration>588</duration>
										<rate>
											<timebase>59</timebase>
											<ntsc>FALSE</ntsc>
										</rate>
										<file id="file-29"/>
										<sourcetrack>
											<mediatype>audio</mediatype>
											<trackindex>1</trackindex>
										</sourcetrack>
										<link>
											<linkclipref>clipitem-85</linkclipref>
											<mediatype>video</mediatype>
											<trackindex>1</trackindex>
											<clipindex>1</clipindex>
										</link>
										<link>
											<linkclipref>clipitem-86</linkclipref>
											<mediatype>audio</mediatype>
											<trackindex>1</trackindex>
											<clipindex>1</clipindex>
											<groupindex>1</groupindex>
										</link>
										<link>
											<linkclipref>clipitem-87</linkclipref>
											<mediatype>audio</mediatype>
											<trackindex>2</trackindex>
											<clipindex>1</clipindex>
											<groupindex>1</groupindex>
										</link>
										<subclipinfo>
											<startoffset>52674</startoffset>
											<endoffset>10878</endoffset>
										</subclipinfo>
									</clipitem>
								</track>
								<track>
									<clipitem id="clipitem-87">
										<masterclipid>masterclip-29</masterclipid>
										<name>a23</name>
										<duration>588</duration>
										<rate>
											<timebase>59</timebase>
											<ntsc>FALSE</ntsc>
										</rate>
										<file id="file-29"/>
										<sourcetrack>
											<mediatype>audio</mediatype>
											<trackindex>2</trackindex>
										</sourcetrack>
										<link>
											<linkclipref>clipitem-85</linkclipref>
											<mediatype>video</mediatype>
											<trackindex>1</trackindex>
											<clipindex>1</clipindex>
										</link>
										<link>
											<linkclipref>clipitem-86</linkclipref>
											<mediatype>audio</mediatype>
											<trackindex>1</trackindex>
											<clipindex>1</clipindex>
											<groupindex>1</groupindex>
										</link>
										<link>
											<linkclipref>clipitem-87</linkclipref>
											<mediatype>audio</mediatype>
											<trackindex>2</trackindex>
											<clipindex>1</clipindex>
											<groupindex>1</groupindex>
										</link>
										<subclipinfo>
											<startoffset>52674</startoffset>
											<endoffset>10878</endoffset>
										</subclipinfo>
									</clipitem>
								</track>
							</audio>
						</media>
						<logginginfo>
							<description></description>
							<scene></scene>
							<shottake></shottake>
							<lognote></lognote>
							<good></good>
							<originalvideofilename></originalvideofilename>
							<originalaudiofilename></originalaudiofilename>
						</logginginfo>
						<colorinfo>
							<lut></lut>
							<lut1></lut1>
							<asc_sop></asc_sop>
							<asc_sat></asc_sat>
							<lut2></lut2>
						</colorinfo>
						<labels>
							<label2>Iris</label2>
						</labels>
					</clip>
					<clip id="masterclip-30" explodedTracks="true">
						<uuid>c3ffbd4f-77f9-49e4-80aa-282f1c02f61a</uuid>
						<masterclipid>masterclip-30</masterclipid>
						<ismasterclip>TRUE</ismasterclip>
						<duration>64140</duration>
						<rate>
							<timebase>59</timebase>
							<ntsc>FALSE</ntsc>
						</rate>
						<in>53442</in>
						<out>54020</out>
						<name>a24</name>
						<media>
							<video>
								<track>
									<clipitem id="clipitem-88">
										<masterclipid>masterclip-30</masterclipid>
										<name>a24</name>
										<duration>578</duration>
										<rate>
											<timebase>59</timebase>
											<ntsc>FALSE</ntsc>
										</rate>
										<alphatype>none</alphatype>
										<pixelaspectratio>square</pixelaspectratio>
										<anamorphic>FALSE</anamorphic>
										<file id="file-30">
											<name>20211013_073159.mp4</name>
											<pathurl>file://localhost/P%3a/climbing/20211013_073159.mp4</pathurl>
											<rate>
												<timebase>59</timebase>
												<ntsc>FALSE</ntsc>
											</rate>
											<duration>64140</duration>
											<timecode>
												<rate>
													<timebase>59</timebase>
													<ntsc>FALSE</ntsc>
												</rate>
												<string>00:00:00:00</string>
												<frame>0</frame>
												<displayformat>NDF</displayformat>
											</timecode>
											<media>
												<video>
													<samplecharacteristics>
														<rate>
															<timebase>59</timebase>
															<ntsc>FALSE</ntsc>
														</rate>
														<width>1920</width>
														<height>1080</height>
														<anamorphic>FALSE</anamorphic>
														<pixelaspectratio>square</pixelaspectratio>
														<fielddominance>none</fielddominance>
													</samplecharacteristics>
												</video>
												<audio>
													<samplecharacteristics>
														<depth>16</depth>
														<samplerate>48000</samplerate>
													</samplecharacteristics>
													<channelcount>2</channelcount>
												</audio>
											</media>
										</file>
										<link>
											<linkclipref>clipitem-88</linkclipref>
											<mediatype>video</mediatype>
											<trackindex>1</trackindex>
											<clipindex>1</clipindex>
										</link>
										<link>
											<linkclipref>clipitem-89</linkclipref>
											<mediatype>audio</mediatype>
											<trackindex>1</trackindex>
											<clipindex>1</clipindex>
											<groupindex>1</groupindex>
										</link>
										<link>
											<linkclipref>clipitem-90</linkclipref>
											<mediatype>audio</mediatype>
											<trackindex>2</trackindex>
											<clipindex>1</clipindex>
											<groupindex>1</groupindex>
										</link>
										<subclipinfo>
											<startoffset>53442</startoffset>
											<endoffset>10120</endoffset>
										</subclipinfo>
									</clipitem>
								</track>
							</video>
							<audio>
								<track>
									<clipitem id="clipitem-89">
										<masterclipid>masterclip-30</masterclipid>
										<name>a24</name>
										<duration>578</duration>
										<rate>
											<timebase>59</timebase>
											<ntsc>FALSE</ntsc>
										</rate>
										<file id="file-30"/>
										<sourcetrack>
											<mediatype>audio</mediatype>
											<trackindex>1</trackindex>
										</sourcetrack>
										<link>
											<linkclipref>clipitem-88</linkclipref>
											<mediatype>video</mediatype>
											<trackindex>1</trackindex>
											<clipindex>1</clipindex>
										</link>
										<link>
											<linkclipref>clipitem-89</linkclipref>
											<mediatype>audio</mediatype>
											<trackindex>1</trackindex>
											<clipindex>1</clipindex>
											<groupindex>1</groupindex>
										</link>
										<link>
											<linkclipref>clipitem-90</linkclipref>
											<mediatype>audio</mediatype>
											<trackindex>2</trackindex>
											<clipindex>1</clipindex>
											<groupindex>1</groupindex>
										</link>
										<subclipinfo>
											<startoffset>53442</startoffset>
											<endoffset>10120</endoffset>
										</subclipinfo>
									</clipitem>
								</track>
								<track>
									<clipitem id="clipitem-90">
										<masterclipid>masterclip-30</masterclipid>
										<name>a24</name>
										<duration>578</duration>
										<rate>
											<timebase>59</timebase>
											<ntsc>FALSE</ntsc>
										</rate>
										<file id="file-30"/>
										<sourcetrack>
											<mediatype>audio</mediatype>
											<trackindex>2</trackindex>
										</sourcetrack>
										<link>
											<linkclipref>clipitem-88</linkclipref>
											<mediatype>video</mediatype>
											<trackindex>1</trackindex>
											<clipindex>1</clipindex>
										</link>
										<link>
											<linkclipref>clipitem-89</linkclipref>
											<mediatype>audio</mediatype>
											<trackindex>1</trackindex>
											<clipindex>1</clipindex>
											<groupindex>1</groupindex>
										</link>
										<link>
											<linkclipref>clipitem-90</linkclipref>
											<mediatype>audio</mediatype>
											<trackindex>2</trackindex>
											<clipindex>1</clipindex>
											<groupindex>1</groupindex>
										</link>
										<subclipinfo>
											<startoffset>53442</startoffset>
											<endoffset>10120</endoffset>
										</subclipinfo>
									</clipitem>
								</track>
							</audio>
						</media>
						<logginginfo>
							<description></description>
							<scene></scene>
							<shottake></shottake>
							<lognote></lognote>
							<good></good>
							<originalvideofilename></originalvideofilename>
							<originalaudiofilename></originalaudiofilename>
						</logginginfo>
						<colorinfo>
							<lut></lut>
							<lut1></lut1>
							<asc_sop></asc_sop>
							<asc_sat></asc_sat>
							<lut2></lut2>
						</colorinfo>
						<labels>
							<label2>Iris</label2>
						</labels>
					</clip>
					<clip id="masterclip-31" explodedTracks="true">
						<uuid>7b2d67cc-c4e6-4437-81e3-df8f56774274</uuid>
						<masterclipid>masterclip-31</masterclipid>
						<ismasterclip>TRUE</ismasterclip>
						<duration>64140</duration>
						<rate>
							<timebase>59</timebase>
							<ntsc>FALSE</ntsc>
						</rate>
						<in>54987</in>
						<out>55818</out>
						<name>a25</name>
						<media>
							<video>
								<track>
									<clipitem id="clipitem-91">
										<masterclipid>masterclip-31</masterclipid>
										<name>a25</name>
										<duration>831</duration>
										<rate>
											<timebase>59</timebase>
											<ntsc>FALSE</ntsc>
										</rate>
										<alphatype>none</alphatype>
										<pixelaspectratio>square</pixelaspectratio>
										<anamorphic>FALSE</anamorphic>
										<file id="file-31">
											<name>20211013_073159.mp4</name>
											<pathurl>file://localhost/P%3a/climbing/20211013_073159.mp4</pathurl>
											<rate>
												<timebase>59</timebase>
												<ntsc>FALSE</ntsc>
											</rate>
											<duration>64140</duration>
											<timecode>
												<rate>
													<timebase>59</timebase>
													<ntsc>FALSE</ntsc>
												</rate>
												<string>00:00:00:00</string>
												<frame>0</frame>
												<displayformat>NDF</displayformat>
											</timecode>
											<media>
												<video>
													<samplecharacteristics>
														<rate>
															<timebase>59</timebase>
															<ntsc>FALSE</ntsc>
														</rate>
														<width>1920</width>
														<height>1080</height>
														<anamorphic>FALSE</anamorphic>
														<pixelaspectratio>square</pixelaspectratio>
														<fielddominance>none</fielddominance>
													</samplecharacteristics>
												</video>
												<audio>
													<samplecharacteristics>
														<depth>16</depth>
														<samplerate>48000</samplerate>
													</samplecharacteristics>
													<channelcount>2</channelcount>
												</audio>
											</media>
										</file>
										<link>
											<linkclipref>clipitem-91</linkclipref>
											<mediatype>video</mediatype>
											<trackindex>1</trackindex>
											<clipindex>1</clipindex>
										</link>
										<link>
											<linkclipref>clipitem-92</linkclipref>
											<mediatype>audio</mediatype>
											<trackindex>1</trackindex>
											<clipindex>1</clipindex>
											<groupindex>1</groupindex>
										</link>
										<link>
											<linkclipref>clipitem-93</linkclipref>
											<mediatype>audio</mediatype>
											<trackindex>2</trackindex>
											<clipindex>1</clipindex>
											<groupindex>1</groupindex>
										</link>
										<subclipinfo>
											<startoffset>54987</startoffset>
											<endoffset>8322</endoffset>
										</subclipinfo>
									</clipitem>
								</track>
							</video>
							<audio>
								<track>
									<clipitem id="clipitem-92">
										<masterclipid>masterclip-31</masterclipid>
										<name>a25</name>
										<duration>831</duration>
										<rate>
											<timebase>59</timebase>
											<ntsc>FALSE</ntsc>
										</rate>
										<file id="file-31"/>
										<sourcetrack>
											<mediatype>audio</mediatype>
											<trackindex>1</trackindex>
										</sourcetrack>
										<link>
											<linkclipref>clipitem-91</linkclipref>
											<mediatype>video</mediatype>
											<trackindex>1</trackindex>
											<clipindex>1</clipindex>
										</link>
										<link>
											<linkclipref>clipitem-92</linkclipref>
											<mediatype>audio</mediatype>
											<trackindex>1</trackindex>
											<clipindex>1</clipindex>
											<groupindex>1</groupindex>
										</link>
										<link>
											<linkclipref>clipitem-93</linkclipref>
											<mediatype>audio</mediatype>
											<trackindex>2</trackindex>
											<clipindex>1</clipindex>
											<groupindex>1</groupindex>
										</link>
										<subclipinfo>
											<startoffset>54987</startoffset>
											<endoffset>8322</endoffset>
										</subclipinfo>
									</clipitem>
								</track>
								<track>
									<clipitem id="clipitem-93">
										<masterclipid>masterclip-31</masterclipid>
										<name>a25</name>
										<duration>831</duration>
										<rate>
											<timebase>59</timebase>
											<ntsc>FALSE</ntsc>
										</rate>
										<file id="file-31"/>
										<sourcetrack>
											<mediatype>audio</mediatype>
											<trackindex>2</trackindex>
										</sourcetrack>
										<link>
											<linkclipref>clipitem-91</linkclipref>
											<mediatype>video</mediatype>
											<trackindex>1</trackindex>
											<clipindex>1</clipindex>
										</link>
										<link>
											<linkclipref>clipitem-92</linkclipref>
											<mediatype>audio</mediatype>
											<trackindex>1</trackindex>
											<clipindex>1</clipindex>
											<groupindex>1</groupindex>
										</link>
										<link>
											<linkclipref>clipitem-93</linkclipref>
											<mediatype>audio</mediatype>
											<trackindex>2</trackindex>
											<clipindex>1</clipindex>
											<groupindex>1</groupindex>
										</link>
										<subclipinfo>
											<startoffset>54987</startoffset>
											<endoffset>8322</endoffset>
										</subclipinfo>
									</clipitem>
								</track>
							</audio>
						</media>
						<logginginfo>
							<description></description>
							<scene></scene>
							<shottake></shottake>
							<lognote></lognote>
							<good></good>
							<originalvideofilename></originalvideofilename>
							<originalaudiofilename></originalaudiofilename>
						</logginginfo>
						<colorinfo>
							<lut></lut>
							<lut1></lut1>
							<asc_sop></asc_sop>
							<asc_sat></asc_sat>
							<lut2></lut2>
						</colorinfo>
						<labels>
							<label2>Iris</label2>
						</labels>
					</clip>
					<clip id="masterclip-32" explodedTracks="true">
						<uuid>7f67703a-d4f8-496d-992b-cb7fd9c17d46</uuid>
						<masterclipid>masterclip-32</masterclipid>
						<ismasterclip>TRUE</ismasterclip>
						<duration>64140</duration>
						<rate>
							<timebase>59</timebase>
							<ntsc>FALSE</ntsc>
						</rate>
						<in>56598</in>
						<out>57295</out>
						<name>a26</name>
						<media>
							<video>
								<track>
									<clipitem id="clipitem-94">
										<masterclipid>masterclip-32</masterclipid>
										<name>a26</name>
										<duration>697</duration>
										<rate>
											<timebase>59</timebase>
											<ntsc>FALSE</ntsc>
										</rate>
										<alphatype>none</alphatype>
										<pixelaspectratio>square</pixelaspectratio>
										<anamorphic>FALSE</anamorphic>
										<file id="file-32">
											<name>20211013_073159.mp4</name>
											<pathurl>file://localhost/P%3a/climbing/20211013_073159.mp4</pathurl>
											<rate>
												<timebase>59</timebase>
												<ntsc>FALSE</ntsc>
											</rate>
											<duration>64140</duration>
											<timecode>
												<rate>
													<timebase>59</timebase>
													<ntsc>FALSE</ntsc>
												</rate>
												<string>00:00:00:00</string>
												<frame>0</frame>
												<displayformat>NDF</displayformat>
											</timecode>
											<media>
												<video>
													<samplecharacteristics>
														<rate>
															<timebase>59</timebase>
															<ntsc>FALSE</ntsc>
														</rate>
														<width>1920</width>
														<height>1080</height>
														<anamorphic>FALSE</anamorphic>
														<pixelaspectratio>square</pixelaspectratio>
														<fielddominance>none</fielddominance>
													</samplecharacteristics>
												</video>
												<audio>
													<samplecharacteristics>
														<depth>16</depth>
														<samplerate>48000</samplerate>
													</samplecharacteristics>
													<channelcount>2</channelcount>
												</audio>
											</media>
										</file>
										<link>
											<linkclipref>clipitem-94</linkclipref>
											<mediatype>video</mediatype>
											<trackindex>1</trackindex>
											<clipindex>1</clipindex>
										</link>
										<link>
											<linkclipref>clipitem-95</linkclipref>
											<mediatype>audio</mediatype>
											<trackindex>1</trackindex>
											<clipindex>1</clipindex>
											<groupindex>1</groupindex>
										</link>
										<link>
											<linkclipref>clipitem-96</linkclipref>
											<mediatype>audio</mediatype>
											<trackindex>2</trackindex>
											<clipindex>1</clipindex>
											<groupindex>1</groupindex>
										</link>
										<subclipinfo>
											<startoffset>56598</startoffset>
											<endoffset>6845</endoffset>
										</subclipinfo>
									</clipitem>
								</track>
							</video>
							<audio>
								<track>
									<clipitem id="clipitem-95">
										<masterclipid>masterclip-32</masterclipid>
										<name>a26</name>
										<duration>697</duration>
										<rate>
											<timebase>59</timebase>
											<ntsc>FALSE</ntsc>
										</rate>
										<file id="file-32"/>
										<sourcetrack>
											<mediatype>audio</mediatype>
											<trackindex>1</trackindex>
										</sourcetrack>
										<link>
											<linkclipref>clipitem-94</linkclipref>
											<mediatype>video</mediatype>
											<trackindex>1</trackindex>
											<clipindex>1</clipindex>
										</link>
										<link>
											<linkclipref>clipitem-95</linkclipref>
											<mediatype>audio</mediatype>
											<trackindex>1</trackindex>
											<clipindex>1</clipindex>
											<groupindex>1</groupindex>
										</link>
										<link>
											<linkclipref>clipitem-96</linkclipref>
											<mediatype>audio</mediatype>
											<trackindex>2</trackindex>
											<clipindex>1</clipindex>
											<groupindex>1</groupindex>
										</link>
										<subclipinfo>
											<startoffset>56598</startoffset>
											<endoffset>6845</endoffset>
										</subclipinfo>
									</clipitem>
								</track>
								<track>
									<clipitem id="clipitem-96">
										<masterclipid>masterclip-32</masterclipid>
										<name>a26</name>
										<duration>697</duration>
										<rate>
											<timebase>59</timebase>
											<ntsc>FALSE</ntsc>
										</rate>
										<file id="file-32"/>
										<sourcetrack>
											<mediatype>audio</mediatype>
											<trackindex>2</trackindex>
										</sourcetrack>
										<link>
											<linkclipref>clipitem-94</linkclipref>
											<mediatype>video</mediatype>
											<trackindex>1</trackindex>
											<clipindex>1</clipindex>
										</link>
										<link>
											<linkclipref>clipitem-95</linkclipref>
											<mediatype>audio</mediatype>
											<trackindex>1</trackindex>
											<clipindex>1</clipindex>
											<groupindex>1</groupindex>
										</link>
										<link>
											<linkclipref>clipitem-96</linkclipref>
											<mediatype>audio</mediatype>
											<trackindex>2</trackindex>
											<clipindex>1</clipindex>
											<groupindex>1</groupindex>
										</link>
										<subclipinfo>
											<startoffset>56598</startoffset>
											<endoffset>6845</endoffset>
										</subclipinfo>
									</clipitem>
								</track>
							</audio>
						</media>
						<logginginfo>
							<description></description>
							<scene></scene>
							<shottake></shottake>
							<lognote></lognote>
							<good></good>
							<originalvideofilename></originalvideofilename>
							<originalaudiofilename></originalaudiofilename>
						</logginginfo>
						<colorinfo>
							<lut></lut>
							<lut1></lut1>
							<asc_sop></asc_sop>
							<asc_sat></asc_sat>
							<lut2></lut2>
						</colorinfo>
						<labels>
							<label2>Iris</label2>
						</labels>
					</clip>
					<clip id="masterclip-33" explodedTracks="true">
						<uuid>d485e15a-1e2a-436a-9501-c68248a48452</uuid>
						<masterclipid>masterclip-33</masterclipid>
						<ismasterclip>TRUE</ismasterclip>
						<duration>64140</duration>
						<rate>
							<timebase>59</timebase>
							<ntsc>FALSE</ntsc>
						</rate>
						<in>58317</in>
						<out>59039</out>
						<name>a27</name>
						<media>
							<video>
								<track>
									<clipitem id="clipitem-97">
										<masterclipid>masterclip-33</masterclipid>
										<name>a27</name>
										<duration>722</duration>
										<rate>
											<timebase>59</timebase>
											<ntsc>FALSE</ntsc>
										</rate>
										<alphatype>none</alphatype>
										<pixelaspectratio>square</pixelaspectratio>
										<anamorphic>FALSE</anamorphic>
										<file id="file-33">
											<name>20211013_073159.mp4</name>
											<pathurl>file://localhost/P%3a/climbing/20211013_073159.mp4</pathurl>
											<rate>
												<timebase>59</timebase>
												<ntsc>FALSE</ntsc>
											</rate>
											<duration>64140</duration>
											<timecode>
												<rate>
													<timebase>59</timebase>
													<ntsc>FALSE</ntsc>
												</rate>
												<string>00:00:00:00</string>
												<frame>0</frame>
												<displayformat>NDF</displayformat>
											</timecode>
											<media>
												<video>
													<samplecharacteristics>
														<rate>
															<timebase>59</timebase>
															<ntsc>FALSE</ntsc>
														</rate>
														<width>1920</width>
														<height>1080</height>
														<anamorphic>FALSE</anamorphic>
														<pixelaspectratio>square</pixelaspectratio>
														<fielddominance>none</fielddominance>
													</samplecharacteristics>
												</video>
												<audio>
													<samplecharacteristics>
														<depth>16</depth>
														<samplerate>48000</samplerate>
													</samplecharacteristics>
													<channelcount>2</channelcount>
												</audio>
											</media>
										</file>
										<link>
											<linkclipref>clipitem-97</linkclipref>
											<mediatype>video</mediatype>
											<trackindex>1</trackindex>
											<clipindex>1</clipindex>
										</link>
										<link>
											<linkclipref>clipitem-98</linkclipref>
											<mediatype>audio</mediatype>
											<trackindex>1</trackindex>
											<clipindex>1</clipindex>
											<groupindex>1</groupindex>
										</link>
										<link>
											<linkclipref>clipitem-99</linkclipref>
											<mediatype>audio</mediatype>
											<trackindex>2</trackindex>
											<clipindex>1</clipindex>
											<groupindex>1</groupindex>
										</link>
										<subclipinfo>
											<startoffset>58317</startoffset>
											<endoffset>5101</endoffset>
										</subclipinfo>
									</clipitem>
								</track>
							</video>
							<audio>
								<track>
									<clipitem id="clipitem-98">
										<masterclipid>masterclip-33</masterclipid>
										<name>a27</name>
										<duration>722</duration>
										<rate>
											<timebase>59</timebase>
											<ntsc>FALSE</ntsc>
										</rate>
										<file id="file-33"/>
										<sourcetrack>
											<mediatype>audio</mediatype>
											<trackindex>1</trackindex>
										</sourcetrack>
										<link>
											<linkclipref>clipitem-97</linkclipref>
											<mediatype>video</mediatype>
											<trackindex>1</trackindex>
											<clipindex>1</clipindex>
										</link>
										<link>
											<linkclipref>clipitem-98</linkclipref>
											<mediatype>audio</mediatype>
											<trackindex>1</trackindex>
											<clipindex>1</clipindex>
											<groupindex>1</groupindex>
										</link>
										<link>
											<linkclipref>clipitem-99</linkclipref>
											<mediatype>audio</mediatype>
											<trackindex>2</trackindex>
											<clipindex>1</clipindex>
											<groupindex>1</groupindex>
										</link>
										<subclipinfo>
											<startoffset>58317</startoffset>
											<endoffset>5101</endoffset>
										</subclipinfo>
									</clipitem>
								</track>
								<track>
									<clipitem id="clipitem-99">
										<masterclipid>masterclip-33</masterclipid>
										<name>a27</name>
										<duration>722</duration>
										<rate>
											<timebase>59</timebase>
											<ntsc>FALSE</ntsc>
										</rate>
										<file id="file-33"/>
										<sourcetrack>
											<mediatype>audio</mediatype>
											<trackindex>2</trackindex>
										</sourcetrack>
										<link>
											<linkclipref>clipitem-97</linkclipref>
											<mediatype>video</mediatype>
											<trackindex>1</trackindex>
											<clipindex>1</clipindex>
										</link>
										<link>
											<linkclipref>clipitem-98</linkclipref>
											<mediatype>audio</mediatype>
											<trackindex>1</trackindex>
											<clipindex>1</clipindex>
											<groupindex>1</groupindex>
										</link>
										<link>
											<linkclipref>clipitem-99</linkclipref>
											<mediatype>audio</mediatype>
											<trackindex>2</trackindex>
											<clipindex>1</clipindex>
											<groupindex>1</groupindex>
										</link>
										<subclipinfo>
											<startoffset>58317</startoffset>
											<endoffset>5101</endoffset>
										</subclipinfo>
									</clipitem>
								</track>
							</audio>
						</media>
						<logginginfo>
							<description></description>
							<scene></scene>
							<shottake></shottake>
							<lognote></lognote>
							<good></good>
							<originalvideofilename></originalvideofilename>
							<originalaudiofilename></originalaudiofilename>
						</logginginfo>
						<colorinfo>
							<lut></lut>
							<lut1></lut1>
							<asc_sop></asc_sop>
							<asc_sat></asc_sat>
							<lut2></lut2>
						</colorinfo>
						<labels>
							<label2>Iris</label2>
						</labels>
					</clip>
					<clip id="masterclip-34" explodedTracks="true">
						<uuid>458382d0-47d9-4d87-8330-475e5d6fcc98</uuid>
						<masterclipid>masterclip-34</masterclipid>
						<ismasterclip>TRUE</ismasterclip>
						<duration>64140</duration>
						<rate>
							<timebase>59</timebase>
							<ntsc>FALSE</ntsc>
						</rate>
						<in>59680</in>
						<out>60490</out>
						<name>a28</name>
						<media>
							<video>
								<track>
									<clipitem id="clipitem-100">
										<masterclipid>masterclip-34</masterclipid>
										<name>a28</name>
										<duration>810</duration>
										<rate>
											<timebase>59</timebase>
											<ntsc>FALSE</ntsc>
										</rate>
										<alphatype>none</alphatype>
										<pixelaspectratio>square</pixelaspectratio>
										<anamorphic>FALSE</anamorphic>
										<file id="file-34">
											<name>20211013_073159.mp4</name>
											<pathurl>file://localhost/P%3a/climbing/20211013_073159.mp4</pathurl>
											<rate>
												<timebase>59</timebase>
												<ntsc>FALSE</ntsc>
											</rate>
											<duration>64140</duration>
											<timecode>
												<rate>
													<timebase>59</timebase>
													<ntsc>FALSE</ntsc>
												</rate>
												<string>00:00:00:00</string>
												<frame>0</frame>
												<displayformat>NDF</displayformat>
											</timecode>
											<media>
												<video>
													<samplecharacteristics>
														<rate>
															<timebase>59</timebase>
															<ntsc>FALSE</ntsc>
														</rate>
														<width>1920</width>
														<height>1080</height>
														<anamorphic>FALSE</anamorphic>
														<pixelaspectratio>square</pixelaspectratio>
														<fielddominance>none</fielddominance>
													</samplecharacteristics>
												</video>
												<audio>
													<samplecharacteristics>
														<depth>16</depth>
														<samplerate>48000</samplerate>
													</samplecharacteristics>
													<channelcount>2</channelcount>
												</audio>
											</media>
										</file>
										<link>
											<linkclipref>clipitem-100</linkclipref>
											<mediatype>video</mediatype>
											<trackindex>1</trackindex>
											<clipindex>1</clipindex>
										</link>
										<link>
											<linkclipref>clipitem-101</linkclipref>
											<mediatype>audio</mediatype>
											<trackindex>1</trackindex>
											<clipindex>1</clipindex>
											<groupindex>1</groupindex>
										</link>
										<link>
											<linkclipref>clipitem-102</linkclipref>
											<mediatype>audio</mediatype>
											<trackindex>2</trackindex>
											<clipindex>1</clipindex>
											<groupindex>1</groupindex>
										</link>
										<subclipinfo>
											<startoffset>59680</startoffset>
											<endoffset>3650</endoffset>
										</subclipinfo>
									</clipitem>
								</track>
							</video>
							<audio>
								<track>
									<clipitem id="clipitem-101">
										<masterclipid>masterclip-34</masterclipid>
										<name>a28</name>
										<duration>810</duration>
										<rate>
											<timebase>59</timebase>
											<ntsc>FALSE</ntsc>
										</rate>
										<file id="file-34"/>
										<sourcetrack>
											<mediatype>audio</mediatype>
											<trackindex>1</trackindex>
										</sourcetrack>
										<link>
											<linkclipref>clipitem-100</linkclipref>
											<mediatype>video</mediatype>
											<trackindex>1</trackindex>
											<clipindex>1</clipindex>
										</link>
										<link>
											<linkclipref>clipitem-101</linkclipref>
											<mediatype>audio</mediatype>
											<trackindex>1</trackindex>
											<clipindex>1</clipindex>
											<groupindex>1</groupindex>
										</link>
										<link>
											<linkclipref>clipitem-102</linkclipref>
											<mediatype>audio</mediatype>
											<trackindex>2</trackindex>
											<clipindex>1</clipindex>
											<groupindex>1</groupindex>
										</link>
										<subclipinfo>
											<startoffset>59680</startoffset>
											<endoffset>3650</endoffset>
										</subclipinfo>
									</clipitem>
								</track>
								<track>
									<clipitem id="clipitem-102">
										<masterclipid>masterclip-34</masterclipid>
										<name>a28</name>
										<duration>810</duration>
										<rate>
											<timebase>59</timebase>
											<ntsc>FALSE</ntsc>
										</rate>
										<file id="file-34"/>
										<sourcetrack>
											<mediatype>audio</mediatype>
											<trackindex>2</trackindex>
										</sourcetrack>
										<link>
											<linkclipref>clipitem-100</linkclipref>
											<mediatype>video</mediatype>
											<trackindex>1</trackindex>
											<clipindex>1</clipindex>
										</link>
										<link>
											<linkclipref>clipitem-101</linkclipref>
											<mediatype>audio</mediatype>
											<trackindex>1</trackindex>
											<clipindex>1</clipindex>
											<groupindex>1</groupindex>
										</link>
										<link>
											<linkclipref>clipitem-102</linkclipref>
											<mediatype>audio</mediatype>
											<trackindex>2</trackindex>
											<clipindex>1</clipindex>
											<groupindex>1</groupindex>
										</link>
										<subclipinfo>
											<startoffset>59680</startoffset>
											<endoffset>3650</endoffset>
										</subclipinfo>
									</clipitem>
								</track>
							</audio>
						</media>
						<logginginfo>
							<description></description>
							<scene></scene>
							<shottake></shottake>
							<lognote></lognote>
							<good></good>
							<originalvideofilename></originalvideofilename>
							<originalaudiofilename></originalaudiofilename>
						</logginginfo>
						<colorinfo>
							<lut></lut>
							<lut1></lut1>
							<asc_sop></asc_sop>
							<asc_sat></asc_sat>
							<lut2></lut2>
						</colorinfo>
						<labels>
							<label2>Iris</label2>
						</labels>
					</clip>
					<clip id="masterclip-35" explodedTracks="true">
						<uuid>e77951ee-5b2f-40e0-a624-892043b879eb</uuid>
						<masterclipid>masterclip-35</masterclipid>
						<ismasterclip>TRUE</ismasterclip>
						<duration>64140</duration>
						<rate>
							<timebase>59</timebase>
							<ntsc>FALSE</ntsc>
						</rate>
						<in>60885</in>
						<out>61842</out>
						<name>a29</name>
						<media>
							<video>
								<track>
									<clipitem id="clipitem-103">
										<masterclipid>masterclip-35</masterclipid>
										<name>a29</name>
										<duration>957</duration>
										<rate>
											<timebase>59</timebase>
											<ntsc>FALSE</ntsc>
										</rate>
										<alphatype>none</alphatype>
										<pixelaspectratio>square</pixelaspectratio>
										<anamorphic>FALSE</anamorphic>
										<file id="file-35">
											<name>20211013_073159.mp4</name>
											<pathurl>file://localhost/P%3a/climbing/20211013_073159.mp4</pathurl>
											<rate>
												<timebase>59</timebase>
												<ntsc>FALSE</ntsc>
											</rate>
											<duration>64140</duration>
											<timecode>
												<rate>
													<timebase>59</timebase>
													<ntsc>FALSE</ntsc>
												</rate>
												<string>00:00:00:00</string>
												<frame>0</frame>
												<displayformat>NDF</displayformat>
											</timecode>
											<media>
												<video>
													<samplecharacteristics>
														<rate>
															<timebase>59</timebase>
															<ntsc>FALSE</ntsc>
														</rate>
														<width>1920</width>
														<height>1080</height>
														<anamorphic>FALSE</anamorphic>
														<pixelaspectratio>square</pixelaspectratio>
														<fielddominance>none</fielddominance>
													</samplecharacteristics>
												</video>
												<audio>
													<samplecharacteristics>
														<depth>16</depth>
														<samplerate>48000</samplerate>
													</samplecharacteristics>
													<channelcount>2</channelcount>
												</audio>
											</media>
										</file>
										<link>
											<linkclipref>clipitem-103</linkclipref>
											<mediatype>video</mediatype>
											<trackindex>1</trackindex>
											<clipindex>1</clipindex>
										</link>
										<link>
											<linkclipref>clipitem-104</linkclipref>
											<mediatype>audio</mediatype>
											<trackindex>1</trackindex>
											<clipindex>1</clipindex>
											<groupindex>1</groupindex>
										</link>
										<link>
											<linkclipref>clipitem-105</linkclipref>
											<mediatype>audio</mediatype>
											<trackindex>2</trackindex>
											<clipindex>1</clipindex>
											<groupindex>1</groupindex>
										</link>
										<subclipinfo>
											<startoffset>60885</startoffset>
											<endoffset>2298</endoffset>
										</subclipinfo>
									</clipitem>
								</track>
							</video>
							<audio>
								<track>
									<clipitem id="clipitem-104">
										<masterclipid>masterclip-35</masterclipid>
										<name>a29</name>
										<duration>957</duration>
										<rate>
											<timebase>59</timebase>
											<ntsc>FALSE</ntsc>
										</rate>
										<file id="file-35"/>
										<sourcetrack>
											<mediatype>audio</mediatype>
											<trackindex>1</trackindex>
										</sourcetrack>
										<link>
											<linkclipref>clipitem-103</linkclipref>
											<mediatype>video</mediatype>
											<trackindex>1</trackindex>
											<clipindex>1</clipindex>
										</link>
										<link>
											<linkclipref>clipitem-104</linkclipref>
											<mediatype>audio</mediatype>
											<trackindex>1</trackindex>
											<clipindex>1</clipindex>
											<groupindex>1</groupindex>
										</link>
										<link>
											<linkclipref>clipitem-105</linkclipref>
											<mediatype>audio</mediatype>
											<trackindex>2</trackindex>
											<clipindex>1</clipindex>
											<groupindex>1</groupindex>
										</link>
										<subclipinfo>
											<startoffset>60885</startoffset>
											<endoffset>2298</endoffset>
										</subclipinfo>
									</clipitem>
								</track>
								<track>
									<clipitem id="clipitem-105">
										<masterclipid>masterclip-35</masterclipid>
										<name>a29</name>
										<duration>957</duration>
										<rate>
											<timebase>59</timebase>
											<ntsc>FALSE</ntsc>
										</rate>
										<file id="file-35"/>
										<sourcetrack>
											<mediatype>audio</mediatype>
											<trackindex>2</trackindex>
										</sourcetrack>
										<link>
											<linkclipref>clipitem-103</linkclipref>
											<mediatype>video</mediatype>
											<trackindex>1</trackindex>
											<clipindex>1</clipindex>
										</link>
										<link>
											<linkclipref>clipitem-104</linkclipref>
											<mediatype>audio</mediatype>
											<trackindex>1</trackindex>
											<clipindex>1</clipindex>
											<groupindex>1</groupindex>
										</link>
										<link>
											<linkclipref>clipitem-105</linkclipref>
											<mediatype>audio</mediatype>
											<trackindex>2</trackindex>
											<clipindex>1</clipindex>
											<groupindex>1</groupindex>
										</link>
										<subclipinfo>
											<startoffset>60885</startoffset>
											<endoffset>2298</endoffset>
										</subclipinfo>
									</clipitem>
								</track>
							</audio>
						</media>
						<logginginfo>
							<description></description>
							<scene></scene>
							<shottake></shottake>
							<lognote></lognote>
							<good></good>
							<originalvideofilename></originalvideofilename>
							<originalaudiofilename></originalaudiofilename>
						</logginginfo>
						<colorinfo>
							<lut></lut>
							<lut1></lut1>
							<asc_sop></asc_sop>
							<asc_sat></asc_sat>
							<lut2></lut2>
						</colorinfo>
						<labels>
							<label2>Iris</label2>
						</labels>
					</clip>
					<clip id="masterclip-36" explodedTracks="true">
						<uuid>d283ed73-4cb9-48d2-9cde-7cbf168e5727</uuid>
						<masterclipid>masterclip-36</masterclipid>
						<ismasterclip>TRUE</ismasterclip>
						<duration>19781</duration>
						<rate>
							<timebase>59</timebase>
							<ntsc>FALSE</ntsc>
						</rate>
						<in>384</in>
						<out>1074</out>
						<name>a01</name>
						<media>
							<video>
								<track>
									<clipitem id="clipitem-106">
										<masterclipid>masterclip-36</masterclipid>
										<name>a01</name>
										<duration>690</duration>
										<rate>
											<timebase>59</timebase>
											<ntsc>FALSE</ntsc>
										</rate>
										<alphatype>none</alphatype>
										<pixelaspectratio>square</pixelaspectratio>
										<anamorphic>FALSE</anamorphic>
										<file id="file-36">
											<name>20211013_072525.mp4</name>
											<pathurl>file://localhost/P%3a/climbing/20211013_072525.mp4</pathurl>
											<rate>
												<timebase>59</timebase>
												<ntsc>FALSE</ntsc>
											</rate>
											<duration>19781</duration>
											<timecode>
												<rate>
													<timebase>59</timebase>
													<ntsc>FALSE</ntsc>
												</rate>
												<string>00:00:00:00</string>
												<frame>0</frame>
												<displayformat>NDF</displayformat>
											</timecode>
											<media>
												<video>
													<samplecharacteristics>
														<rate>
															<timebase>59</timebase>
															<ntsc>FALSE</ntsc>
														</rate>
														<width>1920</width>
														<height>1080</height>
														<anamorphic>FALSE</anamorphic>
														<pixelaspectratio>square</pixelaspectratio>
														<fielddominance>none</fielddominance>
													</samplecharacteristics>
												</video>
												<audio>
													<samplecharacteristics>
														<depth>16</depth>
														<samplerate>48000</samplerate>
													</samplecharacteristics>
													<channelcount>2</channelcount>
												</audio>
											</media>
										</file>
										<link>
											<linkclipref>clipitem-106</linkclipref>
											<mediatype>video</mediatype>
											<trackindex>1</trackindex>
											<clipindex>1</clipindex>
										</link>
										<link>
											<linkclipref>clipitem-107</linkclipref>
											<mediatype>audio</mediatype>
											<trackindex>1</trackindex>
											<clipindex>1</clipindex>
											<groupindex>1</groupindex>
										</link>
										<link>
											<linkclipref>clipitem-108</linkclipref>
											<mediatype>audio</mediatype>
											<trackindex>2</trackindex>
											<clipindex>1</clipindex>
											<groupindex>1</groupindex>
										</link>
										<subclipinfo>
											<startoffset>384</startoffset>
											<endoffset>18707</endoffset>
										</subclipinfo>
									</clipitem>
								</track>
							</video>
							<audio>
								<track>
									<clipitem id="clipitem-107">
										<masterclipid>masterclip-36</masterclipid>
										<name>a01</name>
										<duration>690</duration>
										<rate>
											<timebase>59</timebase>
											<ntsc>FALSE</ntsc>
										</rate>
										<file id="file-36"/>
										<sourcetrack>
											<mediatype>audio</mediatype>
											<trackindex>1</trackindex>
										</sourcetrack>
										<link>
											<linkclipref>clipitem-106</linkclipref>
											<mediatype>video</mediatype>
											<trackindex>1</trackindex>
											<clipindex>1</clipindex>
										</link>
										<link>
											<linkclipref>clipitem-107</linkclipref>
											<mediatype>audio</mediatype>
											<trackindex>1</trackindex>
											<clipindex>1</clipindex>
											<groupindex>1</groupindex>
										</link>
										<link>
											<linkclipref>clipitem-108</linkclipref>
											<mediatype>audio</mediatype>
											<trackindex>2</trackindex>
											<clipindex>1</clipindex>
											<groupindex>1</groupindex>
										</link>
										<subclipinfo>
											<startoffset>384</startoffset>
											<endoffset>18707</endoffset>
										</subclipinfo>
									</clipitem>
								</track>
								<track>
									<clipitem id="clipitem-108">
										<masterclipid>masterclip-36</masterclipid>
										<name>a01</name>
										<duration>690</duration>
										<rate>
											<timebase>59</timebase>
											<ntsc>FALSE</ntsc>
										</rate>
										<file id="file-36"/>
										<sourcetrack>
											<mediatype>audio</mediatype>
											<trackindex>2</trackindex>
										</sourcetrack>
										<link>
											<linkclipref>clipitem-106</linkclipref>
											<mediatype>video</mediatype>
											<trackindex>1</trackindex>
											<clipindex>1</clipindex>
										</link>
										<link>
											<linkclipref>clipitem-107</linkclipref>
											<mediatype>audio</mediatype>
											<trackindex>1</trackindex>
											<clipindex>1</clipindex>
											<groupindex>1</groupindex>
										</link>
										<link>
											<linkclipref>clipitem-108</linkclipref>
											<mediatype>audio</mediatype>
											<trackindex>2</trackindex>
											<clipindex>1</clipindex>
											<groupindex>1</groupindex>
										</link>
										<subclipinfo>
											<startoffset>384</startoffset>
											<endoffset>18707</endoffset>
										</subclipinfo>
									</clipitem>
								</track>
							</audio>
						</media>
							<marker>
								<comment></comment>
								<name></name>
								<in>745</in>
								<out>-1</out>
							</marker>
						<logginginfo>
							<description></description>
							<scene></scene>
							<shottake></shottake>
							<lognote></lognote>
							<good></good>
							<originalvideofilename></originalvideofilename>
							<originalaudiofilename></originalaudiofilename>
						</logginginfo>
						<colorinfo>
							<lut></lut>
							<lut1></lut1>
							<asc_sop></asc_sop>
							<asc_sat></asc_sat>
							<lut2></lut2>
						</colorinfo>
						<labels>
							<label2>Iris</label2>
						</labels>
					</clip>
					<clip id="masterclip-37" explodedTracks="true">
						<uuid>24b8daef-a528-4904-be44-f91b73336afb</uuid>
						<masterclipid>masterclip-37</masterclipid>
						<ismasterclip>TRUE</ismasterclip>
						<duration>19781</duration>
						<rate>
							<timebase>59</timebase>
							<ntsc>FALSE</ntsc>
						</rate>
						<in>1404</in>
						<out>2473</out>
						<name>a02</name>
						<media>
							<video>
								<track>
									<clipitem id="clipitem-109">
										<masterclipid>masterclip-37</masterclipid>
										<name>a02</name>
										<duration>1069</duration>
										<rate>
											<timebase>59</timebase>
											<ntsc>FALSE</ntsc>
										</rate>
										<alphatype>none</alphatype>
										<pixelaspectratio>square</pixelaspectratio>
										<anamorphic>FALSE</anamorphic>
										<file id="file-37">
											<name>20211013_072525.mp4</name>
											<pathurl>file://localhost/P%3a/climbing/20211013_072525.mp4</pathurl>
											<rate>
												<timebase>59</timebase>
												<ntsc>FALSE</ntsc>
											</rate>
											<duration>19781</duration>
											<timecode>
												<rate>
													<timebase>59</timebase>
													<ntsc>FALSE</ntsc>
												</rate>
												<string>00:00:00:00</string>
												<frame>0</frame>
												<displayformat>NDF</displayformat>
											</timecode>
											<media>
												<video>
													<samplecharacteristics>
														<rate>
															<timebase>59</timebase>
															<ntsc>FALSE</ntsc>
														</rate>
														<width>1920</width>
														<height>1080</height>
														<anamorphic>FALSE</anamorphic>
														<pixelaspectratio>square</pixelaspectratio>
														<fielddominance>none</fielddominance>
													</samplecharacteristics>
												</video>
												<audio>
													<samplecharacteristics>
														<depth>16</depth>
														<samplerate>48000</samplerate>
													</samplecharacteristics>
													<channelcount>2</channelcount>
												</audio>
											</media>
										</file>
										<link>
											<linkclipref>clipitem-109</linkclipref>
											<mediatype>video</mediatype>
											<trackindex>1</trackindex>
											<clipindex>1</clipindex>
										</link>
										<link>
											<linkclipref>clipitem-110</linkclipref>
											<mediatype>audio</mediatype>
											<trackindex>1</trackindex>
											<clipindex>1</clipindex>
											<groupindex>1</groupindex>
										</link>
										<link>
											<linkclipref>clipitem-111</linkclipref>
											<mediatype>audio</mediatype>
											<trackindex>2</trackindex>
											<clipindex>1</clipindex>
											<groupindex>1</groupindex>
										</link>
										<subclipinfo>
											<startoffset>1404</startoffset>
											<endoffset>17308</endoffset>
										</subclipinfo>
									</clipitem>
								</track>
							</video>
							<audio>
								<track>
									<clipitem id="clipitem-110">
										<masterclipid>masterclip-37</masterclipid>
										<name>a02</name>
										<duration>1069</duration>
										<rate>
											<timebase>59</timebase>
											<ntsc>FALSE</ntsc>
										</rate>
										<file id="file-37"/>
										<sourcetrack>
											<mediatype>audio</mediatype>
											<trackindex>1</trackindex>
										</sourcetrack>
										<link>
											<linkclipref>clipitem-109</linkclipref>
											<mediatype>video</mediatype>
											<trackindex>1</trackindex>
											<clipindex>1</clipindex>
										</link>
										<link>
											<linkclipref>clipitem-110</linkclipref>
											<mediatype>audio</mediatype>
											<trackindex>1</trackindex>
											<clipindex>1</clipindex>
											<groupindex>1</groupindex>
										</link>
										<link>
											<linkclipref>clipitem-111</linkclipref>
											<mediatype>audio</mediatype>
											<trackindex>2</trackindex>
											<clipindex>1</clipindex>
											<groupindex>1</groupindex>
										</link>
										<subclipinfo>
											<startoffset>1404</startoffset>
											<endoffset>17308</endoffset>
										</subclipinfo>
									</clipitem>
								</track>
								<track>
									<clipitem id="clipitem-111">
										<masterclipid>masterclip-37</masterclipid>
										<name>a02</name>
										<duration>1069</duration>
										<rate>
											<timebase>59</timebase>
											<ntsc>FALSE</ntsc>
										</rate>
										<file id="file-37"/>
										<sourcetrack>
											<mediatype>audio</mediatype>
											<trackindex>2</trackindex>
										</sourcetrack>
										<link>
											<linkclipref>clipitem-109</linkclipref>
											<mediatype>video</mediatype>
											<trackindex>1</trackindex>
											<clipindex>1</clipindex>
										</link>
										<link>
											<linkclipref>clipitem-110</linkclipref>
											<mediatype>audio</mediatype>
											<trackindex>1</trackindex>
											<clipindex>1</clipindex>
											<groupindex>1</groupindex>
										</link>
										<link>
											<linkclipref>clipitem-111</linkclipref>
											<mediatype>audio</mediatype>
											<trackindex>2</trackindex>
											<clipindex>1</clipindex>
											<groupindex>1</groupindex>
										</link>
										<subclipinfo>
											<startoffset>1404</startoffset>
											<endoffset>17308</endoffset>
										</subclipinfo>
									</clipitem>
								</track>
							</audio>
						</media>
							<marker>
								<comment></comment>
								<name></name>
								<in>2246</in>
								<out>-1</out>
							</marker>
						<logginginfo>
							<description></description>
							<scene></scene>
							<shottake></shottake>
							<lognote></lognote>
							<good></good>
							<originalvideofilename></originalvideofilename>
							<originalaudiofilename></originalaudiofilename>
						</logginginfo>
						<colorinfo>
							<lut></lut>
							<lut1></lut1>
							<asc_sop></asc_sop>
							<asc_sat></asc_sat>
							<lut2></lut2>
						</colorinfo>
						<labels>
							<label2>Iris</label2>
						</labels>
					</clip>
					<clip id="masterclip-38" explodedTracks="true">
						<uuid>227703b7-65ad-4e58-be5d-e27c618a247c</uuid>
						<masterclipid>masterclip-38</masterclipid>
						<ismasterclip>TRUE</ismasterclip>
						<duration>19781</duration>
						<rate>
							<timebase>59</timebase>
							<ntsc>FALSE</ntsc>
						</rate>
						<in>3059</in>
						<out>4083</out>
						<name>a03</name>
						<media>
							<video>
								<track>
									<clipitem id="clipitem-112">
										<masterclipid>masterclip-38</masterclipid>
										<name>a03</name>
										<duration>1024</duration>
										<rate>
											<timebase>59</timebase>
											<ntsc>FALSE</ntsc>
										</rate>
										<alphatype>none</alphatype>
										<pixelaspectratio>square</pixelaspectratio>
										<anamorphic>FALSE</anamorphic>
										<file id="file-38">
											<name>20211013_072525.mp4</name>
											<pathurl>file://localhost/P%3a/climbing/20211013_072525.mp4</pathurl>
											<rate>
												<timebase>59</timebase>
												<ntsc>FALSE</ntsc>
											</rate>
											<duration>19781</duration>
											<timecode>
												<rate>
													<timebase>59</timebase>
													<ntsc>FALSE</ntsc>
												</rate>
												<string>00:00:00:00</string>
												<frame>0</frame>
												<displayformat>NDF</displayformat>
											</timecode>
											<media>
												<video>
													<samplecharacteristics>
														<rate>
															<timebase>59</timebase>
															<ntsc>FALSE</ntsc>
														</rate>
														<width>1920</width>
														<height>1080</height>
														<anamorphic>FALSE</anamorphic>
														<pixelaspectratio>square</pixelaspectratio>
														<fielddominance>none</fielddominance>
													</samplecharacteristics>
												</video>
												<audio>
													<samplecharacteristics>
														<depth>16</depth>
														<samplerate>48000</samplerate>
													</samplecharacteristics>
													<channelcount>2</channelcount>
												</audio>
											</media>
										</file>
										<link>
											<linkclipref>clipitem-112</linkclipref>
											<mediatype>video</mediatype>
											<trackindex>1</trackindex>
											<clipindex>1</clipindex>
										</link>
										<link>
											<linkclipref>clipitem-113</linkclipref>
											<mediatype>audio</mediatype>
											<trackindex>1</trackindex>
											<clipindex>1</clipindex>
											<groupindex>1</groupindex>
										</link>
										<link>
											<linkclipref>clipitem-114</linkclipref>
											<mediatype>audio</mediatype>
											<trackindex>2</trackindex>
											<clipindex>1</clipindex>
											<groupindex>1</groupindex>
										</link>
										<subclipinfo>
											<startoffset>3059</startoffset>
											<endoffset>15698</endoffset>
										</subclipinfo>
									</clipitem>
								</track>
							</video>
							<audio>
								<track>
									<clipitem id="clipitem-113">
										<masterclipid>masterclip-38</masterclipid>
										<name>a03</name>
										<duration>1024</duration>
										<rate>
											<timebase>59</timebase>
											<ntsc>FALSE</ntsc>
										</rate>
										<file id="file-38"/>
										<sourcetrack>
											<mediatype>audio</mediatype>
											<trackindex>1</trackindex>
										</sourcetrack>
										<link>
											<linkclipref>clipitem-112</linkclipref>
											<mediatype>video</mediatype>
											<trackindex>1</trackindex>
											<clipindex>1</clipindex>
										</link>
										<link>
											<linkclipref>clipitem-113</linkclipref>
											<mediatype>audio</mediatype>
											<trackindex>1</trackindex>
											<clipindex>1</clipindex>
											<groupindex>1</groupindex>
										</link>
										<link>
											<linkclipref>clipitem-114</linkclipref>
											<mediatype>audio</mediatype>
											<trackindex>2</trackindex>
											<clipindex>1</clipindex>
											<groupindex>1</groupindex>
										</link>
										<subclipinfo>
											<startoffset>3059</startoffset>
											<endoffset>15698</endoffset>
										</subclipinfo>
									</clipitem>
								</track>
								<track>
									<clipitem id="clipitem-114">
										<masterclipid>masterclip-38</masterclipid>
										<name>a03</name>
										<duration>1024</duration>
										<rate>
											<timebase>59</timebase>
											<ntsc>FALSE</ntsc>
										</rate>
										<file id="file-38"/>
										<sourcetrack>
											<mediatype>audio</mediatype>
											<trackindex>2</trackindex>
										</sourcetrack>
										<link>
											<linkclipref>clipitem-112</linkclipref>
											<mediatype>video</mediatype>
											<trackindex>1</trackindex>
											<clipindex>1</clipindex>
										</link>
										<link>
											<linkclipref>clipitem-113</linkclipref>
											<mediatype>audio</mediatype>
											<trackindex>1</trackindex>
											<clipindex>1</clipindex>
											<groupindex>1</groupindex>
										</link>
										<link>
											<linkclipref>clipitem-114</linkclipref>
											<mediatype>audio</mediatype>
											<trackindex>2</trackindex>
											<clipindex>1</clipindex>
											<groupindex>1</groupindex>
										</link>
										<subclipinfo>
											<startoffset>3059</startoffset>
											<endoffset>15698</endoffset>
										</subclipinfo>
									</clipitem>
								</track>
							</audio>
						</media>
						<logginginfo>
							<description></description>
							<scene></scene>
							<shottake></shottake>
							<lognote></lognote>
							<good></good>
							<originalvideofilename></originalvideofilename>
							<originalaudiofilename></originalaudiofilename>
						</logginginfo>
						<colorinfo>
							<lut></lut>
							<lut1></lut1>
							<asc_sop></asc_sop>
							<asc_sat></asc_sat>
							<lut2></lut2>
						</colorinfo>
						<labels>
							<label2>Iris</label2>
						</labels>
					</clip>
					<clip id="masterclip-39" explodedTracks="true">
						<uuid>90504409-3e5b-464b-89c9-171ed8e7e99a</uuid>
						<masterclipid>masterclip-39</masterclipid>
						<ismasterclip>TRUE</ismasterclip>
						<duration>19781</duration>
						<rate>
							<timebase>59</timebase>
							<ntsc>FALSE</ntsc>
						</rate>
						<in>8854</in>
						<out>9622</out>
						<name>a04</name>
						<media>
							<video>
								<track>
									<clipitem id="clipitem-115">
										<masterclipid>masterclip-39</masterclipid>
										<name>a04</name>
										<duration>768</duration>
										<rate>
											<timebase>59</timebase>
											<ntsc>FALSE</ntsc>
										</rate>
										<alphatype>none</alphatype>
										<pixelaspectratio>square</pixelaspectratio>
										<anamorphic>FALSE</anamorphic>
										<file id="file-39">
											<name>20211013_072525.mp4</name>
											<pathurl>file://localhost/P%3a/climbing/20211013_072525.mp4</pathurl>
											<rate>
												<timebase>59</timebase>
												<ntsc>FALSE</ntsc>
											</rate>
											<duration>19781</duration>
											<timecode>
												<rate>
													<timebase>59</timebase>
													<ntsc>FALSE</ntsc>
												</rate>
												<string>00:00:00:00</string>
												<frame>0</frame>
												<displayformat>NDF</displayformat>
											</timecode>
											<media>
												<video>
													<samplecharacteristics>
														<rate>
															<timebase>59</timebase>
															<ntsc>FALSE</ntsc>
														</rate>
														<width>1920</width>
														<height>1080</height>
														<anamorphic>FALSE</anamorphic>
														<pixelaspectratio>square</pixelaspectratio>
														<fielddominance>none</fielddominance>
													</samplecharacteristics>
												</video>
												<audio>
													<samplecharacteristics>
														<depth>16</depth>
														<samplerate>48000</samplerate>
													</samplecharacteristics>
													<channelcount>2</channelcount>
												</audio>
											</media>
										</file>
										<link>
											<linkclipref>clipitem-115</linkclipref>
											<mediatype>video</mediatype>
											<trackindex>1</trackindex>
											<clipindex>1</clipindex>
										</link>
										<link>
											<linkclipref>clipitem-116</linkclipref>
											<mediatype>audio</mediatype>
											<trackindex>1</trackindex>
											<clipindex>1</clipindex>
											<groupindex>1</groupindex>
										</link>
										<link>
											<linkclipref>clipitem-117</linkclipref>
											<mediatype>audio</mediatype>
											<trackindex>2</trackindex>
											<clipindex>1</clipindex>
											<groupindex>1</groupindex>
										</link>
										<subclipinfo>
											<startoffset>8854</startoffset>
											<endoffset>10159</endoffset>
										</subclipinfo>
									</clipitem>
								</track>
							</video>
							<audio>
								<track>
									<clipitem id="clipitem-116">
										<masterclipid>masterclip-39</masterclipid>
										<name>a04</name>
										<duration>768</duration>
										<rate>
											<timebase>59</timebase>
											<ntsc>FALSE</ntsc>
										</rate>
										<file id="file-39"/>
										<sourcetrack>
											<mediatype>audio</mediatype>
											<trackindex>1</trackindex>
										</sourcetrack>
										<link>
											<linkclipref>clipitem-115</linkclipref>
											<mediatype>video</mediatype>
											<trackindex>1</trackindex>
											<clipindex>1</clipindex>
										</link>
										<link>
											<linkclipref>clipitem-116</linkclipref>
											<mediatype>audio</mediatype>
											<trackindex>1</trackindex>
											<clipindex>1</clipindex>
											<groupindex>1</groupindex>
										</link>
										<link>
											<linkclipref>clipitem-117</linkclipref>
											<mediatype>audio</mediatype>
											<trackindex>2</trackindex>
											<clipindex>1</clipindex>
											<groupindex>1</groupindex>
										</link>
										<subclipinfo>
											<startoffset>8854</startoffset>
											<endoffset>10159</endoffset>
										</subclipinfo>
									</clipitem>
								</track>
								<track>
									<clipitem id="clipitem-117">
										<masterclipid>masterclip-39</masterclipid>
										<name>a04</name>
										<duration>768</duration>
										<rate>
											<timebase>59</timebase>
											<ntsc>FALSE</ntsc>
										</rate>
										<file id="file-39"/>
										<sourcetrack>
											<mediatype>audio</mediatype>
											<trackindex>2</trackindex>
										</sourcetrack>
										<link>
											<linkclipref>clipitem-115</linkclipref>
											<mediatype>video</mediatype>
											<trackindex>1</trackindex>
											<clipindex>1</clipindex>
										</link>
										<link>
											<linkclipref>clipitem-116</linkclipref>
											<mediatype>audio</mediatype>
											<trackindex>1</trackindex>
											<clipindex>1</clipindex>
											<groupindex>1</groupindex>
										</link>
										<link>
											<linkclipref>clipitem-117</linkclipref>
											<mediatype>audio</mediatype>
											<trackindex>2</trackindex>
											<clipindex>1</clipindex>
											<groupindex>1</groupindex>
										</link>
										<subclipinfo>
											<startoffset>8854</startoffset>
											<endoffset>10159</endoffset>
										</subclipinfo>
									</clipitem>
								</track>
							</audio>
						</media>
						<logginginfo>
							<description></description>
							<scene></scene>
							<shottake></shottake>
							<lognote></lognote>
							<good></good>
							<originalvideofilename></originalvideofilename>
							<originalaudiofilename></originalaudiofilename>
						</logginginfo>
						<colorinfo>
							<lut></lut>
							<lut1></lut1>
							<asc_sop></asc_sop>
							<asc_sat></asc_sat>
							<lut2></lut2>
						</colorinfo>
						<labels>
							<label2>Iris</label2>
						</labels>
					</clip>
					<clip id="masterclip-40" explodedTracks="true">
						<uuid>d9138176-4c72-4001-b8c7-82d45adf0213</uuid>
						<masterclipid>masterclip-40</masterclipid>
						<ismasterclip>TRUE</ismasterclip>
						<duration>19781</duration>
						<rate>
							<timebase>59</timebase>
							<ntsc>FALSE</ntsc>
						</rate>
						<in>12082</in>
						<out>12769</out>
						<name>a05</name>
						<media>
							<video>
								<track>
									<clipitem id="clipitem-118">
										<masterclipid>masterclip-40</masterclipid>
										<name>a05</name>
										<duration>687</duration>
										<rate>
											<timebase>59</timebase>
											<ntsc>FALSE</ntsc>
										</rate>
										<alphatype>none</alphatype>
										<pixelaspectratio>square</pixelaspectratio>
										<anamorphic>FALSE</anamorphic>
										<file id="file-40">
											<name>20211013_072525.mp4</name>
											<pathurl>file://localhost/P%3a/climbing/20211013_072525.mp4</pathurl>
											<rate>
												<timebase>59</timebase>
												<ntsc>FALSE</ntsc>
											</rate>
											<duration>19781</duration>
											<timecode>
												<rate>
													<timebase>59</timebase>
													<ntsc>FALSE</ntsc>
												</rate>
												<string>00:00:00:00</string>
												<frame>0</frame>
												<displayformat>NDF</displayformat>
											</timecode>
											<media>
												<video>
													<samplecharacteristics>
														<rate>
															<timebase>59</timebase>
															<ntsc>FALSE</ntsc>
														</rate>
														<width>1920</width>
														<height>1080</height>
														<anamorphic>FALSE</anamorphic>
														<pixelaspectratio>square</pixelaspectratio>
														<fielddominance>none</fielddominance>
													</samplecharacteristics>
												</video>
												<audio>
													<samplecharacteristics>
														<depth>16</depth>
														<samplerate>48000</samplerate>
													</samplecharacteristics>
													<channelcount>2</channelcount>
												</audio>
											</media>
										</file>
										<link>
											<linkclipref>clipitem-118</linkclipref>
											<mediatype>video</mediatype>
											<trackindex>1</trackindex>
											<clipindex>1</clipindex>
										</link>
										<link>
											<linkclipref>clipitem-119</linkclipref>
											<mediatype>audio</mediatype>
											<trackindex>1</trackindex>
											<clipindex>1</clipindex>
											<groupindex>1</groupindex>
										</link>
										<link>
											<linkclipref>clipitem-120</linkclipref>
											<mediatype>audio</mediatype>
											<trackindex>2</trackindex>
											<clipindex>1</clipindex>
											<groupindex>1</groupindex>
										</link>
										<subclipinfo>
											<startoffset>12082</startoffset>
											<endoffset>7012</endoffset>
										</subclipinfo>
									</clipitem>
								</track>
							</video>
							<audio>
								<track>
									<clipitem id="clipitem-119">
										<masterclipid>masterclip-40</masterclipid>
										<name>a05</name>
										<duration>687</duration>
										<rate>
											<timebase>59</timebase>
											<ntsc>FALSE</ntsc>
										</rate>
										<file id="file-40"/>
										<sourcetrack>
											<mediatype>audio</mediatype>
											<trackindex>1</trackindex>
										</sourcetrack>
										<link>
											<linkclipref>clipitem-118</linkclipref>
											<mediatype>video</mediatype>
											<trackindex>1</trackindex>
											<clipindex>1</clipindex>
										</link>
										<link>
											<linkclipref>clipitem-119</linkclipref>
											<mediatype>audio</mediatype>
											<trackindex>1</trackindex>
											<clipindex>1</clipindex>
											<groupindex>1</groupindex>
										</link>
										<link>
											<linkclipref>clipitem-120</linkclipref>
											<mediatype>audio</mediatype>
											<trackindex>2</trackindex>
											<clipindex>1</clipindex>
											<groupindex>1</groupindex>
										</link>
										<subclipinfo>
											<startoffset>12082</startoffset>
											<endoffset>7012</endoffset>
										</subclipinfo>
									</clipitem>
								</track>
								<track>
									<clipitem id="clipitem-120">
										<masterclipid>masterclip-40</masterclipid>
										<name>a05</name>
										<duration>687</duration>
										<rate>
											<timebase>59</timebase>
											<ntsc>FALSE</ntsc>
										</rate>
										<file id="file-40"/>
										<sourcetrack>
											<mediatype>audio</mediatype>
											<trackindex>2</trackindex>
										</sourcetrack>
										<link>
											<linkclipref>clipitem-118</linkclipref>
											<mediatype>video</mediatype>
											<trackindex>1</trackindex>
											<clipindex>1</clipindex>
										</link>
										<link>
											<linkclipref>clipitem-119</linkclipref>
											<mediatype>audio</mediatype>
											<trackindex>1</trackindex>
											<clipindex>1</clipindex>
											<groupindex>1</groupindex>
										</link>
										<link>
											<linkclipref>clipitem-120</linkclipref>
											<mediatype>audio</mediatype>
											<trackindex>2</trackindex>
											<clipindex>1</clipindex>
											<groupindex>1</groupindex>
										</link>
										<subclipinfo>
											<startoffset>12082</startoffset>
											<endoffset>7012</endoffset>
										</subclipinfo>
									</clipitem>
								</track>
							</audio>
						</media>
						<logginginfo>
							<description></description>
							<scene></scene>
							<shottake></shottake>
							<lognote></lognote>
							<good></good>
							<originalvideofilename></originalvideofilename>
							<originalaudiofilename></originalaudiofilename>
						</logginginfo>
						<colorinfo>
							<lut></lut>
							<lut1></lut1>
							<asc_sop></asc_sop>
							<asc_sat></asc_sat>
							<lut2></lut2>
						</colorinfo>
						<labels>
							<label2>Iris</label2>
						</labels>
					</clip>
					<clip id="masterclip-41" explodedTracks="true">
						<uuid>be4bded8-702a-4050-ac8d-7e668bf25048</uuid>
						<masterclipid>masterclip-41</masterclipid>
						<ismasterclip>TRUE</ismasterclip>
						<duration>19781</duration>
						<rate>
							<timebase>59</timebase>
							<ntsc>FALSE</ntsc>
						</rate>
						<in>14830</in>
						<out>15758</out>
						<name>a06</name>
						<media>
							<video>
								<track>
									<clipitem id="clipitem-121">
										<masterclipid>masterclip-41</masterclipid>
										<name>a06</name>
										<duration>928</duration>
										<rate>
											<timebase>59</timebase>
											<ntsc>FALSE</ntsc>
										</rate>
										<alphatype>none</alphatype>
										<pixelaspectratio>square</pixelaspectratio>
										<anamorphic>FALSE</anamorphic>
										<file id="file-41">
											<name>20211013_072525.mp4</name>
											<pathurl>file://localhost/P%3a/climbing/20211013_072525.mp4</pathurl>
											<rate>
												<timebase>59</timebase>
												<ntsc>FALSE</ntsc>
											</rate>
											<duration>19781</duration>
											<timecode>
												<rate>
													<timebase>59</timebase>
													<ntsc>FALSE</ntsc>
												</rate>
												<string>00:00:00:00</string>
												<frame>0</frame>
												<displayformat>NDF</displayformat>
											</timecode>
											<media>
												<video>
													<samplecharacteristics>
														<rate>
															<timebase>59</timebase>
															<ntsc>FALSE</ntsc>
														</rate>
														<width>1920</width>
														<height>1080</height>
														<anamorphic>FALSE</anamorphic>
														<pixelaspectratio>square</pixelaspectratio>
														<fielddominance>none</fielddominance>
													</samplecharacteristics>
												</video>
												<audio>
													<samplecharacteristics>
														<depth>16</depth>
														<samplerate>48000</samplerate>
													</samplecharacteristics>
													<channelcount>2</channelcount>
												</audio>
											</media>
										</file>
										<link>
											<linkclipref>clipitem-121</linkclipref>
											<mediatype>video</mediatype>
											<trackindex>1</trackindex>
											<clipindex>1</clipindex>
										</link>
										<link>
											<linkclipref>clipitem-122</linkclipref>
											<mediatype>audio</mediatype>
											<trackindex>1</trackindex>
											<clipindex>1</clipindex>
											<groupindex>1</groupindex>
										</link>
										<link>
											<linkclipref>clipitem-123</linkclipref>
											<mediatype>audio</mediatype>
											<trackindex>2</trackindex>
											<clipindex>1</clipindex>
											<groupindex>1</groupindex>
										</link>
										<subclipinfo>
											<startoffset>14830</startoffset>
											<endoffset>4023</endoffset>
										</subclipinfo>
									</clipitem>
								</track>
							</video>
							<audio>
								<track>
									<clipitem id="clipitem-122">
										<masterclipid>masterclip-41</masterclipid>
										<name>a06</name>
										<duration>928</duration>
										<rate>
											<timebase>59</timebase>
											<ntsc>FALSE</ntsc>
										</rate>
										<file id="file-41"/>
										<sourcetrack>
											<mediatype>audio</mediatype>
											<trackindex>1</trackindex>
										</sourcetrack>
										<link>
											<linkclipref>clipitem-121</linkclipref>
											<mediatype>video</mediatype>
											<trackindex>1</trackindex>
											<clipindex>1</clipindex>
										</link>
										<link>
											<linkclipref>clipitem-122</linkclipref>
											<mediatype>audio</mediatype>
											<trackindex>1</trackindex>
											<clipindex>1</clipindex>
											<groupindex>1</groupindex>
										</link>
										<link>
											<linkclipref>clipitem-123</linkclipref>
											<mediatype>audio</mediatype>
											<trackindex>2</trackindex>
											<clipindex>1</clipindex>
											<groupindex>1</groupindex>
										</link>
										<subclipinfo>
											<startoffset>14830</startoffset>
											<endoffset>4023</endoffset>
										</subclipinfo>
									</clipitem>
								</track>
								<track>
									<clipitem id="clipitem-123">
										<masterclipid>masterclip-41</masterclipid>
										<name>a06</name>
										<duration>928</duration>
										<rate>
											<timebase>59</timebase>
											<ntsc>FALSE</ntsc>
										</rate>
										<file id="file-41"/>
										<sourcetrack>
											<mediatype>audio</mediatype>
											<trackindex>2</trackindex>
										</sourcetrack>
										<link>
											<linkclipref>clipitem-121</linkclipref>
											<mediatype>video</mediatype>
											<trackindex>1</trackindex>
											<clipindex>1</clipindex>
										</link>
										<link>
											<linkclipref>clipitem-122</linkclipref>
											<mediatype>audio</mediatype>
											<trackindex>1</trackindex>
											<clipindex>1</clipindex>
											<groupindex>1</groupindex>
										</link>
										<link>
											<linkclipref>clipitem-123</linkclipref>
											<mediatype>audio</mediatype>
											<trackindex>2</trackindex>
											<clipindex>1</clipindex>
											<groupindex>1</groupindex>
										</link>
										<subclipinfo>
											<startoffset>14830</startoffset>
											<endoffset>4023</endoffset>
										</subclipinfo>
									</clipitem>
								</track>
							</audio>
						</media>
						<logginginfo>
							<description></description>
							<scene></scene>
							<shottake></shottake>
							<lognote></lognote>
							<good></good>
							<originalvideofilename></originalvideofilename>
							<originalaudiofilename></originalaudiofilename>
						</logginginfo>
						<colorinfo>
							<lut></lut>
							<lut1></lut1>
							<asc_sop></asc_sop>
							<asc_sat></asc_sat>
							<lut2></lut2>
						</colorinfo>
						<labels>
							<label2>Iris</label2>
						</labels>
					</clip>
					<clip id="masterclip-42" explodedTracks="true">
						<uuid>4d017a66-a8a6-4702-8d69-4238a2fc27de</uuid>
						<masterclipid>masterclip-42</masterclipid>
						<ismasterclip>TRUE</ismasterclip>
						<duration>19781</duration>
						<rate>
							<timebase>59</timebase>
							<ntsc>FALSE</ntsc>
						</rate>
						<in>16425</in>
						<out>17378</out>
						<name>a07</name>
						<media>
							<video>
								<track>
									<clipitem id="clipitem-124">
										<masterclipid>masterclip-42</masterclipid>
										<name>a07</name>
										<duration>953</duration>
										<rate>
											<timebase>59</timebase>
											<ntsc>FALSE</ntsc>
										</rate>
										<alphatype>none</alphatype>
										<pixelaspectratio>square</pixelaspectratio>
										<anamorphic>FALSE</anamorphic>
										<file id="file-42">
											<name>20211013_072525.mp4</name>
											<pathurl>file://localhost/P%3a/climbing/20211013_072525.mp4</pathurl>
											<rate>
												<timebase>59</timebase>
												<ntsc>FALSE</ntsc>
											</rate>
											<duration>19781</duration>
											<timecode>
												<rate>
													<timebase>59</timebase>
													<ntsc>FALSE</ntsc>
												</rate>
												<string>00:00:00:00</string>
												<frame>0</frame>
												<displayformat>NDF</displayformat>
											</timecode>
											<media>
												<video>
													<samplecharacteristics>
														<rate>
															<timebase>59</timebase>
															<ntsc>FALSE</ntsc>
														</rate>
														<width>1920</width>
														<height>1080</height>
														<anamorphic>FALSE</anamorphic>
														<pixelaspectratio>square</pixelaspectratio>
														<fielddominance>none</fielddominance>
													</samplecharacteristics>
												</video>
												<audio>
													<samplecharacteristics>
														<depth>16</depth>
														<samplerate>48000</samplerate>
													</samplecharacteristics>
													<channelcount>2</channelcount>
												</audio>
											</media>
										</file>
										<link>
											<linkclipref>clipitem-124</linkclipref>
											<mediatype>video</mediatype>
											<trackindex>1</trackindex>
											<clipindex>1</clipindex>
										</link>
										<link>
											<linkclipref>clipitem-125</linkclipref>
											<mediatype>audio</mediatype>
											<trackindex>1</trackindex>
											<clipindex>1</clipindex>
											<groupindex>1</groupindex>
										</link>
										<link>
											<linkclipref>clipitem-126</linkclipref>
											<mediatype>audio</mediatype>
											<trackindex>2</trackindex>
											<clipindex>1</clipindex>
											<groupindex>1</groupindex>
										</link>
										<subclipinfo>
											<startoffset>16425</startoffset>
											<endoffset>2403</endoffset>
										</subclipinfo>
									</clipitem>
								</track>
							</video>
							<audio>
								<track>
									<clipitem id="clipitem-125">
										<masterclipid>masterclip-42</masterclipid>
										<name>a07</name>
										<duration>953</duration>
										<rate>
											<timebase>59</timebase>
											<ntsc>FALSE</ntsc>
										</rate>
										<file id="file-42"/>
										<sourcetrack>
											<mediatype>audio</mediatype>
											<trackindex>1</trackindex>
										</sourcetrack>
										<link>
											<linkclipref>clipitem-124</linkclipref>
											<mediatype>video</mediatype>
											<trackindex>1</trackindex>
											<clipindex>1</clipindex>
										</link>
										<link>
											<linkclipref>clipitem-125</linkclipref>
											<mediatype>audio</mediatype>
											<trackindex>1</trackindex>
											<clipindex>1</clipindex>
											<groupindex>1</groupindex>
										</link>
										<link>
											<linkclipref>clipitem-126</linkclipref>
											<mediatype>audio</mediatype>
											<trackindex>2</trackindex>
											<clipindex>1</clipindex>
											<groupindex>1</groupindex>
										</link>
										<subclipinfo>
											<startoffset>16425</startoffset>
											<endoffset>2403</endoffset>
										</subclipinfo>
									</clipitem>
								</track>
								<track>
									<clipitem id="clipitem-126">
										<masterclipid>masterclip-42</masterclipid>
										<name>a07</name>
										<duration>953</duration>
										<rate>
											<timebase>59</timebase>
											<ntsc>FALSE</ntsc>
										</rate>
										<file id="file-42"/>
										<sourcetrack>
											<mediatype>audio</mediatype>
											<trackindex>2</trackindex>
										</sourcetrack>
										<link>
											<linkclipref>clipitem-124</linkclipref>
											<mediatype>video</mediatype>
											<trackindex>1</trackindex>
											<clipindex>1</clipindex>
										</link>
										<link>
											<linkclipref>clipitem-125</linkclipref>
											<mediatype>audio</mediatype>
											<trackindex>1</trackindex>
											<clipindex>1</clipindex>
											<groupindex>1</groupindex>
										</link>
										<link>
											<linkclipref>clipitem-126</linkclipref>
											<mediatype>audio</mediatype>
											<trackindex>2</trackindex>
											<clipindex>1</clipindex>
											<groupindex>1</groupindex>
										</link>
										<subclipinfo>
											<startoffset>16425</startoffset>
											<endoffset>2403</endoffset>
										</subclipinfo>
									</clipitem>
								</track>
							</audio>
						</media>
						<logginginfo>
							<description></description>
							<scene></scene>
							<shottake></shottake>
							<lognote></lognote>
							<good></good>
							<originalvideofilename></originalvideofilename>
							<originalaudiofilename></originalaudiofilename>
						</logginginfo>
						<colorinfo>
							<lut></lut>
							<lut1></lut1>
							<asc_sop></asc_sop>
							<asc_sat></asc_sat>
							<lut2></lut2>
						</colorinfo>
						<labels>
							<label2>Iris</label2>
						</labels>
					</clip>
					<clip id="masterclip-43" explodedTracks="true">
						<uuid>f956bd19-7a18-4bc4-9443-f85167ccb8aa</uuid>
						<masterclipid>masterclip-43</masterclipid>
						<ismasterclip>TRUE</ismasterclip>
						<duration>368</duration>
						<rate>
							<timebase>25</timebase>
							<ntsc>FALSE</ntsc>
						</rate>
						<name>a01-green</name>
						<media>
							<video>
								<track>
									<clipitem id="clipitem-127">
										<masterclipid>masterclip-43</masterclipid>
										<name>a01-green</name>
										<rate>
											<timebase>25</timebase>
											<ntsc>FALSE</ntsc>
										</rate>
										<alphatype>none</alphatype>
										<pixelaspectratio>square</pixelaspectratio>
										<anamorphic>FALSE</anamorphic>
										<file id="file-43">
											<name>result.mp4</name>
											<pathurl>file://localhost/C%3a/Users/xertrov/Videos/bg-rem-2/result.mp4</pathurl>
											<rate>
												<timebase>25</timebase>
												<ntsc>FALSE</ntsc>
											</rate>
											<duration>368</duration>
											<timecode>
												<rate>
													<timebase>25</timebase>
													<ntsc>FALSE</ntsc>
												</rate>
												<string>00:00:00:00</string>
												<frame>0</frame>
												<displayformat>NDF</displayformat>
											</timecode>
											<media>
												<video>
													<samplecharacteristics>
														<rate>
															<timebase>25</timebase>
															<ntsc>FALSE</ntsc>
														</rate>
														<width>1920</width>
														<height>1080</height>
														<anamorphic>FALSE</anamorphic>
														<pixelaspectratio>square</pixelaspectratio>
														<fielddominance>none</fielddominance>
													</samplecharacteristics>
												</video>
												<audio>
													<samplecharacteristics>
														<depth>16</depth>
														<samplerate>48000</samplerate>
													</samplecharacteristics>
													<channelcount>2</channelcount>
												</audio>
											</media>
										</file>
										<link>
											<linkclipref>clipitem-127</linkclipref>
											<mediatype>video</mediatype>
											<trackindex>1</trackindex>
											<clipindex>1</clipindex>
										</link>
										<link>
											<linkclipref>clipitem-128</linkclipref>
											<mediatype>audio</mediatype>
											<trackindex>1</trackindex>
											<clipindex>1</clipindex>
											<groupindex>1</groupindex>
										</link>
										<link>
											<linkclipref>clipitem-129</linkclipref>
											<mediatype>audio</mediatype>
											<trackindex>2</trackindex>
											<clipindex>1</clipindex>
											<groupindex>1</groupindex>
										</link>
									</clipitem>
								</track>
							</video>
							<audio>
								<track>
									<clipitem id="clipitem-128">
										<masterclipid>masterclip-43</masterclipid>
										<name>a01-green</name>
										<rate>
											<timebase>25</timebase>
											<ntsc>FALSE</ntsc>
										</rate>
										<file id="file-43"/>
										<sourcetrack>
											<mediatype>audio</mediatype>
											<trackindex>1</trackindex>
										</sourcetrack>
										<link>
											<linkclipref>clipitem-127</linkclipref>
											<mediatype>video</mediatype>
											<trackindex>1</trackindex>
											<clipindex>1</clipindex>
										</link>
										<link>
											<linkclipref>clipitem-128</linkclipref>
											<mediatype>audio</mediatype>
											<trackindex>1</trackindex>
											<clipindex>1</clipindex>
											<groupindex>1</groupindex>
										</link>
										<link>
											<linkclipref>clipitem-129</linkclipref>
											<mediatype>audio</mediatype>
											<trackindex>2</trackindex>
											<clipindex>1</clipindex>
											<groupindex>1</groupindex>
										</link>
									</clipitem>
								</track>
								<track>
									<clipitem id="clipitem-129">
										<masterclipid>masterclip-43</masterclipid>
										<name>a01-green</name>
										<rate>
											<timebase>25</timebase>
											<ntsc>FALSE</ntsc>
										</rate>
										<file id="file-43"/>
										<sourcetrack>
											<mediatype>audio</mediatype>
											<trackindex>2</trackindex>
										</sourcetrack>
										<link>
											<linkclipref>clipitem-127</linkclipref>
											<mediatype>video</mediatype>
											<trackindex>1</trackindex>
											<clipindex>1</clipindex>
										</link>
										<link>
											<linkclipref>clipitem-128</linkclipref>
											<mediatype>audio</mediatype>
											<trackindex>1</trackindex>
											<clipindex>1</clipindex>
											<groupindex>1</groupindex>
										</link>
										<link>
											<linkclipref>clipitem-129</linkclipref>
											<mediatype>audio</mediatype>
											<trackindex>2</trackindex>
											<clipindex>1</clipindex>
											<groupindex>1</groupindex>
										</link>
									</clipitem>
								</track>
							</audio>
						</media>
							<marker>
								<comment></comment>
								<name></name>
								<in>151</in>
								<out>-1</out>
							</marker>
						<logginginfo>
							<description></description>
							<scene></scene>
							<shottake></shottake>
							<lognote></lognote>
							<good></good>
							<originalvideofilename></originalvideofilename>
							<originalaudiofilename></originalaudiofilename>
						</logginginfo>
						<colorinfo>
							<lut></lut>
							<lut1></lut1>
							<asc_sop></asc_sop>
							<asc_sat></asc_sat>
							<lut2></lut2>
						</colorinfo>
						<labels>
							<label2>Iris</label2>
						</labels>
					</clip>
					<sequence id="sequence-1" TL.SQVisibleBaseTime="0" TL.SQTimePerPixel="0.31158166320796221" MZ.Sequence.PreviewFrameSizeHeight="1080" MZ.Sequence.PreviewFrameSizeWidth="1920" MZ.Sequence.AudioTimeDisplayFormat="200" MZ.Sequence.PreviewRenderingPresetCodec="1297107278" MZ.Sequence.PreviewRenderingPresetPath="EncoderPresets\SequencePreview\9678af98-a7b7-4bdb-b477-7ac9c8df4a4e\I-Frame Only MPEG.epr" MZ.Sequence.PreviewUseMaxRenderQuality="false" MZ.Sequence.PreviewUseMaxBitDepth="false" MZ.Sequence.EditingModeGUID="9678af98-a7b7-4bdb-b477-7ac9c8df4a4e" MZ.Sequence.VideoTimeDisplayFormat="998" MZ.WorkOutPoint="81241120063562" MZ.WorkInPoint="0" MZ.ZeroPoint="0" explodedTracks="true">
						<uuid>7902c308-b847-4daa-94f0-f59f75ccaee0</uuid>
						<duration>19186</duration>
						<rate>
							<timebase>59</timebase>
							<ntsc>FALSE</ntsc>
						</rate>
						<name>20211013_072525_Sub_01</name>
						<media>
							<video>
								<format>
									<samplecharacteristics>
										<rate>
											<timebase>59</timebase>
											<ntsc>FALSE</ntsc>
										</rate>
										<codec>
											<name>Apple ProRes 422</name>
											<appspecificdata>
												<appname>Final Cut Pro</appname>
												<appmanufacturer>Apple Inc.</appmanufacturer>
												<appversion>7.0</appversion>
												<data>
													<qtcodec>
														<codecname>Apple ProRes 422</codecname>
														<codectypename>Apple ProRes 422</codectypename>
														<codectypecode>apcn</codectypecode>
														<codecvendorcode>appl</codecvendorcode>
														<spatialquality>1024</spatialquality>
														<temporalquality>0</temporalquality>
														<keyframerate>0</keyframerate>
														<datarate>0</datarate>
													</qtcodec>
												</data>
											</appspecificdata>
										</codec>
										<width>1920</width>
										<height>1080</height>
										<anamorphic>FALSE</anamorphic>
										<pixelaspectratio>square</pixelaspectratio>
										<fielddominance>none</fielddominance>
										<colordepth>24</colordepth>
									</samplecharacteristics>
								</format>
								<track TL.SQTrackExpandedHeight="25" TL.SQTrackExpanded="0" MZ.TrackTargeted="1" MZ.TrackName="Video 1">
									<clipitem id="clipitem-130">
										<masterclipid>masterclip-44</masterclipid>
										<name>20211013_072525.mp4</name>
										<enabled>TRUE</enabled>
										<duration>19781</duration>
										<rate>
											<timebase>59</timebase>
											<ntsc>FALSE</ntsc>
										</rate>
										<start>0</start>
										<end>384</end>
										<in>0</in>
										<out>384</out>
										<pproTicksIn>0</pproTicksIn>
										<pproTicksOut>1626008032128</pproTicksOut>
										<alphatype>none</alphatype>
										<pixelaspectratio>square</pixelaspectratio>
										<anamorphic>FALSE</anamorphic>
										<file id="file-44">
											<name>20211013_072525.mp4</name>
											<pathurl>file://localhost/P%3a/climbing/20211013_072525.mp4</pathurl>
											<rate>
												<timebase>59</timebase>
												<ntsc>FALSE</ntsc>
											</rate>
											<duration>19781</duration>
											<timecode>
												<rate>
													<timebase>59</timebase>
													<ntsc>FALSE</ntsc>
												</rate>
												<string>00:00:00:00</string>
												<frame>0</frame>
												<displayformat>NDF</displayformat>
											</timecode>
											<media>
												<video>
													<samplecharacteristics>
														<rate>
															<timebase>59</timebase>
															<ntsc>FALSE</ntsc>
														</rate>
														<width>1920</width>
														<height>1080</height>
														<anamorphic>FALSE</anamorphic>
														<pixelaspectratio>square</pixelaspectratio>
														<fielddominance>none</fielddominance>
													</samplecharacteristics>
												</video>
												<audio>
													<samplecharacteristics>
														<depth>16</depth>
														<samplerate>48000</samplerate>
													</samplecharacteristics>
													<channelcount>2</channelcount>
												</audio>
											</media>
										</file>
										<link>
											<linkclipref>clipitem-130</linkclipref>
											<mediatype>video</mediatype>
											<trackindex>1</trackindex>
											<clipindex>1</clipindex>
										</link>
										<link>
											<linkclipref>clipitem-146</linkclipref>
											<mediatype>audio</mediatype>
											<trackindex>1</trackindex>
											<clipindex>1</clipindex>
											<groupindex>1</groupindex>
										</link>
										<link>
											<linkclipref>clipitem-162</linkclipref>
											<mediatype>audio</mediatype>
											<trackindex>2</trackindex>
											<clipindex>1</clipindex>
											<groupindex>1</groupindex>
										</link>
										<logginginfo>
											<description></description>
											<scene></scene>
											<shottake></shottake>
											<lognote></lognote>
											<good></good>
											<originalvideofilename></originalvideofilename>
											<originalaudiofilename></originalaudiofilename>
										</logginginfo>
										<colorinfo>
											<lut></lut>
											<lut1></lut1>
											<asc_sop></asc_sop>
											<asc_sat></asc_sat>
											<lut2></lut2>
										</colorinfo>
										<labels>
											<label2>Iris</label2>
										</labels>
									</clipitem>
									<clipitem id="clipitem-131">
										<masterclipid>masterclip-44</masterclipid>
										<name>20211013_072525.mp4</name>
										<enabled>TRUE</enabled>
										<duration>19781</duration>
										<rate>
											<timebase>59</timebase>
											<ntsc>FALSE</ntsc>
										</rate>
										<start>384</start>
										<end>1074</end>
										<in>384</in>
										<out>1074</out>
										<pproTicksIn>1626008032128</pproTicksIn>
										<pproTicksOut>4547741214858</pproTicksOut>
										<alphatype>none</alphatype>
										<file id="file-44"/>
										<link>
											<linkclipref>clipitem-131</linkclipref>
											<mediatype>video</mediatype>
											<trackindex>1</trackindex>
											<clipindex>2</clipindex>
										</link>
										<link>
											<linkclipref>clipitem-147</linkclipref>
											<mediatype>audio</mediatype>
											<trackindex>1</trackindex>
											<clipindex>2</clipindex>
											<groupindex>1</groupindex>
										</link>
										<link>
											<linkclipref>clipitem-163</linkclipref>
											<mediatype>audio</mediatype>
											<trackindex>2</trackindex>
											<clipindex>2</clipindex>
											<groupindex>1</groupindex>
										</link>
										<logginginfo>
											<description></description>
											<scene></scene>
											<shottake></shottake>
											<lognote></lognote>
											<good></good>
											<originalvideofilename></originalvideofilename>
											<originalaudiofilename></originalaudiofilename>
										</logginginfo>
										<colorinfo>
											<lut></lut>
											<lut1></lut1>
											<asc_sop></asc_sop>
											<asc_sat></asc_sat>
											<lut2></lut2>
										</colorinfo>
										<labels>
											<label2>Iris</label2>
										</labels>
									</clipitem>
									<clipitem id="clipitem-132">
										<masterclipid>masterclip-44</masterclipid>
										<name>20211013_072525.mp4</name>
										<enabled>TRUE</enabled>
										<duration>19781</duration>
										<rate>
											<timebase>59</timebase>
											<ntsc>FALSE</ntsc>
										</rate>
										<start>1074</start>
										<end>1404</end>
										<in>1074</in>
										<out>1404</out>
										<pproTicksIn>4547741214858</pproTicksIn>
										<pproTicksOut>5945091867468</pproTicksOut>
										<alphatype>none</alphatype>
										<file id="file-44"/>
										<link>
											<linkclipref>clipitem-132</linkclipref>
											<mediatype>video</mediatype>
											<trackindex>1</trackindex>
											<clipindex>3</clipindex>
										</link>
										<link>
											<linkclipref>clipitem-148</linkclipref>
											<mediatype>audio</mediatype>
											<trackindex>1</trackindex>
											<clipindex>3</clipindex>
											<groupindex>1</groupindex>
										</link>
										<link>
											<linkclipref>clipitem-164</linkclipref>
											<mediatype>audio</mediatype>
											<trackindex>2</trackindex>
											<clipindex>3</clipindex>
											<groupindex>1</groupindex>
										</link>
										<logginginfo>
											<description></description>
											<scene></scene>
											<shottake></shottake>
											<lognote></lognote>
											<good></good>
											<originalvideofilename></originalvideofilename>
											<originalaudiofilename></originalaudiofilename>
										</logginginfo>
										<colorinfo>
											<lut></lut>
											<lut1></lut1>
											<asc_sop></asc_sop>
											<asc_sat></asc_sat>
											<lut2></lut2>
										</colorinfo>
										<labels>
											<label2>Iris</label2>
										</labels>
									</clipitem>
									<clipitem id="clipitem-133">
										<masterclipid>masterclip-44</masterclipid>
										<name>20211013_072525.mp4</name>
										<enabled>TRUE</enabled>
										<duration>19781</duration>
										<rate>
											<timebase>59</timebase>
											<ntsc>FALSE</ntsc>
										</rate>
										<start>1404</start>
										<end>2473</end>
										<in>1404</in>
										<out>2473</out>
										<pproTicksIn>5945091867468</pproTicksIn>
										<pproTicksOut>10471661102741</pproTicksOut>
										<alphatype>none</alphatype>
										<file id="file-44"/>
										<link>
											<linkclipref>clipitem-133</linkclipref>
											<mediatype>video</mediatype>
											<trackindex>1</trackindex>
											<clipindex>4</clipindex>
										</link>
										<link>
											<linkclipref>clipitem-149</linkclipref>
											<mediatype>audio</mediatype>
											<trackindex>1</trackindex>
											<clipindex>4</clipindex>
											<groupindex>1</groupindex>
										</link>
										<link>
											<linkclipref>clipitem-165</linkclipref>
											<mediatype>audio</mediatype>
											<trackindex>2</trackindex>
											<clipindex>4</clipindex>
											<groupindex>1</groupindex>
										</link>
										<logginginfo>
											<description></description>
											<scene></scene>
											<shottake></shottake>
											<lognote></lognote>
											<good></good>
											<originalvideofilename></originalvideofilename>
											<originalaudiofilename></originalaudiofilename>
										</logginginfo>
										<colorinfo>
											<lut></lut>
											<lut1></lut1>
											<asc_sop></asc_sop>
											<asc_sat></asc_sat>
											<lut2></lut2>
										</colorinfo>
										<labels>
											<label2>Iris</label2>
										</labels>
									</clipitem>
									<clipitem id="clipitem-134">
										<masterclipid>masterclip-44</masterclipid>
										<name>20211013_072525.mp4</name>
										<enabled>TRUE</enabled>
										<duration>19781</duration>
										<rate>
											<timebase>59</timebase>
											<ntsc>FALSE</ntsc>
										</rate>
										<start>2473</start>
										<end>3059</end>
										<in>2473</in>
										<out>3059</out>
										<pproTicksIn>10471661102741</pproTicksIn>
										<pproTicksOut>12953017110103</pproTicksOut>
										<alphatype>none</alphatype>
										<file id="file-44"/>
										<link>
											<linkclipref>clipitem-134</linkclipref>
											<mediatype>video</mediatype>
											<trackindex>1</trackindex>
											<clipindex>5</clipindex>
										</link>
										<link>
											<linkclipref>clipitem-150</linkclipref>
											<mediatype>audio</mediatype>
											<trackindex>1</trackindex>
											<clipindex>5</clipindex>
											<groupindex>1</groupindex>
										</link>
										<link>
											<linkclipref>clipitem-166</linkclipref>
											<mediatype>audio</mediatype>
											<trackindex>2</trackindex>
											<clipindex>5</clipindex>
											<groupindex>1</groupindex>
										</link>
										<logginginfo>
											<description></description>
											<scene></scene>
											<shottake></shottake>
											<lognote></lognote>
											<good></good>
											<originalvideofilename></originalvideofilename>
											<originalaudiofilename></originalaudiofilename>
										</logginginfo>
										<colorinfo>
											<lut></lut>
											<lut1></lut1>
											<asc_sop></asc_sop>
											<asc_sat></asc_sat>
											<lut2></lut2>
										</colorinfo>
										<labels>
											<label2>Iris</label2>
										</labels>
									</clipitem>
									<clipitem id="clipitem-135">
										<masterclipid>masterclip-44</masterclipid>
										<name>20211013_072525.mp4</name>
										<enabled>TRUE</enabled>
										<duration>19781</duration>
										<rate>
											<timebase>59</timebase>
											<ntsc>FALSE</ntsc>
										</rate>
										<start>3059</start>
										<end>4083</end>
										<in>3059</in>
										<out>4083</out>
										<pproTicksIn>12953017110103</pproTicksIn>
										<pproTicksOut>17289038529111</pproTicksOut>
										<alphatype>none</alphatype>
										<file id="file-44"/>
										<link>
											<linkclipref>clipitem-135</linkclipref>
											<mediatype>video</mediatype>
											<trackindex>1</trackindex>
											<clipindex>6</clipindex>
										</link>
										<link>
											<linkclipref>clipitem-151</linkclipref>
											<mediatype>audio</mediatype>
											<trackindex>1</trackindex>
											<clipindex>6</clipindex>
											<groupindex>1</groupindex>
										</link>
										<link>
											<linkclipref>clipitem-167</linkclipref>
											<mediatype>audio</mediatype>
											<trackindex>2</trackindex>
											<clipindex>6</clipindex>
											<groupindex>1</groupindex>
										</link>
										<logginginfo>
											<description></description>
											<scene></scene>
											<shottake></shottake>
											<lognote></lognote>
											<good></good>
											<originalvideofilename></originalvideofilename>
											<originalaudiofilename></originalaudiofilename>
										</logginginfo>
										<colorinfo>
											<lut></lut>
											<lut1></lut1>
											<asc_sop></asc_sop>
											<asc_sat></asc_sat>
											<lut2></lut2>
										</colorinfo>
										<labels>
											<label2>Iris</label2>
										</labels>
									</clipitem>
									<clipitem id="clipitem-136">
										<masterclipid>masterclip-44</masterclipid>
										<name>20211013_072525.mp4</name>
										<enabled>TRUE</enabled>
										<duration>19781</duration>
										<rate>
											<timebase>59</timebase>
											<ntsc>FALSE</ntsc>
										</rate>
										<start>4083</start>
										<end>8854</end>
										<in>4083</in>
										<out>8854</out>
										<pproTicksIn>17289038529111</pproTicksIn>
										<pproTicksOut>37491341449118</pproTicksOut>
										<alphatype>none</alphatype>
										<file id="file-44"/>
										<link>
											<linkclipref>clipitem-136</linkclipref>
											<mediatype>video</mediatype>
											<trackindex>1</trackindex>
											<clipindex>7</clipindex>
										</link>
										<link>
											<linkclipref>clipitem-152</linkclipref>
											<mediatype>audio</mediatype>
											<trackindex>1</trackindex>
											<clipindex>7</clipindex>
											<groupindex>1</groupindex>
										</link>
										<link>
											<linkclipref>clipitem-168</linkclipref>
											<mediatype>audio</mediatype>
											<trackindex>2</trackindex>
											<clipindex>7</clipindex>
											<groupindex>1</groupindex>
										</link>
										<logginginfo>
											<description></description>
											<scene></scene>
											<shottake></shottake>
											<lognote></lognote>
											<good></good>
											<originalvideofilename></originalvideofilename>
											<originalaudiofilename></originalaudiofilename>
										</logginginfo>
										<colorinfo>
											<lut></lut>
											<lut1></lut1>
											<asc_sop></asc_sop>
											<asc_sat></asc_sat>
											<lut2></lut2>
										</colorinfo>
										<labels>
											<label2>Iris</label2>
										</labels>
									</clipitem>
									<clipitem id="clipitem-137">
										<masterclipid>masterclip-44</masterclipid>
										<name>20211013_072525.mp4</name>
										<enabled>TRUE</enabled>
										<duration>19781</duration>
										<rate>
											<timebase>59</timebase>
											<ntsc>FALSE</ntsc>
										</rate>
										<start>8854</start>
										<end>9622</end>
										<in>8854</in>
										<out>9622</out>
										<pproTicksIn>37491341449118</pproTicksIn>
										<pproTicksOut>40743357513374</pproTicksOut>
										<alphatype>none</alphatype>
										<file id="file-44"/>
										<link>
											<linkclipref>clipitem-137</linkclipref>
											<mediatype>video</mediatype>
											<trackindex>1</trackindex>
											<clipindex>8</clipindex>
										</link>
										<link>
											<linkclipref>clipitem-153</linkclipref>
											<mediatype>audio</mediatype>
											<trackindex>1</trackindex>
											<clipindex>8</clipindex>
											<groupindex>1</groupindex>
										</link>
										<link>
											<linkclipref>clipitem-169</linkclipref>
											<mediatype>audio</mediatype>
											<trackindex>2</trackindex>
											<clipindex>8</clipindex>
											<groupindex>1</groupindex>
										</link>
										<logginginfo>
											<description></description>
											<scene></scene>
											<shottake></shottake>
											<lognote></lognote>
											<good></good>
											<originalvideofilename></originalvideofilename>
											<originalaudiofilename></originalaudiofilename>
										</logginginfo>
										<colorinfo>
											<lut></lut>
											<lut1></lut1>
											<asc_sop></asc_sop>
											<asc_sat></asc_sat>
											<lut2></lut2>
										</colorinfo>
										<labels>
											<label2>Iris</label2>
										</labels>
									</clipitem>
									<clipitem id="clipitem-138">
										<masterclipid>masterclip-44</masterclipid>
										<name>20211013_072525.mp4</name>
										<enabled>TRUE</enabled>
										<duration>19781</duration>
										<rate>
											<timebase>59</timebase>
											<ntsc>FALSE</ntsc>
										</rate>
										<start>9622</start>
										<end>12082</end>
										<in>9622</in>
										<out>12082</out>
										<pproTicksIn>40743357513374</pproTicksIn>
										<pproTicksOut>51159971469194</pproTicksOut>
										<alphatype>none</alphatype>
										<file id="file-44"/>
										<link>
											<linkclipref>clipitem-138</linkclipref>
											<mediatype>video</mediatype>
											<trackindex>1</trackindex>
											<clipindex>9</clipindex>
										</link>
										<link>
											<linkclipref>clipitem-154</linkclipref>
											<mediatype>audio</mediatype>
											<trackindex>1</trackindex>
											<clipindex>9</clipindex>
											<groupindex>1</groupindex>
										</link>
										<link>
											<linkclipref>clipitem-170</linkclipref>
											<mediatype>audio</mediatype>
											<trackindex>2</trackindex>
											<clipindex>9</clipindex>
											<groupindex>1</groupindex>
										</link>
										<logginginfo>
											<description></description>
											<scene></scene>
											<shottake></shottake>
											<lognote></lognote>
											<good></good>
											<originalvideofilename></originalvideofilename>
											<originalaudiofilename></originalaudiofilename>
										</logginginfo>
										<colorinfo>
											<lut></lut>
											<lut1></lut1>
											<asc_sop></asc_sop>
											<asc_sat></asc_sat>
											<lut2></lut2>
										</colorinfo>
										<labels>
											<label2>Iris</label2>
										</labels>
									</clipitem>
									<clipitem id="clipitem-139">
										<masterclipid>masterclip-44</masterclipid>
										<name>20211013_072525.mp4</name>
										<enabled>TRUE</enabled>
										<duration>19781</duration>
										<rate>
											<timebase>59</timebase>
											<ntsc>FALSE</ntsc>
										</rate>
										<start>12082</start>
										<end>12769</end>
										<in>12082</in>
										<out>12769</out>
										<pproTicksIn>51159971469194</pproTicksIn>
										<pproTicksOut>54069001464173</pproTicksOut>
										<alphatype>none</alphatype>
										<file id="file-44"/>
										<link>
											<linkclipref>clipitem-139</linkclipref>
											<mediatype>video</mediatype>
											<trackindex>1</trackindex>
											<clipindex>10</clipindex>
										</link>
										<link>
											<linkclipref>clipitem-155</linkclipref>
											<mediatype>audio</mediatype>
											<trackindex>1</trackindex>
											<clipindex>10</clipindex>
											<groupindex>1</groupindex>
										</link>
										<link>
											<linkclipref>clipitem-171</linkclipref>
											<mediatype>audio</mediatype>
											<trackindex>2</trackindex>
											<clipindex>10</clipindex>
											<groupindex>1</groupindex>
										</link>
										<logginginfo>
											<description></description>
											<scene></scene>
											<shottake></shottake>
											<lognote></lognote>
											<good></good>
											<originalvideofilename></originalvideofilename>
											<originalaudiofilename></originalaudiofilename>
										</logginginfo>
										<colorinfo>
											<lut></lut>
											<lut1></lut1>
											<asc_sop></asc_sop>
											<asc_sat></asc_sat>
											<lut2></lut2>
										</colorinfo>
										<labels>
											<label2>Iris</label2>
										</labels>
									</clipitem>
									<clipitem id="clipitem-140">
										<masterclipid>masterclip-44</masterclipid>
										<name>20211013_072525.mp4</name>
										<enabled>TRUE</enabled>
										<duration>19781</duration>
										<rate>
											<timebase>59</timebase>
											<ntsc>FALSE</ntsc>
										</rate>
										<start>12769</start>
										<end>13666</end>
										<in>12769</in>
										<out>13666</out>
										<pproTicksIn>54069001464173</pproTicksIn>
										<pproTicksOut>57867254601722</pproTicksOut>
										<alphatype>none</alphatype>
										<file id="file-44"/>
										<link>
											<linkclipref>clipitem-140</linkclipref>
											<mediatype>video</mediatype>
											<trackindex>1</trackindex>
											<clipindex>11</clipindex>
										</link>
										<link>
											<linkclipref>clipitem-156</linkclipref>
											<mediatype>audio</mediatype>
											<trackindex>1</trackindex>
											<clipindex>11</clipindex>
											<groupindex>1</groupindex>
										</link>
										<link>
											<linkclipref>clipitem-172</linkclipref>
											<mediatype>audio</mediatype>
											<trackindex>2</trackindex>
											<clipindex>11</clipindex>
											<groupindex>1</groupindex>
										</link>
										<logginginfo>
											<description></description>
											<scene></scene>
											<shottake></shottake>
											<lognote></lognote>
											<good></good>
											<originalvideofilename></originalvideofilename>
											<originalaudiofilename></originalaudiofilename>
										</logginginfo>
										<colorinfo>
											<lut></lut>
											<lut1></lut1>
											<asc_sop></asc_sop>
											<asc_sat></asc_sat>
											<lut2></lut2>
										</colorinfo>
										<labels>
											<label2>Iris</label2>
										</labels>
									</clipitem>
									<clipitem id="clipitem-141">
										<masterclipid>masterclip-44</masterclipid>
										<name>20211013_072525.mp4</name>
										<enabled>TRUE</enabled>
										<duration>19781</duration>
										<rate>
											<timebase>59</timebase>
											<ntsc>FALSE</ntsc>
										</rate>
										<start>13666</start>
										<end>14830</end>
										<in>13666</in>
										<out>14830</out>
										<pproTicksIn>57867254601722</pproTicksIn>
										<pproTicksOut>62796091449110</pproTicksOut>
										<alphatype>none</alphatype>
										<file id="file-44"/>
										<link>
											<linkclipref>clipitem-141</linkclipref>
											<mediatype>video</mediatype>
											<trackindex>1</trackindex>
											<clipindex>12</clipindex>
										</link>
										<link>
											<linkclipref>clipitem-157</linkclipref>
											<mediatype>audio</mediatype>
											<trackindex>1</trackindex>
											<clipindex>12</clipindex>
											<groupindex>1</groupindex>
										</link>
										<link>
											<linkclipref>clipitem-173</linkclipref>
											<mediatype>audio</mediatype>
											<trackindex>2</trackindex>
											<clipindex>12</clipindex>
											<groupindex>1</groupindex>
										</link>
										<logginginfo>
											<description></description>
											<scene></scene>
											<shottake></shottake>
											<lognote></lognote>
											<good></good>
											<originalvideofilename></originalvideofilename>
											<originalaudiofilename></originalaudiofilename>
										</logginginfo>
										<colorinfo>
											<lut></lut>
											<lut1></lut1>
											<asc_sop></asc_sop>
											<asc_sat></asc_sat>
											<lut2></lut2>
										</colorinfo>
										<labels>
											<label2>Iris</label2>
										</labels>
									</clipitem>
									<clipitem id="clipitem-142">
										<masterclipid>masterclip-44</masterclipid>
										<name>20211013_072525.mp4</name>
										<enabled>TRUE</enabled>
										<duration>19781</duration>
										<rate>
											<timebase>59</timebase>
											<ntsc>FALSE</ntsc>
										</rate>
										<start>14830</start>
										<end>15758</end>
										<in>14830</in>
										<out>15758</out>
										<pproTicksIn>62796091449110</pproTicksIn>
										<pproTicksOut>66725610860086</pproTicksOut>
										<alphatype>none</alphatype>
										<file id="file-44"/>
										<link>
											<linkclipref>clipitem-142</linkclipref>
											<mediatype>video</mediatype>
											<trackindex>1</trackindex>
											<clipindex>13</clipindex>
										</link>
										<link>
											<linkclipref>clipitem-158</linkclipref>
											<mediatype>audio</mediatype>
											<trackindex>1</trackindex>
											<clipindex>13</clipindex>
											<groupindex>1</groupindex>
										</link>
										<link>
											<linkclipref>clipitem-174</linkclipref>
											<mediatype>audio</mediatype>
											<trackindex>2</trackindex>
											<clipindex>13</clipindex>
											<groupindex>1</groupindex>
										</link>
										<logginginfo>
											<description></description>
											<scene></scene>
											<shottake></shottake>
											<lognote></lognote>
											<good></good>
											<originalvideofilename></originalvideofilename>
											<originalaudiofilename></originalaudiofilename>
										</logginginfo>
										<colorinfo>
											<lut></lut>
											<lut1></lut1>
											<asc_sop></asc_sop>
											<asc_sat></asc_sat>
											<lut2></lut2>
										</colorinfo>
										<labels>
											<label2>Iris</label2>
										</labels>
									</clipitem>
									<clipitem id="clipitem-143">
										<masterclipid>masterclip-44</masterclipid>
										<name>20211013_072525.mp4</name>
										<enabled>TRUE</enabled>
										<duration>19781</duration>
										<rate>
											<timebase>59</timebase>
											<ntsc>FALSE</ntsc>
										</rate>
										<start>15758</start>
										<end>16425</end>
										<in>15758</in>
										<out>16425</out>
										<pproTicksIn>66725610860086</pproTicksIn>
										<pproTicksOut>69549952936725</pproTicksOut>
										<alphatype>none</alphatype>
										<file id="file-44"/>
										<link>
											<linkclipref>clipitem-143</linkclipref>
											<mediatype>video</mediatype>
											<trackindex>1</trackindex>
											<clipindex>14</clipindex>
										</link>
										<link>
											<linkclipref>clipitem-159</linkclipref>
											<mediatype>audio</mediatype>
											<trackindex>1</trackindex>
											<clipindex>14</clipindex>
											<groupindex>1</groupindex>
										</link>
										<link>
											<linkclipref>clipitem-175</linkclipref>
											<mediatype>audio</mediatype>
											<trackindex>2</trackindex>
											<clipindex>14</clipindex>
											<groupindex>1</groupindex>
										</link>
										<logginginfo>
											<description></description>
											<scene></scene>
											<shottake></shottake>
											<lognote></lognote>
											<good></good>
											<originalvideofilename></originalvideofilename>
											<originalaudiofilename></originalaudiofilename>
										</logginginfo>
										<colorinfo>
											<lut></lut>
											<lut1></lut1>
											<asc_sop></asc_sop>
											<asc_sat></asc_sat>
											<lut2></lut2>
										</colorinfo>
										<labels>
											<label2>Iris</label2>
										</labels>
									</clipitem>
									<clipitem id="clipitem-144">
										<masterclipid>masterclip-44</masterclipid>
										<name>20211013_072525.mp4</name>
										<enabled>TRUE</enabled>
										<duration>19781</duration>
										<rate>
											<timebase>59</timebase>
											<ntsc>FALSE</ntsc>
										</rate>
										<start>16425</start>
										<end>17378</end>
										<in>16425</in>
										<out>17378</out>
										<pproTicksIn>69549952936725</pproTicksIn>
										<pproTicksOut>73585332245626</pproTicksOut>
										<alphatype>none</alphatype>
										<file id="file-44"/>
										<link>
											<linkclipref>clipitem-144</linkclipref>
											<mediatype>video</mediatype>
											<trackindex>1</trackindex>
											<clipindex>15</clipindex>
										</link>
										<link>
											<linkclipref>clipitem-160</linkclipref>
											<mediatype>audio</mediatype>
											<trackindex>1</trackindex>
											<clipindex>15</clipindex>
											<groupindex>1</groupindex>
										</link>
										<link>
											<linkclipref>clipitem-176</linkclipref>
											<mediatype>audio</mediatype>
											<trackindex>2</trackindex>
											<clipindex>15</clipindex>
											<groupindex>1</groupindex>
										</link>
										<logginginfo>
											<description></description>
											<scene></scene>
											<shottake></shottake>
											<lognote></lognote>
											<good></good>
											<originalvideofilename></originalvideofilename>
											<originalaudiofilename></originalaudiofilename>
										</logginginfo>
										<colorinfo>
											<lut></lut>
											<lut1></lut1>
											<asc_sop></asc_sop>
											<asc_sat></asc_sat>
											<lut2></lut2>
										</colorinfo>
										<labels>
											<label2>Iris</label2>
										</labels>
									</clipitem>
									<clipitem id="clipitem-145">
										<masterclipid>masterclip-44</masterclipid>
										<name>20211013_072525.mp4</name>
										<enabled>TRUE</enabled>
										<duration>19781</duration>
										<rate>
											<timebase>59</timebase>
											<ntsc>FALSE</ntsc>
										</rate>
										<start>17378</start>
										<end>19186</end>
										<in>17378</in>
										<out>19186</out>
										<pproTicksIn>73585332245626</pproTicksIn>
										<pproTicksOut>81241120063562</pproTicksOut>
										<alphatype>none</alphatype>
										<file id="file-44"/>
										<link>
											<linkclipref>clipitem-145</linkclipref>
											<mediatype>video</mediatype>
											<trackindex>1</trackindex>
											<clipindex>16</clipindex>
										</link>
										<link>
											<linkclipref>clipitem-161</linkclipref>
											<mediatype>audio</mediatype>
											<trackindex>1</trackindex>
											<clipindex>16</clipindex>
											<groupindex>1</groupindex>
										</link>
										<link>
											<linkclipref>clipitem-177</linkclipref>
											<mediatype>audio</mediatype>
											<trackindex>2</trackindex>
											<clipindex>16</clipindex>
											<groupindex>1</groupindex>
										</link>
										<logginginfo>
											<description></description>
											<scene></scene>
											<shottake></shottake>
											<lognote></lognote>
											<good></good>
											<originalvideofilename></originalvideofilename>
											<originalaudiofilename></originalaudiofilename>
										</logginginfo>
										<colorinfo>
											<lut></lut>
											<lut1></lut1>
											<asc_sop></asc_sop>
											<asc_sat></asc_sat>
											<lut2></lut2>
										</colorinfo>
										<labels>
											<label2>Iris</label2>
										</labels>
									</clipitem>
									<enabled>TRUE</enabled>
									<locked>FALSE</locked>
								</track>
								<track TL.SQTrackExpandedHeight="25" TL.SQTrackExpanded="0" MZ.TrackTargeted="0" MZ.TrackName="Video 2">
									<enabled>TRUE</enabled>
									<locked>FALSE</locked>
								</track>
								<track TL.SQTrackExpandedHeight="25" TL.SQTrackExpanded="0" MZ.TrackTargeted="0" MZ.TrackName="Video 3">
									<enabled>TRUE</enabled>
									<locked>FALSE</locked>
								</track>
							</video>
							<audio>
								<numOutputChannels>2</numOutputChannels>
								<format>
									<samplecharacteristics>
										<depth>16</depth>
										<samplerate>48000</samplerate>
									</samplecharacteristics>
								</format>
								<outputs>
									<group>
										<index>1</index>
										<numchannels>1</numchannels>
										<downmix>0</downmix>
										<channel>
											<index>1</index>
										</channel>
									</group>
									<group>
										<index>2</index>
										<numchannels>1</numchannels>
										<downmix>0</downmix>
										<channel>
											<index>2</index>
										</channel>
									</group>
								</outputs>
								<track TL.SQTrackExpandedHeight="25" TL.SQTrackExpanded="0" MZ.TrackTargeted="1" MZ.TrackName="Audio 1" PannerCurrentValue="0.5" PannerIsInverted="true" PannerStartKeyframe="-91445760000000000,0.5,0,0,0,0,0,0" PannerName="Balance" currentExplodedTrackIndex="0" totalExplodedTrackCount="2" premiereTrackType="Stereo">
									<clipitem id="clipitem-146" premiereChannelType="stereo">
										<masterclipid>masterclip-44</masterclipid>
										<name>20211013_072525.mp4</name>
										<enabled>TRUE</enabled>
										<duration>19781</duration>
										<rate>
											<timebase>59</timebase>
											<ntsc>FALSE</ntsc>
										</rate>
										<start>0</start>
										<end>384</end>
										<in>0</in>
										<out>384</out>
										<pproTicksIn>0</pproTicksIn>
										<pproTicksOut>1626008032128</pproTicksOut>
										<file id="file-44"/>
										<sourcetrack>
											<mediatype>audio</mediatype>
											<trackindex>1</trackindex>
										</sourcetrack>
										<link>
											<linkclipref>clipitem-130</linkclipref>
											<mediatype>video</mediatype>
											<trackindex>1</trackindex>
											<clipindex>1</clipindex>
										</link>
										<link>
											<linkclipref>clipitem-146</linkclipref>
											<mediatype>audio</mediatype>
											<trackindex>1</trackindex>
											<clipindex>1</clipindex>
											<groupindex>1</groupindex>
										</link>
										<link>
											<linkclipref>clipitem-162</linkclipref>
											<mediatype>audio</mediatype>
											<trackindex>2</trackindex>
											<clipindex>1</clipindex>
											<groupindex>1</groupindex>
										</link>
										<logginginfo>
											<description></description>
											<scene></scene>
											<shottake></shottake>
											<lognote></lognote>
											<good></good>
											<originalvideofilename></originalvideofilename>
											<originalaudiofilename></originalaudiofilename>
										</logginginfo>
										<colorinfo>
											<lut></lut>
											<lut1></lut1>
											<asc_sop></asc_sop>
											<asc_sat></asc_sat>
											<lut2></lut2>
										</colorinfo>
										<labels>
											<label2>Iris</label2>
										</labels>
									</clipitem>
									<clipitem id="clipitem-147" premiereChannelType="stereo">
										<masterclipid>masterclip-44</masterclipid>
										<name>20211013_072525.mp4</name>
										<enabled>TRUE</enabled>
										<duration>19781</duration>
										<rate>
											<timebase>59</timebase>
											<ntsc>FALSE</ntsc>
										</rate>
										<start>384</start>
										<end>1074</end>
										<in>384</in>
										<out>1074</out>
										<pproTicksIn>1626008032128</pproTicksIn>
										<pproTicksOut>4547741214858</pproTicksOut>
										<file id="file-44"/>
										<sourcetrack>
											<mediatype>audio</mediatype>
											<trackindex>1</trackindex>
										</sourcetrack>
										<link>
											<linkclipref>clipitem-131</linkclipref>
											<mediatype>video</mediatype>
											<trackindex>1</trackindex>
											<clipindex>2</clipindex>
										</link>
										<link>
											<linkclipref>clipitem-147</linkclipref>
											<mediatype>audio</mediatype>
											<trackindex>1</trackindex>
											<clipindex>2</clipindex>
											<groupindex>1</groupindex>
										</link>
										<link>
											<linkclipref>clipitem-163</linkclipref>
											<mediatype>audio</mediatype>
											<trackindex>2</trackindex>
											<clipindex>2</clipindex>
											<groupindex>1</groupindex>
										</link>
										<logginginfo>
											<description></description>
											<scene></scene>
											<shottake></shottake>
											<lognote></lognote>
											<good></good>
											<originalvideofilename></originalvideofilename>
											<originalaudiofilename></originalaudiofilename>
										</logginginfo>
										<colorinfo>
											<lut></lut>
											<lut1></lut1>
											<asc_sop></asc_sop>
											<asc_sat></asc_sat>
											<lut2></lut2>
										</colorinfo>
										<labels>
											<label2>Iris</label2>
										</labels>
									</clipitem>
									<clipitem id="clipitem-148" premiereChannelType="stereo">
										<masterclipid>masterclip-44</masterclipid>
										<name>20211013_072525.mp4</name>
										<enabled>TRUE</enabled>
										<duration>19781</duration>
										<rate>
											<timebase>59</timebase>
											<ntsc>FALSE</ntsc>
										</rate>
										<start>1074</start>
										<end>1404</end>
										<in>1074</in>
										<out>1404</out>
										<pproTicksIn>4547741214858</pproTicksIn>
										<pproTicksOut>5945091867468</pproTicksOut>
										<file id="file-44"/>
										<sourcetrack>
											<mediatype>audio</mediatype>
											<trackindex>1</trackindex>
										</sourcetrack>
										<link>
											<linkclipref>clipitem-132</linkclipref>
											<mediatype>video</mediatype>
											<trackindex>1</trackindex>
											<clipindex>3</clipindex>
										</link>
										<link>
											<linkclipref>clipitem-148</linkclipref>
											<mediatype>audio</mediatype>
											<trackindex>1</trackindex>
											<clipindex>3</clipindex>
											<groupindex>1</groupindex>
										</link>
										<link>
											<linkclipref>clipitem-164</linkclipref>
											<mediatype>audio</mediatype>
											<trackindex>2</trackindex>
											<clipindex>3</clipindex>
											<groupindex>1</groupindex>
										</link>
										<logginginfo>
											<description></description>
											<scene></scene>
											<shottake></shottake>
											<lognote></lognote>
											<good></good>
											<originalvideofilename></originalvideofilename>
											<originalaudiofilename></originalaudiofilename>
										</logginginfo>
										<colorinfo>
											<lut></lut>
											<lut1></lut1>
											<asc_sop></asc_sop>
											<asc_sat></asc_sat>
											<lut2></lut2>
										</colorinfo>
										<labels>
											<label2>Iris</label2>
										</labels>
									</clipitem>
									<clipitem id="clipitem-149" premiereChannelType="stereo">
										<masterclipid>masterclip-44</masterclipid>
										<name>20211013_072525.mp4</name>
										<enabled>TRUE</enabled>
										<duration>19781</duration>
										<rate>
											<timebase>59</timebase>
											<ntsc>FALSE</ntsc>
										</rate>
										<start>1404</start>
										<end>2473</end>
										<in>1404</in>
										<out>2473</out>
										<pproTicksIn>5945091867468</pproTicksIn>
										<pproTicksOut>10471661102741</pproTicksOut>
										<file id="file-44"/>
										<sourcetrack>
											<mediatype>audio</mediatype>
											<trackindex>1</trackindex>
										</sourcetrack>
										<link>
											<linkclipref>clipitem-133</linkclipref>
											<mediatype>video</mediatype>
											<trackindex>1</trackindex>
											<clipindex>4</clipindex>
										</link>
										<link>
											<linkclipref>clipitem-149</linkclipref>
											<mediatype>audio</mediatype>
											<trackindex>1</trackindex>
											<clipindex>4</clipindex>
											<groupindex>1</groupindex>
										</link>
										<link>
											<linkclipref>clipitem-165</linkclipref>
											<mediatype>audio</mediatype>
											<trackindex>2</trackindex>
											<clipindex>4</clipindex>
											<groupindex>1</groupindex>
										</link>
										<logginginfo>
											<description></description>
											<scene></scene>
											<shottake></shottake>
											<lognote></lognote>
											<good></good>
											<originalvideofilename></originalvideofilename>
											<originalaudiofilename></originalaudiofilename>
										</logginginfo>
										<colorinfo>
											<lut></lut>
											<lut1></lut1>
											<asc_sop></asc_sop>
											<asc_sat></asc_sat>
											<lut2></lut2>
										</colorinfo>
										<labels>
											<label2>Iris</label2>
										</labels>
									</clipitem>
									<clipitem id="clipitem-150" premiereChannelType="stereo">
										<masterclipid>masterclip-44</masterclipid>
										<name>20211013_072525.mp4</name>
										<enabled>TRUE</enabled>
										<duration>19781</duration>
										<rate>
											<timebase>59</timebase>
											<ntsc>FALSE</ntsc>
										</rate>
										<start>2473</start>
										<end>3059</end>
										<in>2473</in>
										<out>3059</out>
										<pproTicksIn>10471661102741</pproTicksIn>
										<pproTicksOut>12953017110103</pproTicksOut>
										<file id="file-44"/>
										<sourcetrack>
											<mediatype>audio</mediatype>
											<trackindex>1</trackindex>
										</sourcetrack>
										<link>
											<linkclipref>clipitem-134</linkclipref>
											<mediatype>video</mediatype>
											<trackindex>1</trackindex>
											<clipindex>5</clipindex>
										</link>
										<link>
											<linkclipref>clipitem-150</linkclipref>
											<mediatype>audio</mediatype>
											<trackindex>1</trackindex>
											<clipindex>5</clipindex>
											<groupindex>1</groupindex>
										</link>
										<link>
											<linkclipref>clipitem-166</linkclipref>
											<mediatype>audio</mediatype>
											<trackindex>2</trackindex>
											<clipindex>5</clipindex>
											<groupindex>1</groupindex>
										</link>
										<logginginfo>
											<description></description>
											<scene></scene>
											<shottake></shottake>
											<lognote></lognote>
											<good></good>
											<originalvideofilename></originalvideofilename>
											<originalaudiofilename></originalaudiofilename>
										</logginginfo>
										<colorinfo>
											<lut></lut>
											<lut1></lut1>
											<asc_sop></asc_sop>
											<asc_sat></asc_sat>
											<lut2></lut2>
										</colorinfo>
										<labels>
											<label2>Iris</label2>
										</labels>
									</clipitem>
									<clipitem id="clipitem-151" premiereChannelType="stereo">
										<masterclipid>masterclip-44</masterclipid>
										<name>20211013_072525.mp4</name>
										<enabled>TRUE</enabled>
										<duration>19781</duration>
										<rate>
											<timebase>59</timebase>
											<ntsc>FALSE</ntsc>
										</rate>
										<start>3059</start>
										<end>4083</end>
										<in>3059</in>
										<out>4083</out>
										<pproTicksIn>12953017110103</pproTicksIn>
										<pproTicksOut>17289038529111</pproTicksOut>
										<file id="file-44"/>
										<sourcetrack>
											<mediatype>audio</mediatype>
											<trackindex>1</trackindex>
										</sourcetrack>
										<link>
											<linkclipref>clipitem-135</linkclipref>
											<mediatype>video</mediatype>
											<trackindex>1</trackindex>
											<clipindex>6</clipindex>
										</link>
										<link>
											<linkclipref>clipitem-151</linkclipref>
											<mediatype>audio</mediatype>
											<trackindex>1</trackindex>
											<clipindex>6</clipindex>
											<groupindex>1</groupindex>
										</link>
										<link>
											<linkclipref>clipitem-167</linkclipref>
											<mediatype>audio</mediatype>
											<trackindex>2</trackindex>
											<clipindex>6</clipindex>
											<groupindex>1</groupindex>
										</link>
										<logginginfo>
											<description></description>
											<scene></scene>
											<shottake></shottake>
											<lognote></lognote>
											<good></good>
											<originalvideofilename></originalvideofilename>
											<originalaudiofilename></originalaudiofilename>
										</logginginfo>
										<colorinfo>
											<lut></lut>
											<lut1></lut1>
											<asc_sop></asc_sop>
											<asc_sat></asc_sat>
											<lut2></lut2>
										</colorinfo>
										<labels>
											<label2>Iris</label2>
										</labels>
									</clipitem>
									<clipitem id="clipitem-152" premiereChannelType="stereo">
										<masterclipid>masterclip-44</masterclipid>
										<name>20211013_072525.mp4</name>
										<enabled>TRUE</enabled>
										<duration>19781</duration>
										<rate>
											<timebase>59</timebase>
											<ntsc>FALSE</ntsc>
										</rate>
										<start>4083</start>
										<end>8854</end>
										<in>4083</in>
										<out>8854</out>
										<pproTicksIn>17289038529111</pproTicksIn>
										<pproTicksOut>37491341449118</pproTicksOut>
										<file id="file-44"/>
										<sourcetrack>
											<mediatype>audio</mediatype>
											<trackindex>1</trackindex>
										</sourcetrack>
										<link>
											<linkclipref>clipitem-136</linkclipref>
											<mediatype>video</mediatype>
											<trackindex>1</trackindex>
											<clipindex>7</clipindex>
										</link>
										<link>
											<linkclipref>clipitem-152</linkclipref>
											<mediatype>audio</mediatype>
											<trackindex>1</trackindex>
											<clipindex>7</clipindex>
											<groupindex>1</groupindex>
										</link>
										<link>
											<linkclipref>clipitem-168</linkclipref>
											<mediatype>audio</mediatype>
											<trackindex>2</trackindex>
											<clipindex>7</clipindex>
											<groupindex>1</groupindex>
										</link>
										<logginginfo>
											<description></description>
											<scene></scene>
											<shottake></shottake>
											<lognote></lognote>
											<good></good>
											<originalvideofilename></originalvideofilename>
											<originalaudiofilename></originalaudiofilename>
										</logginginfo>
										<colorinfo>
											<lut></lut>
											<lut1></lut1>
											<asc_sop></asc_sop>
											<asc_sat></asc_sat>
											<lut2></lut2>
										</colorinfo>
										<labels>
											<label2>Iris</label2>
										</labels>
									</clipitem>
									<clipitem id="clipitem-153" premiereChannelType="stereo">
										<masterclipid>masterclip-44</masterclipid>
										<name>20211013_072525.mp4</name>
										<enabled>TRUE</enabled>
										<duration>19781</duration>
										<rate>
											<timebase>59</timebase>
											<ntsc>FALSE</ntsc>
										</rate>
										<start>8854</start>
										<end>9622</end>
										<in>8854</in>
										<out>9622</out>
										<pproTicksIn>37491341449118</pproTicksIn>
										<pproTicksOut>40743357513374</pproTicksOut>
										<file id="file-44"/>
										<sourcetrack>
											<mediatype>audio</mediatype>
											<trackindex>1</trackindex>
										</sourcetrack>
										<link>
											<linkclipref>clipitem-137</linkclipref>
											<mediatype>video</mediatype>
											<trackindex>1</trackindex>
											<clipindex>8</clipindex>
										</link>
										<link>
											<linkclipref>clipitem-153</linkclipref>
											<mediatype>audio</mediatype>
											<trackindex>1</trackindex>
											<clipindex>8</clipindex>
											<groupindex>1</groupindex>
										</link>
										<link>
											<linkclipref>clipitem-169</linkclipref>
											<mediatype>audio</mediatype>
											<trackindex>2</trackindex>
											<clipindex>8</clipindex>
											<groupindex>1</groupindex>
										</link>
										<logginginfo>
											<description></description>
											<scene></scene>
											<shottake></shottake>
											<lognote></lognote>
											<good></good>
											<originalvideofilename></originalvideofilename>
											<originalaudiofilename></originalaudiofilename>
										</logginginfo>
										<colorinfo>
											<lut></lut>
											<lut1></lut1>
											<asc_sop></asc_sop>
											<asc_sat></asc_sat>
											<lut2></lut2>
										</colorinfo>
										<labels>
											<label2>Iris</label2>
										</labels>
									</clipitem>
									<clipitem id="clipitem-154" premiereChannelType="stereo">
										<masterclipid>masterclip-44</masterclipid>
										<name>20211013_072525.mp4</name>
										<enabled>TRUE</enabled>
										<duration>19781</duration>
										<rate>
											<timebase>59</timebase>
											<ntsc>FALSE</ntsc>
										</rate>
										<start>9622</start>
										<end>12082</end>
										<in>9622</in>
										<out>12082</out>
										<pproTicksIn>40743357513374</pproTicksIn>
										<pproTicksOut>51159971469194</pproTicksOut>
										<file id="file-44"/>
										<sourcetrack>
											<mediatype>audio</mediatype>
											<trackindex>1</trackindex>
										</sourcetrack>
										<link>
											<linkclipref>clipitem-138</linkclipref>
											<mediatype>video</mediatype>
											<trackindex>1</trackindex>
											<clipindex>9</clipindex>
										</link>
										<link>
											<linkclipref>clipitem-154</linkclipref>
											<mediatype>audio</mediatype>
											<trackindex>1</trackindex>
											<clipindex>9</clipindex>
											<groupindex>1</groupindex>
										</link>
										<link>
											<linkclipref>clipitem-170</linkclipref>
											<mediatype>audio</mediatype>
											<trackindex>2</trackindex>
											<clipindex>9</clipindex>
											<groupindex>1</groupindex>
										</link>
										<logginginfo>
											<description></description>
											<scene></scene>
											<shottake></shottake>
											<lognote></lognote>
											<good></good>
											<originalvideofilename></originalvideofilename>
											<originalaudiofilename></originalaudiofilename>
										</logginginfo>
										<colorinfo>
											<lut></lut>
											<lut1></lut1>
											<asc_sop></asc_sop>
											<asc_sat></asc_sat>
											<lut2></lut2>
										</colorinfo>
										<labels>
											<label2>Iris</label2>
										</labels>
									</clipitem>
									<clipitem id="clipitem-155" premiereChannelType="stereo">
										<masterclipid>masterclip-44</masterclipid>
										<name>20211013_072525.mp4</name>
										<enabled>TRUE</enabled>
										<duration>19781</duration>
										<rate>
											<timebase>59</timebase>
											<ntsc>FALSE</ntsc>
										</rate>
										<start>12082</start>
										<end>12769</end>
										<in>12082</in>
										<out>12769</out>
										<pproTicksIn>51159971469194</pproTicksIn>
										<pproTicksOut>54069001464173</pproTicksOut>
										<file id="file-44"/>
										<sourcetrack>
											<mediatype>audio</mediatype>
											<trackindex>1</trackindex>
										</sourcetrack>
										<link>
											<linkclipref>clipitem-139</linkclipref>
											<mediatype>video</mediatype>
											<trackindex>1</trackindex>
											<clipindex>10</clipindex>
										</link>
										<link>
											<linkclipref>clipitem-155</linkclipref>
											<mediatype>audio</mediatype>
											<trackindex>1</trackindex>
											<clipindex>10</clipindex>
											<groupindex>1</groupindex>
										</link>
										<link>
											<linkclipref>clipitem-171</linkclipref>
											<mediatype>audio</mediatype>
											<trackindex>2</trackindex>
											<clipindex>10</clipindex>
											<groupindex>1</groupindex>
										</link>
										<logginginfo>
											<description></description>
											<scene></scene>
											<shottake></shottake>
											<lognote></lognote>
											<good></good>
											<originalvideofilename></originalvideofilename>
											<originalaudiofilename></originalaudiofilename>
										</logginginfo>
										<colorinfo>
											<lut></lut>
											<lut1></lut1>
											<asc_sop></asc_sop>
											<asc_sat></asc_sat>
											<lut2></lut2>
										</colorinfo>
										<labels>
											<label2>Iris</label2>
										</labels>
									</clipitem>
									<clipitem id="clipitem-156" premiereChannelType="stereo">
										<masterclipid>masterclip-44</masterclipid>
										<name>20211013_072525.mp4</name>
										<enabled>TRUE</enabled>
										<duration>19781</duration>
										<rate>
											<timebase>59</timebase>
											<ntsc>FALSE</ntsc>
										</rate>
										<start>12769</start>
										<end>13666</end>
										<in>12769</in>
										<out>13666</out>
										<pproTicksIn>54069001464173</pproTicksIn>
										<pproTicksOut>57867254601722</pproTicksOut>
										<file id="file-44"/>
										<sourcetrack>
											<mediatype>audio</mediatype>
											<trackindex>1</trackindex>
										</sourcetrack>
										<link>
											<linkclipref>clipitem-140</linkclipref>
											<mediatype>video</mediatype>
											<trackindex>1</trackindex>
											<clipindex>11</clipindex>
										</link>
										<link>
											<linkclipref>clipitem-156</linkclipref>
											<mediatype>audio</mediatype>
											<trackindex>1</trackindex>
											<clipindex>11</clipindex>
											<groupindex>1</groupindex>
										</link>
										<link>
											<linkclipref>clipitem-172</linkclipref>
											<mediatype>audio</mediatype>
											<trackindex>2</trackindex>
											<clipindex>11</clipindex>
											<groupindex>1</groupindex>
										</link>
										<logginginfo>
											<description></description>
											<scene></scene>
											<shottake></shottake>
											<lognote></lognote>
											<good></good>
											<originalvideofilename></originalvideofilename>
											<originalaudiofilename></originalaudiofilename>
										</logginginfo>
										<colorinfo>
											<lut></lut>
											<lut1></lut1>
											<asc_sop></asc_sop>
											<asc_sat></asc_sat>
											<lut2></lut2>
										</colorinfo>
										<labels>
											<label2>Iris</label2>
										</labels>
									</clipitem>
									<clipitem id="clipitem-157" premiereChannelType="stereo">
										<masterclipid>masterclip-44</masterclipid>
										<name>20211013_072525.mp4</name>
										<enabled>TRUE</enabled>
										<duration>19781</duration>
										<rate>
											<timebase>59</timebase>
											<ntsc>FALSE</ntsc>
										</rate>
										<start>13666</start>
										<end>14830</end>
										<in>13666</in>
										<out>14830</out>
										<pproTicksIn>57867254601722</pproTicksIn>
										<pproTicksOut>62796091449110</pproTicksOut>
										<file id="file-44"/>
										<sourcetrack>
											<mediatype>audio</mediatype>
											<trackindex>1</trackindex>
										</sourcetrack>
										<link>
											<linkclipref>clipitem-141</linkclipref>
											<mediatype>video</mediatype>
											<trackindex>1</trackindex>
											<clipindex>12</clipindex>
										</link>
										<link>
											<linkclipref>clipitem-157</linkclipref>
											<mediatype>audio</mediatype>
											<trackindex>1</trackindex>
											<clipindex>12</clipindex>
											<groupindex>1</groupindex>
										</link>
										<link>
											<linkclipref>clipitem-173</linkclipref>
											<mediatype>audio</mediatype>
											<trackindex>2</trackindex>
											<clipindex>12</clipindex>
											<groupindex>1</groupindex>
										</link>
										<logginginfo>
											<description></description>
											<scene></scene>
											<shottake></shottake>
											<lognote></lognote>
											<good></good>
											<originalvideofilename></originalvideofilename>
											<originalaudiofilename></originalaudiofilename>
										</logginginfo>
										<colorinfo>
											<lut></lut>
											<lut1></lut1>
											<asc_sop></asc_sop>
											<asc_sat></asc_sat>
											<lut2></lut2>
										</colorinfo>
										<labels>
											<label2>Iris</label2>
										</labels>
									</clipitem>
									<clipitem id="clipitem-158" premiereChannelType="stereo">
										<masterclipid>masterclip-44</masterclipid>
										<name>20211013_072525.mp4</name>
										<enabled>TRUE</enabled>
										<duration>19781</duration>
										<rate>
											<timebase>59</timebase>
											<ntsc>FALSE</ntsc>
										</rate>
										<start>14830</start>
										<end>15758</end>
										<in>14830</in>
										<out>15758</out>
										<pproTicksIn>62796091449110</pproTicksIn>
										<pproTicksOut>66725610860086</pproTicksOut>
										<file id="file-44"/>
										<sourcetrack>
											<mediatype>audio</mediatype>
											<trackindex>1</trackindex>
										</sourcetrack>
										<link>
											<linkclipref>clipitem-142</linkclipref>
											<mediatype>video</mediatype>
											<trackindex>1</trackindex>
											<clipindex>13</clipindex>
										</link>
										<link>
											<linkclipref>clipitem-158</linkclipref>
											<mediatype>audio</mediatype>
											<trackindex>1</trackindex>
											<clipindex>13</clipindex>
											<groupindex>1</groupindex>
										</link>
										<link>
											<linkclipref>clipitem-174</linkclipref>
											<mediatype>audio</mediatype>
											<trackindex>2</trackindex>
											<clipindex>13</clipindex>
											<groupindex>1</groupindex>
										</link>
										<logginginfo>
											<description></description>
											<scene></scene>
											<shottake></shottake>
											<lognote></lognote>
											<good></good>
											<originalvideofilename></originalvideofilename>
											<originalaudiofilename></originalaudiofilename>
										</logginginfo>
										<colorinfo>
											<lut></lut>
											<lut1></lut1>
											<asc_sop></asc_sop>
											<asc_sat></asc_sat>
											<lut2></lut2>
										</colorinfo>
										<labels>
											<label2>Iris</label2>
										</labels>
									</clipitem>
									<clipitem id="clipitem-159" premiereChannelType="stereo">
										<masterclipid>masterclip-44</masterclipid>
										<name>20211013_072525.mp4</name>
										<enabled>TRUE</enabled>
										<duration>19781</duration>
										<rate>
											<timebase>59</timebase>
											<ntsc>FALSE</ntsc>
										</rate>
										<start>15758</start>
										<end>16425</end>
										<in>15758</in>
										<out>16425</out>
										<pproTicksIn>66725610860086</pproTicksIn>
										<pproTicksOut>69549952936725</pproTicksOut>
										<file id="file-44"/>
										<sourcetrack>
											<mediatype>audio</mediatype>
											<trackindex>1</trackindex>
										</sourcetrack>
										<link>
											<linkclipref>clipitem-143</linkclipref>
											<mediatype>video</mediatype>
											<trackindex>1</trackindex>
											<clipindex>14</clipindex>
										</link>
										<link>
											<linkclipref>clipitem-159</linkclipref>
											<mediatype>audio</mediatype>
											<trackindex>1</trackindex>
											<clipindex>14</clipindex>
											<groupindex>1</groupindex>
										</link>
										<link>
											<linkclipref>clipitem-175</linkclipref>
											<mediatype>audio</mediatype>
											<trackindex>2</trackindex>
											<clipindex>14</clipindex>
											<groupindex>1</groupindex>
										</link>
										<logginginfo>
											<description></description>
											<scene></scene>
											<shottake></shottake>
											<lognote></lognote>
											<good></good>
											<originalvideofilename></originalvideofilename>
											<originalaudiofilename></originalaudiofilename>
										</logginginfo>
										<colorinfo>
											<lut></lut>
											<lut1></lut1>
											<asc_sop></asc_sop>
											<asc_sat></asc_sat>
											<lut2></lut2>
										</colorinfo>
										<labels>
											<label2>Iris</label2>
										</labels>
									</clipitem>
									<clipitem id="clipitem-160" premiereChannelType="stereo">
										<masterclipid>masterclip-44</masterclipid>
										<name>20211013_072525.mp4</name>
										<enabled>TRUE</enabled>
										<duration>19781</duration>
										<rate>
											<timebase>59</timebase>
											<ntsc>FALSE</ntsc>
										</rate>
										<start>16425</start>
										<end>17378</end>
										<in>16425</in>
										<out>17378</out>
										<pproTicksIn>69549952936725</pproTicksIn>
										<pproTicksOut>73585332245626</pproTicksOut>
										<file id="file-44"/>
										<sourcetrack>
											<mediatype>audio</mediatype>
											<trackindex>1</trackindex>
										</sourcetrack>
										<link>
											<linkclipref>clipitem-144</linkclipref>
											<mediatype>video</mediatype>
											<trackindex>1</trackindex>
											<clipindex>15</clipindex>
										</link>
										<link>
											<linkclipref>clipitem-160</linkclipref>
											<mediatype>audio</mediatype>
											<trackindex>1</trackindex>
											<clipindex>15</clipindex>
											<groupindex>1</groupindex>
										</link>
										<link>
											<linkclipref>clipitem-176</linkclipref>
											<mediatype>audio</mediatype>
											<trackindex>2</trackindex>
											<clipindex>15</clipindex>
											<groupindex>1</groupindex>
										</link>
										<logginginfo>
											<description></description>
											<scene></scene>
											<shottake></shottake>
											<lognote></lognote>
											<good></good>
											<originalvideofilename></originalvideofilename>
											<originalaudiofilename></originalaudiofilename>
										</logginginfo>
										<colorinfo>
											<lut></lut>
											<lut1></lut1>
											<asc_sop></asc_sop>
											<asc_sat></asc_sat>
											<lut2></lut2>
										</colorinfo>
										<labels>
											<label2>Iris</label2>
										</labels>
									</clipitem>
									<clipitem id="clipitem-161" premiereChannelType="stereo">
										<masterclipid>masterclip-44</masterclipid>
										<name>20211013_072525.mp4</name>
										<enabled>TRUE</enabled>
										<duration>19781</duration>
										<rate>
											<timebase>59</timebase>
											<ntsc>FALSE</ntsc>
										</rate>
										<start>17378</start>
										<end>19186</end>
										<in>17378</in>
										<out>19186</out>
										<pproTicksIn>73585332245626</pproTicksIn>
										<pproTicksOut>81241120063562</pproTicksOut>
										<file id="file-44"/>
										<sourcetrack>
											<mediatype>audio</mediatype>
											<trackindex>1</trackindex>
										</sourcetrack>
										<link>
											<linkclipref>clipitem-145</linkclipref>
											<mediatype>video</mediatype>
											<trackindex>1</trackindex>
											<clipindex>16</clipindex>
										</link>
										<link>
											<linkclipref>clipitem-161</linkclipref>
											<mediatype>audio</mediatype>
											<trackindex>1</trackindex>
											<clipindex>16</clipindex>
											<groupindex>1</groupindex>
										</link>
										<link>
											<linkclipref>clipitem-177</linkclipref>
											<mediatype>audio</mediatype>
											<trackindex>2</trackindex>
											<clipindex>16</clipindex>
											<groupindex>1</groupindex>
										</link>
										<logginginfo>
											<description></description>
											<scene></scene>
											<shottake></shottake>
											<lognote></lognote>
											<good></good>
											<originalvideofilename></originalvideofilename>
											<originalaudiofilename></originalaudiofilename>
										</logginginfo>
										<colorinfo>
											<lut></lut>
											<lut1></lut1>
											<asc_sop></asc_sop>
											<asc_sat></asc_sat>
											<lut2></lut2>
										</colorinfo>
										<labels>
											<label2>Iris</label2>
										</labels>
									</clipitem>
									<enabled>TRUE</enabled>
									<locked>FALSE</locked>
									<outputchannelindex>1</outputchannelindex>
								</track>
								<track TL.SQTrackExpandedHeight="25" TL.SQTrackExpanded="0" MZ.TrackTargeted="1" MZ.TrackName="Audio 1" PannerCurrentValue="0.5" PannerIsInverted="true" PannerStartKeyframe="-91445760000000000,0.5,0,0,0,0,0,0" PannerName="Balance" currentExplodedTrackIndex="1" totalExplodedTrackCount="2" premiereTrackType="Stereo">
									<clipitem id="clipitem-162" premiereChannelType="stereo">
										<masterclipid>masterclip-44</masterclipid>
										<name>20211013_072525.mp4</name>
										<enabled>TRUE</enabled>
										<duration>19781</duration>
										<rate>
											<timebase>59</timebase>
											<ntsc>FALSE</ntsc>
										</rate>
										<start>0</start>
										<end>384</end>
										<in>0</in>
										<out>384</out>
										<pproTicksIn>0</pproTicksIn>
										<pproTicksOut>1626008032128</pproTicksOut>
										<file id="file-44"/>
										<sourcetrack>
											<mediatype>audio</mediatype>
											<trackindex>2</trackindex>
										</sourcetrack>
										<link>
											<linkclipref>clipitem-130</linkclipref>
											<mediatype>video</mediatype>
											<trackindex>1</trackindex>
											<clipindex>1</clipindex>
										</link>
										<link>
											<linkclipref>clipitem-146</linkclipref>
											<mediatype>audio</mediatype>
											<trackindex>1</trackindex>
											<clipindex>1</clipindex>
											<groupindex>1</groupindex>
										</link>
										<link>
											<linkclipref>clipitem-162</linkclipref>
											<mediatype>audio</mediatype>
											<trackindex>2</trackindex>
											<clipindex>1</clipindex>
											<groupindex>1</groupindex>
										</link>
										<logginginfo>
											<description></description>
											<scene></scene>
											<shottake></shottake>
											<lognote></lognote>
											<good></good>
											<originalvideofilename></originalvideofilename>
											<originalaudiofilename></originalaudiofilename>
										</logginginfo>
										<colorinfo>
											<lut></lut>
											<lut1></lut1>
											<asc_sop></asc_sop>
											<asc_sat></asc_sat>
											<lut2></lut2>
										</colorinfo>
										<labels>
											<label2>Iris</label2>
										</labels>
									</clipitem>
									<clipitem id="clipitem-163" premiereChannelType="stereo">
										<masterclipid>masterclip-44</masterclipid>
										<name>20211013_072525.mp4</name>
										<enabled>TRUE</enabled>
										<duration>19781</duration>
										<rate>
											<timebase>59</timebase>
											<ntsc>FALSE</ntsc>
										</rate>
										<start>384</start>
										<end>1074</end>
										<in>384</in>
										<out>1074</out>
										<pproTicksIn>1626008032128</pproTicksIn>
										<pproTicksOut>4547741214858</pproTicksOut>
										<file id="file-44"/>
										<sourcetrack>
											<mediatype>audio</mediatype>
											<trackindex>2</trackindex>
										</sourcetrack>
										<link>
											<linkclipref>clipitem-131</linkclipref>
											<mediatype>video</mediatype>
											<trackindex>1</trackindex>
											<clipindex>2</clipindex>
										</link>
										<link>
											<linkclipref>clipitem-147</linkclipref>
											<mediatype>audio</mediatype>
											<trackindex>1</trackindex>
											<clipindex>2</clipindex>
											<groupindex>1</groupindex>
										</link>
										<link>
											<linkclipref>clipitem-163</linkclipref>
											<mediatype>audio</mediatype>
											<trackindex>2</trackindex>
											<clipindex>2</clipindex>
											<groupindex>1</groupindex>
										</link>
										<logginginfo>
											<description></description>
											<scene></scene>
											<shottake></shottake>
											<lognote></lognote>
											<good></good>
											<originalvideofilename></originalvideofilename>
											<originalaudiofilename></originalaudiofilename>
										</logginginfo>
										<colorinfo>
											<lut></lut>
											<lut1></lut1>
											<asc_sop></asc_sop>
											<asc_sat></asc_sat>
											<lut2></lut2>
										</colorinfo>
										<labels>
											<label2>Iris</label2>
										</labels>
									</clipitem>
									<clipitem id="clipitem-164" premiereChannelType="stereo">
										<masterclipid>masterclip-44</masterclipid>
										<name>20211013_072525.mp4</name>
										<enabled>TRUE</enabled>
										<duration>19781</duration>
										<rate>
											<timebase>59</timebase>
											<ntsc>FALSE</ntsc>
										</rate>
										<start>1074</start>
										<end>1404</end>
										<in>1074</in>
										<out>1404</out>
										<pproTicksIn>4547741214858</pproTicksIn>
										<pproTicksOut>5945091867468</pproTicksOut>
										<file id="file-44"/>
										<sourcetrack>
											<mediatype>audio</mediatype>
											<trackindex>2</trackindex>
										</sourcetrack>
										<link>
											<linkclipref>clipitem-132</linkclipref>
											<mediatype>video</mediatype>
											<trackindex>1</trackindex>
											<clipindex>3</clipindex>
										</link>
										<link>
											<linkclipref>clipitem-148</linkclipref>
											<mediatype>audio</mediatype>
											<trackindex>1</trackindex>
											<clipindex>3</clipindex>
											<groupindex>1</groupindex>
										</link>
										<link>
											<linkclipref>clipitem-164</linkclipref>
											<mediatype>audio</mediatype>
											<trackindex>2</trackindex>
											<clipindex>3</clipindex>
											<groupindex>1</groupindex>
										</link>
										<logginginfo>
											<description></description>
											<scene></scene>
											<shottake></shottake>
											<lognote></lognote>
											<good></good>
											<originalvideofilename></originalvideofilename>
											<originalaudiofilename></originalaudiofilename>
										</logginginfo>
										<colorinfo>
											<lut></lut>
											<lut1></lut1>
											<asc_sop></asc_sop>
											<asc_sat></asc_sat>
											<lut2></lut2>
										</colorinfo>
										<labels>
											<label2>Iris</label2>
										</labels>
									</clipitem>
									<clipitem id="clipitem-165" premiereChannelType="stereo">
										<masterclipid>masterclip-44</masterclipid>
										<name>20211013_072525.mp4</name>
										<enabled>TRUE</enabled>
										<duration>19781</duration>
										<rate>
											<timebase>59</timebase>
											<ntsc>FALSE</ntsc>
										</rate>
										<start>1404</start>
										<end>2473</end>
										<in>1404</in>
										<out>2473</out>
										<pproTicksIn>5945091867468</pproTicksIn>
										<pproTicksOut>10471661102741</pproTicksOut>
										<file id="file-44"/>
										<sourcetrack>
											<mediatype>audio</mediatype>
											<trackindex>2</trackindex>
										</sourcetrack>
										<link>
											<linkclipref>clipitem-133</linkclipref>
											<mediatype>video</mediatype>
											<trackindex>1</trackindex>
											<clipindex>4</clipindex>
										</link>
										<link>
											<linkclipref>clipitem-149</linkclipref>
											<mediatype>audio</mediatype>
											<trackindex>1</trackindex>
											<clipindex>4</clipindex>
											<groupindex>1</groupindex>
										</link>
										<link>
											<linkclipref>clipitem-165</linkclipref>
											<mediatype>audio</mediatype>
											<trackindex>2</trackindex>
											<clipindex>4</clipindex>
											<groupindex>1</groupindex>
										</link>
										<logginginfo>
											<description></description>
											<scene></scene>
											<shottake></shottake>
											<lognote></lognote>
											<good></good>
											<originalvideofilename></originalvideofilename>
											<originalaudiofilename></originalaudiofilename>
										</logginginfo>
										<colorinfo>
											<lut></lut>
											<lut1></lut1>
											<asc_sop></asc_sop>
											<asc_sat></asc_sat>
											<lut2></lut2>
										</colorinfo>
										<labels>
											<label2>Iris</label2>
										</labels>
									</clipitem>
									<clipitem id="clipitem-166" premiereChannelType="stereo">
										<masterclipid>masterclip-44</masterclipid>
										<name>20211013_072525.mp4</name>
										<enabled>TRUE</enabled>
										<duration>19781</duration>
										<rate>
											<timebase>59</timebase>
											<ntsc>FALSE</ntsc>
										</rate>
										<start>2473</start>
										<end>3059</end>
										<in>2473</in>
										<out>3059</out>
										<pproTicksIn>10471661102741</pproTicksIn>
										<pproTicksOut>12953017110103</pproTicksOut>
										<file id="file-44"/>
										<sourcetrack>
											<mediatype>audio</mediatype>
											<trackindex>2</trackindex>
										</sourcetrack>
										<link>
											<linkclipref>clipitem-134</linkclipref>
											<mediatype>video</mediatype>
											<trackindex>1</trackindex>
											<clipindex>5</clipindex>
										</link>
										<link>
											<linkclipref>clipitem-150</linkclipref>
											<mediatype>audio</mediatype>
											<trackindex>1</trackindex>
											<clipindex>5</clipindex>
											<groupindex>1</groupindex>
										</link>
										<link>
											<linkclipref>clipitem-166</linkclipref>
											<mediatype>audio</mediatype>
											<trackindex>2</trackindex>
											<clipindex>5</clipindex>
											<groupindex>1</groupindex>
										</link>
										<logginginfo>
											<description></description>
											<scene></scene>
											<shottake></shottake>
											<lognote></lognote>
											<good></good>
											<originalvideofilename></originalvideofilename>
											<originalaudiofilename></originalaudiofilename>
										</logginginfo>
										<colorinfo>
											<lut></lut>
											<lut1></lut1>
											<asc_sop></asc_sop>
											<asc_sat></asc_sat>
											<lut2></lut2>
										</colorinfo>
										<labels>
											<label2>Iris</label2>
										</labels>
									</clipitem>
									<clipitem id="clipitem-167" premiereChannelType="stereo">
										<masterclipid>masterclip-44</masterclipid>
										<name>20211013_072525.mp4</name>
										<enabled>TRUE</enabled>
										<duration>19781</duration>
										<rate>
											<timebase>59</timebase>
											<ntsc>FALSE</ntsc>
										</rate>
										<start>3059</start>
										<end>4083</end>
										<in>3059</in>
										<out>4083</out>
										<pproTicksIn>12953017110103</pproTicksIn>
										<pproTicksOut>17289038529111</pproTicksOut>
										<file id="file-44"/>
										<sourcetrack>
											<mediatype>audio</mediatype>
											<trackindex>2</trackindex>
										</sourcetrack>
										<link>
											<linkclipref>clipitem-135</linkclipref>
											<mediatype>video</mediatype>
											<trackindex>1</trackindex>
											<clipindex>6</clipindex>
										</link>
										<link>
											<linkclipref>clipitem-151</linkclipref>
											<mediatype>audio</mediatype>
											<trackindex>1</trackindex>
											<clipindex>6</clipindex>
											<groupindex>1</groupindex>
										</link>
										<link>
											<linkclipref>clipitem-167</linkclipref>
											<mediatype>audio</mediatype>
											<trackindex>2</trackindex>
											<clipindex>6</clipindex>
											<groupindex>1</groupindex>
										</link>
										<logginginfo>
											<description></description>
											<scene></scene>
											<shottake></shottake>
											<lognote></lognote>
											<good></good>
											<originalvideofilename></originalvideofilename>
											<originalaudiofilename></originalaudiofilename>
										</logginginfo>
										<colorinfo>
											<lut></lut>
											<lut1></lut1>
											<asc_sop></asc_sop>
											<asc_sat></asc_sat>
											<lut2></lut2>
										</colorinfo>
										<labels>
											<label2>Iris</label2>
										</labels>
									</clipitem>
									<clipitem id="clipitem-168" premiereChannelType="stereo">
										<masterclipid>masterclip-44</masterclipid>
										<name>20211013_072525.mp4</name>
										<enabled>TRUE</enabled>
										<duration>19781</duration>
										<rate>
											<timebase>59</timebase>
											<ntsc>FALSE</ntsc>
										</rate>
										<start>4083</start>
										<end>8854</end>
										<in>4083</in>
										<out>8854</out>
										<pproTicksIn>17289038529111</pproTicksIn>
										<pproTicksOut>37491341449118</pproTicksOut>
										<file id="file-44"/>
										<sourcetrack>
											<mediatype>audio</mediatype>
											<trackindex>2</trackindex>
										</sourcetrack>
										<link>
											<linkclipref>clipitem-136</linkclipref>
											<mediatype>video</mediatype>
											<trackindex>1</trackindex>
											<clipindex>7</clipindex>
										</link>
										<link>
											<linkclipref>clipitem-152</linkclipref>
											<mediatype>audio</mediatype>
											<trackindex>1</trackindex>
											<clipindex>7</clipindex>
											<groupindex>1</groupindex>
										</link>
										<link>
											<linkclipref>clipitem-168</linkclipref>
											<mediatype>audio</mediatype>
											<trackindex>2</trackindex>
											<clipindex>7</clipindex>
											<groupindex>1</groupindex>
										</link>
										<logginginfo>
											<description></description>
											<scene></scene>
											<shottake></shottake>
											<lognote></lognote>
											<good></good>
											<originalvideofilename></originalvideofilename>
											<originalaudiofilename></originalaudiofilename>
										</logginginfo>
										<colorinfo>
											<lut></lut>
											<lut1></lut1>
											<asc_sop></asc_sop>
											<asc_sat></asc_sat>
											<lut2></lut2>
										</colorinfo>
										<labels>
											<label2>Iris</label2>
										</labels>
									</clipitem>
									<clipitem id="clipitem-169" premiereChannelType="stereo">
										<masterclipid>masterclip-44</masterclipid>
										<name>20211013_072525.mp4</name>
										<enabled>TRUE</enabled>
										<duration>19781</duration>
										<rate>
											<timebase>59</timebase>
											<ntsc>FALSE</ntsc>
										</rate>
										<start>8854</start>
										<end>9622</end>
										<in>8854</in>
										<out>9622</out>
										<pproTicksIn>37491341449118</pproTicksIn>
										<pproTicksOut>40743357513374</pproTicksOut>
										<file id="file-44"/>
										<sourcetrack>
											<mediatype>audio</mediatype>
											<trackindex>2</trackindex>
										</sourcetrack>
										<link>
											<linkclipref>clipitem-137</linkclipref>
											<mediatype>video</mediatype>
											<trackindex>1</trackindex>
											<clipindex>8</clipindex>
										</link>
										<link>
											<linkclipref>clipitem-153</linkclipref>
											<mediatype>audio</mediatype>
											<trackindex>1</trackindex>
											<clipindex>8</clipindex>
											<groupindex>1</groupindex>
										</link>
										<link>
											<linkclipref>clipitem-169</linkclipref>
											<mediatype>audio</mediatype>
											<trackindex>2</trackindex>
											<clipindex>8</clipindex>
											<groupindex>1</groupindex>
										</link>
										<logginginfo>
											<description></description>
											<scene></scene>
											<shottake></shottake>
											<lognote></lognote>
											<good></good>
											<originalvideofilename></originalvideofilename>
											<originalaudiofilename></originalaudiofilename>
										</logginginfo>
										<colorinfo>
											<lut></lut>
											<lut1></lut1>
											<asc_sop></asc_sop>
											<asc_sat></asc_sat>
											<lut2></lut2>
										</colorinfo>
										<labels>
											<label2>Iris</label2>
										</labels>
									</clipitem>
									<clipitem id="clipitem-170" premiereChannelType="stereo">
										<masterclipid>masterclip-44</masterclipid>
										<name>20211013_072525.mp4</name>
										<enabled>TRUE</enabled>
										<duration>19781</duration>
										<rate>
											<timebase>59</timebase>
											<ntsc>FALSE</ntsc>
										</rate>
										<start>9622</start>
										<end>12082</end>
										<in>9622</in>
										<out>12082</out>
										<pproTicksIn>40743357513374</pproTicksIn>
										<pproTicksOut>51159971469194</pproTicksOut>
										<file id="file-44"/>
										<sourcetrack>
											<mediatype>audio</mediatype>
											<trackindex>2</trackindex>
										</sourcetrack>
										<link>
											<linkclipref>clipitem-138</linkclipref>
											<mediatype>video</mediatype>
											<trackindex>1</trackindex>
											<clipindex>9</clipindex>
										</link>
										<link>
											<linkclipref>clipitem-154</linkclipref>
											<mediatype>audio</mediatype>
											<trackindex>1</trackindex>
											<clipindex>9</clipindex>
											<groupindex>1</groupindex>
										</link>
										<link>
											<linkclipref>clipitem-170</linkclipref>
											<mediatype>audio</mediatype>
											<trackindex>2</trackindex>
											<clipindex>9</clipindex>
											<groupindex>1</groupindex>
										</link>
										<logginginfo>
											<description></description>
											<scene></scene>
											<shottake></shottake>
											<lognote></lognote>
											<good></good>
											<originalvideofilename></originalvideofilename>
											<originalaudiofilename></originalaudiofilename>
										</logginginfo>
										<colorinfo>
											<lut></lut>
											<lut1></lut1>
											<asc_sop></asc_sop>
											<asc_sat></asc_sat>
											<lut2></lut2>
										</colorinfo>
										<labels>
											<label2>Iris</label2>
										</labels>
									</clipitem>
									<clipitem id="clipitem-171" premiereChannelType="stereo">
										<masterclipid>masterclip-44</masterclipid>
										<name>20211013_072525.mp4</name>
										<enabled>TRUE</enabled>
										<duration>19781</duration>
										<rate>
											<timebase>59</timebase>
											<ntsc>FALSE</ntsc>
										</rate>
										<start>12082</start>
										<end>12769</end>
										<in>12082</in>
										<out>12769</out>
										<pproTicksIn>51159971469194</pproTicksIn>
										<pproTicksOut>54069001464173</pproTicksOut>
										<file id="file-44"/>
										<sourcetrack>
											<mediatype>audio</mediatype>
											<trackindex>2</trackindex>
										</sourcetrack>
										<link>
											<linkclipref>clipitem-139</linkclipref>
											<mediatype>video</mediatype>
											<trackindex>1</trackindex>
											<clipindex>10</clipindex>
										</link>
										<link>
											<linkclipref>clipitem-155</linkclipref>
											<mediatype>audio</mediatype>
											<trackindex>1</trackindex>
											<clipindex>10</clipindex>
											<groupindex>1</groupindex>
										</link>
										<link>
											<linkclipref>clipitem-171</linkclipref>
											<mediatype>audio</mediatype>
											<trackindex>2</trackindex>
											<clipindex>10</clipindex>
											<groupindex>1</groupindex>
										</link>
										<logginginfo>
											<description></description>
											<scene></scene>
											<shottake></shottake>
											<lognote></lognote>
											<good></good>
											<originalvideofilename></originalvideofilename>
											<originalaudiofilename></originalaudiofilename>
										</logginginfo>
										<colorinfo>
											<lut></lut>
											<lut1></lut1>
											<asc_sop></asc_sop>
											<asc_sat></asc_sat>
											<lut2></lut2>
										</colorinfo>
										<labels>
											<label2>Iris</label2>
										</labels>
									</clipitem>
									<clipitem id="clipitem-172" premiereChannelType="stereo">
										<masterclipid>masterclip-44</masterclipid>
										<name>20211013_072525.mp4</name>
										<enabled>TRUE</enabled>
										<duration>19781</duration>
										<rate>
											<timebase>59</timebase>
											<ntsc>FALSE</ntsc>
										</rate>
										<start>12769</start>
										<end>13666</end>
										<in>12769</in>
										<out>13666</out>
										<pproTicksIn>54069001464173</pproTicksIn>
										<pproTicksOut>57867254601722</pproTicksOut>
										<file id="file-44"/>
										<sourcetrack>
											<mediatype>audio</mediatype>
											<trackindex>2</trackindex>
										</sourcetrack>
										<link>
											<linkclipref>clipitem-140</linkclipref>
											<mediatype>video</mediatype>
											<trackindex>1</trackindex>
											<clipindex>11</clipindex>
										</link>
										<link>
											<linkclipref>clipitem-156</linkclipref>
											<mediatype>audio</mediatype>
											<trackindex>1</trackindex>
											<clipindex>11</clipindex>
											<groupindex>1</groupindex>
										</link>
										<link>
											<linkclipref>clipitem-172</linkclipref>
											<mediatype>audio</mediatype>
											<trackindex>2</trackindex>
											<clipindex>11</clipindex>
											<groupindex>1</groupindex>
										</link>
										<logginginfo>
											<description></description>
											<scene></scene>
											<shottake></shottake>
											<lognote></lognote>
											<good></good>
											<originalvideofilename></originalvideofilename>
											<originalaudiofilename></originalaudiofilename>
										</logginginfo>
										<colorinfo>
											<lut></lut>
											<lut1></lut1>
											<asc_sop></asc_sop>
											<asc_sat></asc_sat>
											<lut2></lut2>
										</colorinfo>
										<labels>
											<label2>Iris</label2>
										</labels>
									</clipitem>
									<clipitem id="clipitem-173" premiereChannelType="stereo">
										<masterclipid>masterclip-44</masterclipid>
										<name>20211013_072525.mp4</name>
										<enabled>TRUE</enabled>
										<duration>19781</duration>
										<rate>
											<timebase>59</timebase>
											<ntsc>FALSE</ntsc>
										</rate>
										<start>13666</start>
										<end>14830</end>
										<in>13666</in>
										<out>14830</out>
										<pproTicksIn>57867254601722</pproTicksIn>
										<pproTicksOut>62796091449110</pproTicksOut>
										<file id="file-44"/>
										<sourcetrack>
											<mediatype>audio</mediatype>
											<trackindex>2</trackindex>
										</sourcetrack>
										<link>
											<linkclipref>clipitem-141</linkclipref>
											<mediatype>video</mediatype>
											<trackindex>1</trackindex>
											<clipindex>12</clipindex>
										</link>
										<link>
											<linkclipref>clipitem-157</linkclipref>
											<mediatype>audio</mediatype>
											<trackindex>1</trackindex>
											<clipindex>12</clipindex>
											<groupindex>1</groupindex>
										</link>
										<link>
											<linkclipref>clipitem-173</linkclipref>
											<mediatype>audio</mediatype>
											<trackindex>2</trackindex>
											<clipindex>12</clipindex>
											<groupindex>1</groupindex>
										</link>
										<logginginfo>
											<description></description>
											<scene></scene>
											<shottake></shottake>
											<lognote></lognote>
											<good></good>
											<originalvideofilename></originalvideofilename>
											<originalaudiofilename></originalaudiofilename>
										</logginginfo>
										<colorinfo>
											<lut></lut>
											<lut1></lut1>
											<asc_sop></asc_sop>
											<asc_sat></asc_sat>
											<lut2></lut2>
										</colorinfo>
										<labels>
											<label2>Iris</label2>
										</labels>
									</clipitem>
									<clipitem id="clipitem-174" premiereChannelType="stereo">
										<masterclipid>masterclip-44</masterclipid>
										<name>20211013_072525.mp4</name>
										<enabled>TRUE</enabled>
										<duration>19781</duration>
										<rate>
											<timebase>59</timebase>
											<ntsc>FALSE</ntsc>
										</rate>
										<start>14830</start>
										<end>15758</end>
										<in>14830</in>
										<out>15758</out>
										<pproTicksIn>62796091449110</pproTicksIn>
										<pproTicksOut>66725610860086</pproTicksOut>
										<file id="file-44"/>
										<sourcetrack>
											<mediatype>audio</mediatype>
											<trackindex>2</trackindex>
										</sourcetrack>
										<link>
											<linkclipref>clipitem-142</linkclipref>
											<mediatype>video</mediatype>
											<trackindex>1</trackindex>
											<clipindex>13</clipindex>
										</link>
										<link>
											<linkclipref>clipitem-158</linkclipref>
											<mediatype>audio</mediatype>
											<trackindex>1</trackindex>
											<clipindex>13</clipindex>
											<groupindex>1</groupindex>
										</link>
										<link>
											<linkclipref>clipitem-174</linkclipref>
											<mediatype>audio</mediatype>
											<trackindex>2</trackindex>
											<clipindex>13</clipindex>
											<groupindex>1</groupindex>
										</link>
										<logginginfo>
											<description></description>
											<scene></scene>
											<shottake></shottake>
											<lognote></lognote>
											<good></good>
											<originalvideofilename></originalvideofilename>
											<originalaudiofilename></originalaudiofilename>
										</logginginfo>
										<colorinfo>
											<lut></lut>
											<lut1></lut1>
											<asc_sop></asc_sop>
											<asc_sat></asc_sat>
											<lut2></lut2>
										</colorinfo>
										<labels>
											<label2>Iris</label2>
										</labels>
									</clipitem>
									<clipitem id="clipitem-175" premiereChannelType="stereo">
										<masterclipid>masterclip-44</masterclipid>
										<name>20211013_072525.mp4</name>
										<enabled>TRUE</enabled>
										<duration>19781</duration>
										<rate>
											<timebase>59</timebase>
											<ntsc>FALSE</ntsc>
										</rate>
										<start>15758</start>
										<end>16425</end>
										<in>15758</in>
										<out>16425</out>
										<pproTicksIn>66725610860086</pproTicksIn>
										<pproTicksOut>69549952936725</pproTicksOut>
										<file id="file-44"/>
										<sourcetrack>
											<mediatype>audio</mediatype>
											<trackindex>2</trackindex>
										</sourcetrack>
										<link>
											<linkclipref>clipitem-143</linkclipref>
											<mediatype>video</mediatype>
											<trackindex>1</trackindex>
											<clipindex>14</clipindex>
										</link>
										<link>
											<linkclipref>clipitem-159</linkclipref>
											<mediatype>audio</mediatype>
											<trackindex>1</trackindex>
											<clipindex>14</clipindex>
											<groupindex>1</groupindex>
										</link>
										<link>
											<linkclipref>clipitem-175</linkclipref>
											<mediatype>audio</mediatype>
											<trackindex>2</trackindex>
											<clipindex>14</clipindex>
											<groupindex>1</groupindex>
										</link>
										<logginginfo>
											<description></description>
											<scene></scene>
											<shottake></shottake>
											<lognote></lognote>
											<good></good>
											<originalvideofilename></originalvideofilename>
											<originalaudiofilename></originalaudiofilename>
										</logginginfo>
										<colorinfo>
											<lut></lut>
											<lut1></lut1>
											<asc_sop></asc_sop>
											<asc_sat></asc_sat>
											<lut2></lut2>
										</colorinfo>
										<labels>
											<label2>Iris</label2>
										</labels>
									</clipitem>
									<clipitem id="clipitem-176" premiereChannelType="stereo">
										<masterclipid>masterclip-44</masterclipid>
										<name>20211013_072525.mp4</name>
										<enabled>TRUE</enabled>
										<duration>19781</duration>
										<rate>
											<timebase>59</timebase>
											<ntsc>FALSE</ntsc>
										</rate>
										<start>16425</start>
										<end>17378</end>
										<in>16425</in>
										<out>17378</out>
										<pproTicksIn>69549952936725</pproTicksIn>
										<pproTicksOut>73585332245626</pproTicksOut>
										<file id="file-44"/>
										<sourcetrack>
											<mediatype>audio</mediatype>
											<trackindex>2</trackindex>
										</sourcetrack>
										<link>
											<linkclipref>clipitem-144</linkclipref>
											<mediatype>video</mediatype>
											<trackindex>1</trackindex>
											<clipindex>15</clipindex>
										</link>
										<link>
											<linkclipref>clipitem-160</linkclipref>
											<mediatype>audio</mediatype>
											<trackindex>1</trackindex>
											<clipindex>15</clipindex>
											<groupindex>1</groupindex>
										</link>
										<link>
											<linkclipref>clipitem-176</linkclipref>
											<mediatype>audio</mediatype>
											<trackindex>2</trackindex>
											<clipindex>15</clipindex>
											<groupindex>1</groupindex>
										</link>
										<logginginfo>
											<description></description>
											<scene></scene>
											<shottake></shottake>
											<lognote></lognote>
											<good></good>
											<originalvideofilename></originalvideofilename>
											<originalaudiofilename></originalaudiofilename>
										</logginginfo>
										<colorinfo>
											<lut></lut>
											<lut1></lut1>
											<asc_sop></asc_sop>
											<asc_sat></asc_sat>
											<lut2></lut2>
										</colorinfo>
										<labels>
											<label2>Iris</label2>
										</labels>
									</clipitem>
									<clipitem id="clipitem-177" premiereChannelType="stereo">
										<masterclipid>masterclip-44</masterclipid>
										<name>20211013_072525.mp4</name>
										<enabled>TRUE</enabled>
										<duration>19781</duration>
										<rate>
											<timebase>59</timebase>
											<ntsc>FALSE</ntsc>
										</rate>
										<start>17378</start>
										<end>19186</end>
										<in>17378</in>
										<out>19186</out>
										<pproTicksIn>73585332245626</pproTicksIn>
										<pproTicksOut>81241120063562</pproTicksOut>
										<file id="file-44"/>
										<sourcetrack>
											<mediatype>audio</mediatype>
											<trackindex>2</trackindex>
										</sourcetrack>
										<link>
											<linkclipref>clipitem-145</linkclipref>
											<mediatype>video</mediatype>
											<trackindex>1</trackindex>
											<clipindex>16</clipindex>
										</link>
										<link>
											<linkclipref>clipitem-161</linkclipref>
											<mediatype>audio</mediatype>
											<trackindex>1</trackindex>
											<clipindex>16</clipindex>
											<groupindex>1</groupindex>
										</link>
										<link>
											<linkclipref>clipitem-177</linkclipref>
											<mediatype>audio</mediatype>
											<trackindex>2</trackindex>
											<clipindex>16</clipindex>
											<groupindex>1</groupindex>
										</link>
										<logginginfo>
											<description></description>
											<scene></scene>
											<shottake></shottake>
											<lognote></lognote>
											<good></good>
											<originalvideofilename></originalvideofilename>
											<originalaudiofilename></originalaudiofilename>
										</logginginfo>
										<colorinfo>
											<lut></lut>
											<lut1></lut1>
											<asc_sop></asc_sop>
											<asc_sat></asc_sat>
											<lut2></lut2>
										</colorinfo>
										<labels>
											<label2>Iris</label2>
										</labels>
									</clipitem>
									<enabled>TRUE</enabled>
									<locked>FALSE</locked>
									<outputchannelindex>2</outputchannelindex>
								</track>
								<track TL.SQTrackExpandedHeight="25" TL.SQTrackExpanded="0" MZ.TrackTargeted="1" MZ.TrackName="Audio 2" PannerCurrentValue="0.5" PannerIsInverted="true" PannerStartKeyframe="-91445760000000000,0.5,0,0,0,0,0,0" PannerName="Balance" currentExplodedTrackIndex="0" totalExplodedTrackCount="2" premiereTrackType="Stereo">
									<enabled>TRUE</enabled>
									<locked>FALSE</locked>
									<outputchannelindex>1</outputchannelindex>
								</track>
								<track TL.SQTrackExpandedHeight="25" TL.SQTrackExpanded="0" MZ.TrackTargeted="1" MZ.TrackName="Audio 2" PannerCurrentValue="0.5" PannerIsInverted="true" PannerStartKeyframe="-91445760000000000,0.5,0,0,0,0,0,0" PannerName="Balance" currentExplodedTrackIndex="1" totalExplodedTrackCount="2" premiereTrackType="Stereo">
									<enabled>TRUE</enabled>
									<locked>FALSE</locked>
									<outputchannelindex>2</outputchannelindex>
								</track>
								<track TL.SQTrackExpandedHeight="25" TL.SQTrackExpanded="0" MZ.TrackTargeted="1" MZ.TrackName="Audio 3" PannerCurrentValue="0.5" PannerIsInverted="true" PannerStartKeyframe="-91445760000000000,0.5,0,0,0,0,0,0" PannerName="Balance" currentExplodedTrackIndex="0" totalExplodedTrackCount="2" premiereTrackType="Stereo">
									<enabled>TRUE</enabled>
									<locked>FALSE</locked>
									<outputchannelindex>1</outputchannelindex>
								</track>
								<track TL.SQTrackExpandedHeight="25" TL.SQTrackExpanded="0" MZ.TrackTargeted="1" MZ.TrackName="Audio 3" PannerCurrentValue="0.5" PannerIsInverted="true" PannerStartKeyframe="-91445760000000000,0.5,0,0,0,0,0,0" PannerName="Balance" currentExplodedTrackIndex="1" totalExplodedTrackCount="2" premiereTrackType="Stereo">
									<enabled>TRUE</enabled>
									<locked>FALSE</locked>
									<outputchannelindex>2</outputchannelindex>
								</track>
							</audio>
						</media>
						<timecode>
							<rate>
								<timebase>59</timebase>
								<ntsc>FALSE</ntsc>
							</rate>
							<string>00:00:00:00</string>
							<frame>0</frame>
							<displayformat>NDF</displayformat>
						</timecode>
						<labels>
							<label2>Forest</label2>
						</labels>
						<logginginfo>
							<description></description>
							<scene></scene>
							<shottake></shottake>
							<lognote></lognote>
							<good></good>
							<originalvideofilename></originalvideofilename>
							<originalaudiofilename></originalaudiofilename>
						</logginginfo>
					</sequence>
				</children>
			</bin>
			<bin>
				<name>raw</name>
				<labels>
					<label2>Mango</label2>
				</labels>
				<children>
					<clip id="masterclip-44" explodedTracks="true">
						<uuid>0573208d-5d4d-496c-85e2-cf725b81d1be</uuid>
						<masterclipid>masterclip-44</masterclipid>
						<ismasterclip>TRUE</ismasterclip>
						<duration>19781</duration>
						<rate>
							<timebase>59</timebase>
							<ntsc>FALSE</ntsc>
						</rate>
						<name>20211013_072525.mp4</name>
						<media>
							<video>
								<track>
									<clipitem id="clipitem-178">
										<masterclipid>masterclip-44</masterclipid>
										<name>20211013_072525.mp4</name>
										<rate>
											<timebase>59</timebase>
											<ntsc>FALSE</ntsc>
										</rate>
										<alphatype>none</alphatype>
										<file id="file-44"/>
										<link>
											<linkclipref>clipitem-178</linkclipref>
											<mediatype>video</mediatype>
											<trackindex>1</trackindex>
											<clipindex>1</clipindex>
										</link>
										<link>
											<linkclipref>clipitem-179</linkclipref>
											<mediatype>audio</mediatype>
											<trackindex>1</trackindex>
											<clipindex>1</clipindex>
											<groupindex>1</groupindex>
										</link>
										<link>
											<linkclipref>clipitem-180</linkclipref>
											<mediatype>audio</mediatype>
											<trackindex>2</trackindex>
											<clipindex>1</clipindex>
											<groupindex>1</groupindex>
										</link>
									</clipitem>
								</track>
							</video>
							<audio>
								<track>
									<clipitem id="clipitem-179">
										<masterclipid>masterclip-44</masterclipid>
										<name>20211013_072525.mp4</name>
										<rate>
											<timebase>59</timebase>
											<ntsc>FALSE</ntsc>
										</rate>
										<file id="file-44"/>
										<sourcetrack>
											<mediatype>audio</mediatype>
											<trackindex>1</trackindex>
										</sourcetrack>
										<link>
											<linkclipref>clipitem-178</linkclipref>
											<mediatype>video</mediatype>
											<trackindex>1</trackindex>
											<clipindex>1</clipindex>
										</link>
										<link>
											<linkclipref>clipitem-179</linkclipref>
											<mediatype>audio</mediatype>
											<trackindex>1</trackindex>
											<clipindex>1</clipindex>
											<groupindex>1</groupindex>
										</link>
										<link>
											<linkclipref>clipitem-180</linkclipref>
											<mediatype>audio</mediatype>
											<trackindex>2</trackindex>
											<clipindex>1</clipindex>
											<groupindex>1</groupindex>
										</link>
									</clipitem>
								</track>
								<track>
									<clipitem id="clipitem-180">
										<masterclipid>masterclip-44</masterclipid>
										<name>20211013_072525.mp4</name>
										<rate>
											<timebase>59</timebase>
											<ntsc>FALSE</ntsc>
										</rate>
										<file id="file-44"/>
										<sourcetrack>
											<mediatype>audio</mediatype>
											<trackindex>2</trackindex>
										</sourcetrack>
										<link>
											<linkclipref>clipitem-178</linkclipref>
											<mediatype>video</mediatype>
											<trackindex>1</trackindex>
											<clipindex>1</clipindex>
										</link>
										<link>
											<linkclipref>clipitem-179</linkclipref>
											<mediatype>audio</mediatype>
											<trackindex>1</trackindex>
											<clipindex>1</clipindex>
											<groupindex>1</groupindex>
										</link>
										<link>
											<linkclipref>clipitem-180</linkclipref>
											<mediatype>audio</mediatype>
											<trackindex>2</trackindex>
											<clipindex>1</clipindex>
											<groupindex>1</groupindex>
										</link>
									</clipitem>
								</track>
							</audio>
						</media>
						<logginginfo>
							<description></description>
							<scene></scene>
							<shottake></shottake>
							<lognote></lognote>
							<good></good>
							<originalvideofilename></originalvideofilename>
							<originalaudiofilename></originalaudiofilename>
						</logginginfo>
						<colorinfo>
							<lut></lut>
							<lut1></lut1>
							<asc_sop></asc_sop>
							<asc_sat></asc_sat>
							<lut2></lut2>
						</colorinfo>
						<labels>
							<label2>Iris</label2>
						</labels>
					</clip>
				</children>
			</bin>
		</children>
	</project>
</xmeml>
